  0
SECTION
  2
HEADER
  9
$ACADVER
  1
AC1027
  9
$ACADMAINTVER
 70
   125
  9
$DWGCODEPAGE
  3
ANSI_1252
  9
$REQUIREDVERSIONS
160
                 0
  9
$INSBASE
 10
0.0
 20
0.0
 30
0.0
  9
$EXTMIN
 10
102.7961294805257
 20
1678.737409415478
 30
-0.0000000000000016
  9
$EXTMAX
 10
1968.08127192484
 20
2079.536420587125
 30
0.5102802104706364
  9
$LIMMIN
 10
0.0
 20
0.0
  9
$LIMMAX
 10
420.0
 20
297.0
  9
$ORTHOMODE
 70
     0
  9
$REGENMODE
 70
     1
  9
$FILLMODE
 70
     1
  9
$QTEXTMODE
 70
     0
  9
$MIRRTEXT
 70
     0
  9
$LTSCALE
 40
1.0
  9
$ATTMODE
 70
     1
  9
$TEXTSIZE
 40
2.5
  9
$TRACEWID
 40
1.0
  9
$TEXTSTYLE
  7
Standard
  9
$CLAYER
  8
M Folds
  9
$CELTYPE
  6
ByLayer
  9
$CECOLOR
 62
   256
  9
$CELTSCALE
 40
1.0
  9
$DISPSILH
 70
     0
  9
$DIMSCALE
 40
1.0
  9
$DIMASZ
 40
2.5
  9
$DIMEXO
 40
0.625
  9
$DIMDLI
 40
3.75
  9
$DIMRND
 40
0.0
  9
$DIMDLE
 40
0.0
  9
$DIMEXE
 40
1.25
  9
$DIMTP
 40
0.0
  9
$DIMTM
 40
0.0
  9
$DIMTXT
 40
2.5
  9
$DIMCEN
 40
2.5
  9
$DIMTSZ
 40
0.0
  9
$DIMTOL
 70
     0
  9
$DIMLIM
 70
     0
  9
$DIMTIH
 70
     0
  9
$DIMTOH
 70
     0
  9
$DIMSE1
 70
     0
  9
$DIMSE2
 70
     0
  9
$DIMTAD
 70
     1
  9
$DIMZIN
 70
     8
  9
$DIMBLK
  1

  9
$DIMASO
 70
     1
  9
$DIMSHO
 70
     1
  9
$DIMPOST
  1

  9
$DIMAPOST
  1

  9
$DIMALT
 70
     0
  9
$DIMALTD
 70
     3
  9
$DIMALTF
 40
0.03937007874016
  9
$DIMLFAC
 40
1.0
  9
$DIMTOFL
 70
     1
  9
$DIMTVP
 40
0.0
  9
$DIMTIX
 70
     0
  9
$DIMSOXD
 70
     0
  9
$DIMSAH
 70
     0
  9
$DIMBLK1
  1

  9
$DIMBLK2
  1

  9
$DIMSTYLE
  2
ISO-25
  9
$DIMCLRD
 70
     0
  9
$DIMCLRE
 70
     0
  9
$DIMCLRT
 70
     0
  9
$DIMTFAC
 40
1.0
  9
$DIMGAP
 40
0.625
  9
$DIMJUST
 70
     0
  9
$DIMSD1
 70
     0
  9
$DIMSD2
 70
     0
  9
$DIMTOLJ
 70
     0
  9
$DIMTZIN
 70
     8
  9
$DIMALTZ
 70
     0
  9
$DIMALTTZ
 70
     0
  9
$DIMUPT
 70
     0
  9
$DIMDEC
 70
     2
  9
$DIMTDEC
 70
     2
  9
$DIMALTU
 70
     2
  9
$DIMALTTD
 70
     3
  9
$DIMTXSTY
  7
Standard
  9
$DIMAUNIT
 70
     0
  9
$DIMADEC
 70
     0
  9
$DIMALTRND
 40
0.0
  9
$DIMAZIN
 70
     0
  9
$DIMDSEP
 70
    44
  9
$DIMATFIT
 70
     3
  9
$DIMFRAC
 70
     0
  9
$DIMLDRBLK
  1

  9
$DIMLUNIT
 70
     2
  9
$DIMLWD
 70
    -2
  9
$DIMLWE
 70
    -2
  9
$DIMTMOVE
 70
     0
  9
$DIMFXL
 40
1.0
  9
$DIMFXLON
 70
     0
  9
$DIMJOGANG
 40
0.7853981633974483
  9
$DIMTFILL
 70
     0
  9
$DIMTFILLCLR
 70
     0
  9
$DIMARCSYM
 70
     0
  9
$DIMLTYPE
  6

  9
$DIMLTEX1
  6

  9
$DIMLTEX2
  6

  9
$DIMTXTDIRECTION
 70
     0
  9
$LUNITS
 70
     2
  9
$LUPREC
 70
     4
  9
$SKETCHINC
 40
1.0
  9
$FILLETRAD
 40
0.0
  9
$AUNITS
 70
     0
  9
$AUPREC
 70
     0
  9
$MENU
  1
.
  9
$ELEVATION
 40
0.0
  9
$PELEVATION
 40
0.0
  9
$THICKNESS
 40
0.0
  9
$LIMCHECK
 70
     0
  9
$CHAMFERA
 40
0.0
  9
$CHAMFERB
 40
0.0
  9
$CHAMFERC
 40
0.0
  9
$CHAMFERD
 40
0.0
  9
$SKPOLY
 70
     0
  9
$TDCREATE
 40
2459306.821226852
  9
$TDUCREATE
 40
2459306.446226852
  9
$TDUPDATE
 40
2459471.686712963
  9
$TDUUPDATE
 40
2459471.311712963
  9
$TDINDWG
 40
12.8145370370
  9
$TDUSRTIMER
 40
12.8145370370
  9
$USRTIMER
 70
     1
  9
$ANGBASE
 50
0.0
  9
$ANGDIR
 70
     0
  9
$PDMODE
 70
     0
  9
$PDSIZE
 40
0.0
  9
$PLINEWID
 40
0.0
  9
$SPLFRAME
 70
     0
  9
$SPLINETYPE
 70
     6
  9
$SPLINESEGS
 70
     8
  9
$HANDSEED
  5
2EE
  9
$SURFTAB1
 70
     6
  9
$SURFTAB2
 70
     6
  9
$SURFTYPE
 70
     6
  9
$SURFU
 70
     6
  9
$SURFV
 70
     6
  9
$UCSBASE
  2

  9
$UCSNAME
  2

  9
$UCSORG
 10
0.0
 20
0.0
 30
0.0
  9
$UCSXDIR
 10
1.0
 20
0.0
 30
0.0
  9
$UCSYDIR
 10
0.0
 20
1.0
 30
0.0
  9
$UCSORTHOREF
  2

  9
$UCSORTHOVIEW
 70
     0
  9
$UCSORGTOP
 10
0.0
 20
0.0
 30
0.0
  9
$UCSORGBOTTOM
 10
0.0
 20
0.0
 30
0.0
  9
$UCSORGLEFT
 10
0.0
 20
0.0
 30
0.0
  9
$UCSORGRIGHT
 10
0.0
 20
0.0
 30
0.0
  9
$UCSORGFRONT
 10
0.0
 20
0.0
 30
0.0
  9
$UCSORGBACK
 10
0.0
 20
0.0
 30
0.0
  9
$PUCSBASE
  2

  9
$PUCSNAME
  2

  9
$PUCSORG
 10
0.0
 20
0.0
 30
0.0
  9
$PUCSXDIR
 10
1.0
 20
0.0
 30
0.0
  9
$PUCSYDIR
 10
0.0
 20
1.0
 30
0.0
  9
$PUCSORTHOREF
  2

  9
$PUCSORTHOVIEW
 70
     0
  9
$PUCSORGTOP
 10
0.0
 20
0.0
 30
0.0
  9
$PUCSORGBOTTOM
 10
0.0
 20
0.0
 30
0.0
  9
$PUCSORGLEFT
 10
0.0
 20
0.0
 30
0.0
  9
$PUCSORGRIGHT
 10
0.0
 20
0.0
 30
0.0
  9
$PUCSORGFRONT
 10
0.0
 20
0.0
 30
0.0
  9
$PUCSORGBACK
 10
0.0
 20
0.0
 30
0.0
  9
$USERI1
 70
     0
  9
$USERI2
 70
     0
  9
$USERI3
 70
     0
  9
$USERI4
 70
     0
  9
$USERI5
 70
     0
  9
$USERR1
 40
0.0
  9
$USERR2
 40
0.0
  9
$USERR3
 40
0.0
  9
$USERR4
 40
0.0
  9
$USERR5
 40
0.0
  9
$WORLDVIEW
 70
     1
  9
$SHADEDGE
 70
     3
  9
$SHADEDIF
 70
    70
  9
$TILEMODE
 70
     1
  9
$MAXACTVP
 70
    64
  9
$PINSBASE
 10
0.0
 20
0.0
 30
0.0
  9
$PLIMCHECK
 70
     0
  9
$PEXTMIN
 10
0.0
 20
0.0
 30
0.0
  9
$PEXTMAX
 10
0.0
 20
0.0
 30
0.0
  9
$PLIMMIN
 10
0.0
 20
0.0
  9
$PLIMMAX
 10
12.0
 20
9.0
  9
$UNITMODE
 70
     0
  9
$VISRETAIN
 70
     1
  9
$PLINEGEN
 70
     0
  9
$PSLTSCALE
 70
     1
  9
$TREEDEPTH
 70
  3020
  9
$CMLSTYLE
  2
Standard
  9
$CMLJUST
 70
     0
  9
$CMLSCALE
 40
20.0
  9
$PROXYGRAPHICS
 70
     1
  9
$MEASUREMENT
 70
     1
  9
$CELWEIGHT
370
    -1
  9
$ENDCAPS
280
     0
  9
$JOINSTYLE
280
     0
  9
$LWDISPLAY
290
     0
  9
$INSUNITS
 70
     4
  9
$HYPERLINKBASE
  1

  9
$STYLESHEET
  1

  9
$XEDIT
290
     1
  9
$CEPSNTYPE
380
     0
  9
$PSTYLEMODE
290
     1
  9
$FINGERPRINTGUID
  2
{7D096C46-F269-514D-B50A-FCD133F2B209}
  9
$VERSIONGUID
  2
{C5195768-4624-0D4D-B509-EFB5589B469F}
  9
$EXTNAMES
290
     1
  9
$PSVPSCALE
 40
0.0
  9
$OLESTARTUP
290
     0
  9
$SORTENTS
280
   127
  9
$INDEXCTL
280
     0
  9
$HIDETEXT
280
     1
  9
$XCLIPFRAME
280
     2
  9
$HALOGAP
280
     0
  9
$OBSCOLOR
 70
   257
  9
$OBSLTYPE
280
     0
  9
$INTERSECTIONDISPLAY
280
     0
  9
$INTERSECTIONCOLOR
 70
   257
  9
$DIMASSOC
280
     2
  9
$PROJECTNAME
  1

  9
$CAMERADISPLAY
290
     0
  9
$LENSLENGTH
 40
50.0
  9
$CAMERAHEIGHT
 40
0.0
  9
$STEPSPERSEC
 40
2.0
  9
$STEPSIZE
 40
6.0
  9
$3DDWFPREC
 40
2.0
  9
$PSOLWIDTH
 40
5.0
  9
$PSOLHEIGHT
 40
80.0
  9
$LOFTANG1
 40
1.570796326794896
  9
$LOFTANG2
 40
1.570796326794896
  9
$LOFTMAG1
 40
0.0
  9
$LOFTMAG2
 40
0.0
  9
$LOFTPARAM
 70
     7
  9
$LOFTNORMALS
280
     1
  9
$LATITUDE
 40
37.795
  9
$LONGITUDE
 40
-122.394
  9
$NORTHDIRECTION
 40
0.0
  9
$TIMEZONE
 70
 -8000
  9
$LIGHTGLYPHDISPLAY
280
     1
  9
$TILEMODELIGHTSYNCH
280
     1
  9
$CMATERIAL
347
3A
  9
$SOLIDHIST
280
     0
  9
$SHOWHIST
280
     1
  9
$DWFFRAME
280
     2
  9
$DGNFRAME
280
     0
  9
$REALWORLDSCALE
290
     1
  9
$INTERFERECOLOR
 62
     1
  9
$INTERFEREOBJVS
345
56
  9
$INTERFEREVPVS
346
57
  9
$CSHADOW
280
     0
  9
$SHADOWPLANELOCATION
 40
0.0
  0
ENDSEC
  0
SECTION
  2
CLASSES
  0
CLASS
  1
ACDBDICTIONARYWDFLT
  2
AcDbDictionaryWithDefault
  3
ObjectDBX Classes
 90
        0
 91
        1
280
     0
281
     0
  0
CLASS
  1
DICTIONARYVAR
  2
AcDbDictionaryVar
  3
ObjectDBX Classes
 90
        0
 91
       11
280
     0
281
     0
  0
CLASS
  1
TABLESTYLE
  2
AcDbTableStyle
  3
ObjectDBX Classes
 90
     4095
 91
        1
280
     0
281
     0
  0
CLASS
  1
MATERIAL
  2
AcDbMaterial
  3
ObjectDBX Classes
 90
     1153
 91
        3
280
     0
281
     0
  0
CLASS
  1
VISUALSTYLE
  2
AcDbVisualStyle
  3
ObjectDBX Classes
 90
     4095
 91
        3
280
     0
281
     0
  0
CLASS
  1
SCALE
  2
AcDbScale
  3
ObjectDBX Classes
 90
     1153
 91
       17
280
     0
281
     0
  0
CLASS
  1
MLEADERSTYLE
  2
AcDbMLeaderStyle
  3
ACDB_MLEADERSTYLE_CLASS
 90
     4095
 91
        0
280
     0
281
     0
  0
CLASS
  1
CELLSTYLEMAP
  2
AcDbCellStyleMap
  3
ObjectDBX Classes
 90
     1152
 91
        1
280
     0
281
     0
  0
CLASS
  1
EXACXREFPANELOBJECT
  2
ExAcXREFPanelObject
  3
EXAC_ESW
 90
     1025
 91
        0
280
     1
281
     0
  0
CLASS
  1
NPOCOLLECTION
  2
AcDbImpNonPersistentObjectsCollection
  3
ObjectDBX Classes
 90
     1153
 91
        0
280
     0
281
     0
  0
CLASS
  1
LAYER_INDEX
  2
AcDbLayerIndex
  3
ObjectDBX Classes
 90
        0
 91
        0
280
     0
281
     0
  0
CLASS
  1
SPATIAL_INDEX
  2
AcDbSpatialIndex
  3
ObjectDBX Classes
 90
        0
 91
        0
280
     0
281
     0
  0
CLASS
  1
IDBUFFER
  2
AcDbIdBuffer
  3
ObjectDBX Classes
 90
        0
 91
        0
280
     0
281
     0
  0
CLASS
  1
ACDBSECTIONVIEWSTYLE
  2
AcDbSectionViewStyle
  3
ObjectDBX Classes
 90
     1025
 91
        0
280
     0
281
     0
  0
CLASS
  1
ACDBDETAILVIEWSTYLE
  2
AcDbDetailViewStyle
  3
ObjectDBX Classes
 90
     1025
 91
        0
280
     0
281
     0
  0
CLASS
  1
ACARRAYJIGENTITY
  2
AcArrayJigEntity
  3
ACAD_ARRAY
 90
      129
 91
        0
280
     1
281
     1
  0
CLASS
  1
ACDBASSOCNETWORK
  2
AcDbAssocNetwork
  3
ObjectDBX Classes
 90
     1025
 91
        0
280
     0
281
     0
  0
CLASS
  1
ACDBASSOCACTION
  2
AcDbAssocAction
  3
ObjectDBX Classes
 90
     1025
 91
        0
280
     0
281
     0
  0
CLASS
  1
ACDBASSOCARRAYACTIONBODY
  2
AcDbAssocArrayActionBody
  3
ObjectDBX Classes
 90
     1025
 91
        0
280
     0
281
     0
  0
CLASS
  1
ACDBASSOCVERTEXACTIONPARAM
  2
AcDbAssocVertexActionParam
  3
ObjectDBX Classes
 90
     1025
 91
        0
280
     0
281
     0
  0
CLASS
  1
ACDBASSOCDEPENDENCY
  2
AcDbAssocDependency
  3
ObjectDBX Classes
 90
     1025
 91
        0
280
     0
281
     0
  0
CLASS
  1
ACDBASSOCARRAYPOLARPARAMETERS
  2
AcDbAssocArrayPolarParameters
  3
ObjectDBX Classes
 90
     1025
 91
        0
280
     0
281
     0
  0
CLASS
  1
SORTENTSTABLE
  2
AcDbSortentsTable
  3
ObjectDBX Classes
 90
        0
 91
        2
280
     0
281
     0
  0
CLASS
  1
DIMASSOC
  2
AcDbDimAssoc
  3
"AcDbDimAssoc|Product Desc:     AcDim ARX App For Dimension|Company:          Autodesk, Inc.|WEB Address:      www.autodesk.com"
 90
        0
 91
        0
280
     0
281
     0
  0
CLASS
  1
SOLID_BACKGROUND
  2
AcDbSolidBackground
  3
SCENEOE
 90
     4095
 91
        0
280
     1
281
     0
  0
CLASS
  1
ACDBASSOCARRAYRECTANGULARPARAMETERS
  2
AcDbAssocArrayRectangularParameters
  3
ObjectDBX Classes
 90
     1025
 91
        0
280
     0
281
     0
  0
ENDSEC
  0
SECTION
  2
TABLES
  0
TABLE
  2
VPORT
  5
2A
330
0
100
AcDbSymbolTable
 70
     1
1001
ACAD
1000
DbSaveVer
1071
      191
  0
VPORT
  5
2B
330
2A
100
AcDbSymbolTableRecord
100
AcDbViewportTableRecord
  2
*Active
 70
     0
 10
0.0
 20
0.0
 11
1.0
 21
1.0
 12
25.81691156579251
 22
-366.9228765842086
 13
0.0
 23
0.0
 14
10.0
 24
10.0
 15
10.0
 25
10.0
 16
-2.080210715748307
 26
-8.987447335369552
 36
514.8863108518533
 17
1494.464141905859
 27
2006.15528225951
 37
-0.4616823595235849
 40
415.3055990092016
 41
1.563573883161511
 42
50.0
 43
0.0
 44
0.0
 50
0.0
 51
346.9659360514529
 71
     0
 72
  1000
 73
     1
 74
     3
 75
     0
 76
     1
 77
     0
 78
     0
281
     0
 65
     1
110
0.0
120
0.0
130
0.0
111
1.0
121
0.0
131
0.0
112
0.0
122
1.0
132
0.0
 79
     0
146
0.0
348
2C
 60
     3
 61
     5
292
     1
282
     1
141
0.0
142
0.0
 63
   250
421
  3355443
1001
ACAD_NAV_VCDISPLAY
1070
     3
  0
ENDTAB
  0
TABLE
  2
LTYPE
  5
25
330
0
100
AcDbSymbolTable
 70
     1
  0
LTYPE
  5
26
330
25
100
AcDbSymbolTableRecord
100
AcDbLinetypeTableRecord
  2
ByBlock
 70
     0
  3

 72
    65
 73
     0
 40
0.0
  0
LTYPE
  5
27
330
25
100
AcDbSymbolTableRecord
100
AcDbLinetypeTableRecord
  2
ByLayer
 70
     0
  3

 72
    65
 73
     0
 40
0.0
  0
LTYPE
  5
15
330
25
100
AcDbSymbolTableRecord
100
AcDbLinetypeTableRecord
  2
Continuous
 70
     0
  3
Solid line
 72
    65
 73
     0
 40
0.0
  0
ENDTAB
  0
TABLE
  2
LAYER
  5
1F
102
{ACAD_XDICTIONARY
360
20
102
}
330
0
100
AcDbSymbolTable
 70
     4
  0
LAYER
  5
7
102
{ACAD_XDICTIONARY
360
8
102
}
330
1F
100
AcDbSymbolTableRecord
100
AcDbLayerTableRecord
  2
0
 70
     0
 62
    -1
  6
Continuous
370
    -3
390
9
347
C
348
0
  0
LAYER
  5
6A
330
1F
100
AcDbSymbolTableRecord
100
AcDbLayerTableRecord
  2
Cut
 70
     0
 62
     4
  6
Continuous
370
    -3
390
9
347
C
348
0
1001
AcAecLayerStandard
1000

1000

1001
AcCmTransparency
1071
        0
1001
AcadStringInfo
1000
MIFCodePage
1070
     5
  0
LAYER
  5
6D
330
1F
100
AcDbSymbolTableRecord
100
AcDbLayerTableRecord
  2
V Folds
 70
     0
 62
     5
  6
Continuous
370
    -3
390
9
347
C
348
0
1001
AcAecLayerStandard
1000

1000

1001
AcCmTransparency
1071
        0
  0
LAYER
  5
50
330
1F
100
AcDbSymbolTableRecord
100
AcDbLayerTableRecord
  2
M Folds
 70
     0
 62
     2
  6
Continuous
370
    -3
390
9
347
C
348
0
1001
AcAecLayerStandard
1000

1000

1001
AcCmTransparency
1071
        0
  0
ENDTAB
  0
TABLE
  2
STYLE
  5
22
330
0
100
AcDbSymbolTable
 70
     1
  0
STYLE
  5
23
330
22
100
AcDbSymbolTableRecord
100
AcDbTextStyleTableRecord
  2
Standard
 70
     0
 40
0.0
 41
1.0
 50
0.0
 71
     0
 42
2.5
  3
Arial.ttf
  4

1001
ACAD
1000
Arial
1071
       34
  0
ENDTAB
  0
TABLE
  2
VIEW
  5
28
330
0
100
AcDbSymbolTable
 70
     0
  0
ENDTAB
  0
TABLE
  2
UCS
  5
29
330
0
100
AcDbSymbolTable
 70
     0
  0
ENDTAB
  0
TABLE
  2
APPID
  5
2F
330
0
100
AcDbSymbolTable
 70
     9
  0
APPID
  5
14
330
2F
100
AcDbSymbolTableRecord
100
AcDbRegAppTableRecord
  2
ACAD
 70
     0
  0
APPID
  5
1A
330
2F
100
AcDbSymbolTableRecord
100
AcDbRegAppTableRecord
  2
ACAD_PSEXT
 70
     0
  0
APPID
  5
33
330
2F
100
AcDbSymbolTableRecord
100
AcDbRegAppTableRecord
  2
AcadAnnotative
 70
     0
  0
APPID
  5
34
330
2F
100
AcDbSymbolTableRecord
100
AcDbRegAppTableRecord
  2
ACAD_DSTYLE_DIMJAG
 70
     0
  0
APPID
  5
35
330
2F
100
AcDbSymbolTableRecord
100
AcDbRegAppTableRecord
  2
ACAD_DSTYLE_DIMTALN
 70
     0
  0
APPID
  5
2E
330
2F
100
AcDbSymbolTableRecord
100
AcDbRegAppTableRecord
  2
ACAD_NAV_VCDISPLAY
 70
     0
  0
APPID
  5
51
330
2F
100
AcDbSymbolTableRecord
100
AcDbRegAppTableRecord
  2
AcAecLayerStandard
 70
     0
  0
APPID
  5
52
330
2F
100
AcDbSymbolTableRecord
100
AcDbRegAppTableRecord
  2
AcCmTransparency
 70
     0
  0
APPID
  5
6B
330
2F
100
AcDbSymbolTableRecord
100
AcDbRegAppTableRecord
  2
AcadStringInfo
 70
     0
  0
ENDTAB
  0
TABLE
  2
DIMSTYLE
  5
30
330
0
100
AcDbSymbolTable
 70
     2
100
AcDbDimStyleTable
 71
     2
340
31
340
32
  0
DIMSTYLE
105
32
330
30
100
AcDbSymbolTableRecord
100
AcDbDimStyleTableRecord
  2
Annotative
 70
     0
 40
0.0
 41
2.5
 42
0.625
 43
3.75
 44
1.25
 73
     0
 74
     0
 77
     1
 78
     8
140
2.5
141
2.5
143
0.03937007874016
147
0.625
171
     3
172
     1
271
     2
272
     2
274
     3
278
    44
283
     0
284
     8
340
23
1001
AcadAnnotative
1000
AnnotativeData
1002
{
1070
     1
1070
     1
1002
}
1001
ACAD_DSTYLE_DIMJAG
1070
   388
1040
1.5
1001
ACAD_DSTYLE_DIMTALN
1070
   392
1070
     0
  0
DIMSTYLE
105
31
330
30
100
AcDbSymbolTableRecord
100
AcDbDimStyleTableRecord
  2
ISO-25
 70
     0
 41
2.5
 42
0.625
 43
3.75
 44
1.25
 73
     0
 74
     0
 77
     1
 78
     8
140
2.5
141
2.5
143
0.03937007874016
147
0.625
171
     3
172
     1
271
     2
272
     2
274
     3
278
    44
283
     0
284
     8
340
23
  0
ENDTAB
  0
TABLE
  2
BLOCK_RECORD
  5
1
330
0
100
AcDbSymbolTable
 70
     0
  0
BLOCK_RECORD
  5
2
102
{ACAD_XDICTIONARY
360
3
102
}
330
1
100
AcDbSymbolTableRecord
100
AcDbBlockTableRecord
  2
*Model_Space
340
17
 70
     0
280
     1
281
     0
  0
BLOCK_RECORD
  5
1B
330
1
100
AcDbSymbolTableRecord
100
AcDbBlockTableRecord
  2
*Paper_Space
340
1E
 70
     0
280
     1
281
     0
  0
ENDTAB
  0
ENDSEC
  0
SECTION
  2
BLOCKS
  0
BLOCK
  5
6
330
2
100
AcDbEntity
  8
0
100
AcDbBlockBegin
  2
*Model_Space
 70
     0
 10
0.0
 20
0.0
 30
0.0
  3
*Model_Space
  1

  0
ENDBLK
  5
16
330
2
100
AcDbEntity
  8
0
100
AcDbBlockEnd
  0
BLOCK
  5
1C
330
1B
100
AcDbEntity
 67
     1
  8
0
100
AcDbBlockBegin
  2
*Paper_Space
 70
     0
 10
0.0
 20
0.0
 30
0.0
  3
*Paper_Space
  1

  0
ENDBLK
  5
1D
330
1B
100
AcDbEntity
 67
     1
  8
0
100
AcDbBlockEnd
  0
ENDSEC
  0
SECTION
  2
ENTITIES
  0
CIRCLE
  5
69
330
2
100
AcDbEntity
  8
Cut
100
AcDbCircle
 10
1399.831760050243
 20
1749.592117769265
 30
0.0
 40
12.5
  0
LINE
  5
6C
330
2
100
AcDbEntity
  8
V Folds
100
AcDbLine
 10
1399.831760050243
 20
1749.592117769265
 30
0.0
 11
1399.831760050243
 21
1762.092117769265
 31
0.0
  0
LINE
  5
6E
330
2
100
AcDbEntity
  8
M Folds
100
AcDbLine
 10
1399.831760050243
 20
1749.592117769265
 30
0.0
 11
1397.87632923724
 21
1761.938222026704
 31
0.0
  0
LINE
  5
6F
330
2
100
AcDbEntity
  8
V Folds
100
AcDbLine
 10
1399.831760050243
 20
1749.592117769265
 30
0.0
 11
1395.969047620556
 21
1761.480324222954
 31
0.0
  0
LINE
  5
70
330
2
100
AcDbEntity
  8
M Folds
100
AcDbLine
 10
1399.831760050243
 20
1749.592117769265
 30
0.0
 11
1394.156878803498
 21
1760.729699321619
 31
0.0
  0
LINE
  5
71
330
2
100
AcDbEntity
  8
V Folds
100
AcDbLine
 10
1399.831760050243
 20
1749.592117769265
 30
0.0
 11
1392.484444396586
 21
1759.704830198953
 31
0.0
  0
LINE
  5
72
330
2
100
AcDbEntity
  8
M Folds
100
AcDbLine
 10
1399.831760050243
 20
1749.592117769265
 30
0.0
 11
1390.992925285411
 21
1758.430952534097
 31
0.0
  0
LINE
  5
73
330
2
100
AcDbEntity
  8
V Folds
100
AcDbLine
 10
1399.831760050243
 20
1749.592117769265
 30
0.0
 11
1389.719047620556
 21
1756.939433422921
 31
0.0
  0
LINE
  5
74
330
2
100
AcDbEntity
  8
M Folds
100
AcDbLine
 10
1399.831760050243
 20
1749.592117769265
 30
0.0
 11
1388.694178497888
 21
1755.266999016009
 31
0.0
  0
LINE
  5
75
330
2
100
AcDbEntity
  8
V Folds
100
AcDbLine
 10
1399.831760050243
 20
1749.592117769265
 30
0.0
 11
1387.943553596553
 21
1753.454830198952
 31
0.0
  0
LINE
  5
76
330
2
100
AcDbEntity
  8
M Folds
100
AcDbLine
 10
1399.831760050243
 20
1749.592117769265
 30
0.0
 11
1387.485655792804
 21
1751.547548582268
 31
0.0
  0
LINE
  5
77
330
2
100
AcDbEntity
  8
V Folds
100
AcDbLine
 10
1399.831760050243
 20
1749.592117769265
 30
0.0
 11
1387.331760050243
 21
1749.592117769265
 31
0.0
  0
LINE
  5
78
330
2
100
AcDbEntity
  8
M Folds
100
AcDbLine
 10
1399.831760050243
 20
1749.592117769265
 30
0.0
 11
1387.485655792804
 21
1747.636686956262
 31
0.0
  0
LINE
  5
79
330
2
100
AcDbEntity
  8
V Folds
100
AcDbLine
 10
1399.831760050243
 20
1749.592117769265
 30
0.0
 11
1387.943553596553
 21
1745.729405339578
 31
0.0
  0
LINE
  5
7A
330
2
100
AcDbEntity
  8
M Folds
100
AcDbLine
 10
1399.831760050243
 20
1749.592117769265
 30
0.0
 11
1388.694178497888
 21
1743.917236522521
 31
0.0
  0
LINE
  5
7B
330
2
100
AcDbEntity
  8
V Folds
100
AcDbLine
 10
1399.831760050243
 20
1749.592117769265
 30
0.0
 11
1389.719047620556
 21
1742.24480211561
 31
0.0
  0
LINE
  5
7C
330
2
100
AcDbEntity
  8
M Folds
100
AcDbLine
 10
1399.831760050243
 20
1749.592117769265
 30
0.0
 11
1390.992925285411
 21
1740.753283004434
 31
0.0
  0
LINE
  5
7D
330
2
100
AcDbEntity
  8
V Folds
100
AcDbLine
 10
1399.831760050243
 20
1749.592117769265
 30
0.0
 11
1392.484444396586
 21
1739.479405339578
 31
0.0
  0
LINE
  5
7E
330
2
100
AcDbEntity
  8
M Folds
100
AcDbLine
 10
1399.831760050243
 20
1749.592117769265
 30
0.0
 11
1394.156878803498
 21
1738.454536216911
 31
0.0
  0
LINE
  5
7F
330
2
100
AcDbEntity
  8
V Folds
100
AcDbLine
 10
1399.831760050243
 20
1749.592117769265
 30
0.0
 11
1395.969047620556
 21
1737.703911315576
 31
0.0
  0
LINE
  5
80
330
2
100
AcDbEntity
  8
M Folds
100
AcDbLine
 10
1399.831760050243
 20
1749.592117769265
 30
0.0
 11
1397.87632923724
 21
1737.246013511826
 31
0.0
  0
LINE
  5
81
330
2
100
AcDbEntity
  8
V Folds
100
AcDbLine
 10
1399.831760050243
 20
1749.592117769265
 30
0.0
 11
1399.831760050243
 21
1737.092117769265
 31
0.0
  0
LINE
  5
82
330
2
100
AcDbEntity
  8
M Folds
100
AcDbLine
 10
1399.831760050243
 20
1749.592117769265
 30
0.0
 11
1401.787190863245
 21
1737.246013511826
 31
0.0
  0
LINE
  5
83
330
2
100
AcDbEntity
  8
V Folds
100
AcDbLine
 10
1399.831760050243
 20
1749.592117769265
 30
0.0
 11
1403.694472479929
 21
1737.703911315576
 31
0.0
  0
LINE
  5
84
330
2
100
AcDbEntity
  8
M Folds
100
AcDbLine
 10
1399.831760050243
 20
1749.592117769265
 30
0.0
 11
1405.506641296987
 21
1738.454536216911
 31
0.0
  0
LINE
  5
85
330
2
100
AcDbEntity
  8
V Folds
100
AcDbLine
 10
1399.831760050243
 20
1749.592117769265
 30
0.0
 11
1407.179075703898
 21
1739.479405339578
 31
0.0
  0
LINE
  5
86
330
2
100
AcDbEntity
  8
M Folds
100
AcDbLine
 10
1399.831760050243
 20
1749.592117769266
 30
0.0
 11
1408.670594815074
 21
1740.753283004433
 31
0.0
  0
LINE
  5
87
330
2
100
AcDbEntity
  8
V Folds
100
AcDbLine
 10
1399.831760050243
 20
1749.592117769265
 30
0.0
 11
1409.944472479929
 21
1742.24480211561
 31
0.0
  0
LINE
  5
88
330
2
100
AcDbEntity
  8
M Folds
100
AcDbLine
 10
1399.831760050243
 20
1749.592117769266
 30
0.0
 11
1410.969341602597
 21
1743.917236522521
 31
0.0
  0
LINE
  5
89
330
2
100
AcDbEntity
  8
V Folds
100
AcDbLine
 10
1399.831760050243
 20
1749.592117769265
 30
0.0
 11
1411.719966503932
 21
1745.729405339578
 31
0.0
  0
LINE
  5
8A
330
2
100
AcDbEntity
  8
M Folds
100
AcDbLine
 10
1399.831760050243
 20
1749.592117769265
 30
0.0
 11
1412.177864307682
 21
1747.636686956262
 31
0.0
  0
LINE
  5
8B
330
2
100
AcDbEntity
  8
V Folds
100
AcDbLine
 10
1399.831760050243
 20
1749.592117769265
 30
0.0
 11
1412.331760050243
 21
1749.592117769265
 31
0.0
  0
LINE
  5
8C
330
2
100
AcDbEntity
  8
M Folds
100
AcDbLine
 10
1399.831760050243
 20
1749.592117769265
 30
0.0
 11
1412.177864307682
 21
1751.547548582268
 31
0.0
  0
LINE
  5
8D
330
2
100
AcDbEntity
  8
V Folds
100
AcDbLine
 10
1399.831760050243
 20
1749.592117769266
 30
0.0
 11
1411.719966503932
 21
1753.454830198952
 31
0.0
  0
LINE
  5
8E
330
2
100
AcDbEntity
  8
M Folds
100
AcDbLine
 10
1399.831760050243
 20
1749.592117769265
 30
0.0
 11
1410.969341602597
 21
1755.266999016009
 31
0.0
  0
LINE
  5
8F
330
2
100
AcDbEntity
  8
V Folds
100
AcDbLine
 10
1399.831760050243
 20
1749.592117769265
 30
0.0
 11
1409.94447247993
 21
1756.939433422921
 31
0.0
  0
LINE
  5
90
330
2
100
AcDbEntity
  8
M Folds
100
AcDbLine
 10
1399.831760050243
 20
1749.592117769265
 30
0.0
 11
1408.670594815075
 21
1758.430952534097
 31
0.0
  0
LINE
  5
91
330
2
100
AcDbEntity
  8
V Folds
100
AcDbLine
 10
1399.831760050243
 20
1749.592117769266
 30
0.0
 11
1407.179075703899
 21
1759.704830198952
 31
0.0
  0
LINE
  5
92
330
2
100
AcDbEntity
  8
M Folds
100
AcDbLine
 10
1399.831760050243
 20
1749.592117769265
 30
0.0
 11
1405.506641296987
 21
1760.729699321619
 31
0.0
  0
LINE
  5
93
330
2
100
AcDbEntity
  8
V Folds
100
AcDbLine
 10
1399.831760050243
 20
1749.592117769265
 30
0.0
 11
1403.69447247993
 21
1761.480324222954
 31
0.0
  0
LINE
  5
94
330
2
100
AcDbEntity
  8
M Folds
100
AcDbLine
 10
1399.831760050243
 20
1749.592117769265
 30
0.0
 11
1401.787190863245
 21
1761.938222026704
 31
0.0
  0
CIRCLE
  5
95
330
2
100
AcDbEntity
  8
Cut
100
AcDbCircle
 10
1399.831760050243
 20
1749.592117769266
 30
0.0
 40
12.5
  0
LINE
  5
96
330
2
100
AcDbEntity
  8
V Folds
100
AcDbLine
 10
1450.016007597209
 20
1749.592117769262
 30
0.0
 11
1465.016007597209
 21
1749.592117769262
 31
0.0
  0
CIRCLE
  5
97
330
2
100
AcDbEntity
  8
Cut
100
AcDbCircle
 10
1450.016007597209
 20
1749.592117769263
 30
0.0
 40
15.0
  0
LINE
  5
98
330
2
100
AcDbEntity
  8
V Folds
100
AcDbLine
 10
1450.016007597209
 20
1749.592117769262
 30
0.0
 11
1464.281855341637
 21
1754.227372684887
 31
0.0
  0
LINE
  5
99
330
2
100
AcDbEntity
  8
V Folds
100
AcDbLine
 10
1450.016007597209
 20
1749.592117769262
 30
0.0
 11
1462.151262512834
 21
1758.40889655365
 31
0.0
  0
LINE
  5
9A
330
2
100
AcDbEntity
  8
V Folds
100
AcDbLine
 10
1450.016007597209
 20
1749.592117769262
 30
0.0
 11
1458.832786381597
 21
1761.727372684887
 31
0.0
  0
LINE
  5
9B
330
2
100
AcDbEntity
  8
V Folds
100
AcDbLine
 10
1450.016007597209
 20
1749.592117769262
 30
0.0
 11
1454.651262512833
 21
1763.85796551369
 31
0.0
  0
LINE
  5
9C
330
2
100
AcDbEntity
  8
V Folds
100
AcDbLine
 10
1450.01600759721
 20
1749.592117769262
 30
0.0
 11
1450.01600759721
 21
1764.592117769262
 31
0.0
  0
LINE
  5
9D
330
2
100
AcDbEntity
  8
V Folds
100
AcDbLine
 10
1450.01600759721
 20
1749.592117769262
 30
0.0
 11
1445.380752681585
 21
1763.85796551369
 31
0.0
  0
LINE
  5
9E
330
2
100
AcDbEntity
  8
V Folds
100
AcDbLine
 10
1450.01600759721
 20
1749.592117769262
 30
0.0
 11
1441.199228812822
 21
1761.727372684887
 31
0.0
  0
LINE
  5
9F
330
2
100
AcDbEntity
  8
V Folds
100
AcDbLine
 10
1450.01600759721
 20
1749.592117769262
 30
0.0
 11
1437.880752681585
 21
1758.40889655365
 31
0.0
  0
LINE
  5
A0
330
2
100
AcDbEntity
  8
V Folds
100
AcDbLine
 10
1450.01600759721
 20
1749.592117769262
 30
0.0
 11
1435.750159852782
 21
1754.227372684886
 31
0.0
  0
LINE
  5
A1
330
2
100
AcDbEntity
  8
V Folds
100
AcDbLine
 10
1450.01600759721
 20
1749.592117769262
 30
0.0
 11
1435.01600759721
 21
1749.592117769262
 31
0.0
  0
LINE
  5
A2
330
2
100
AcDbEntity
  8
V Folds
100
AcDbLine
 10
1450.01600759721
 20
1749.592117769262
 30
0.0
 11
1435.750159852782
 21
1744.956862853638
 31
0.0
  0
LINE
  5
A3
330
2
100
AcDbEntity
  8
V Folds
100
AcDbLine
 10
1450.01600759721
 20
1749.592117769262
 30
0.0
 11
1437.880752681585
 21
1740.775338984875
 31
0.0
  0
LINE
  5
A4
330
2
100
AcDbEntity
  8
V Folds
100
AcDbLine
 10
1450.01600759721
 20
1749.592117769262
 30
0.0
 11
1441.199228812823
 21
1737.456862853638
 31
0.0
  0
LINE
  5
A5
330
2
100
AcDbEntity
  8
V Folds
100
AcDbLine
 10
1450.01600759721
 20
1749.592117769262
 30
0.0
 11
1445.380752681586
 21
1735.326270024835
 31
0.0
  0
LINE
  5
A6
330
2
100
AcDbEntity
  8
V Folds
100
AcDbLine
 10
1450.016007597209
 20
1749.592117769262
 30
0.0
 11
1450.016007597208
 21
1734.592117769263
 31
0.0
  0
LINE
  5
A7
330
2
100
AcDbEntity
  8
V Folds
100
AcDbLine
 10
1450.016007597209
 20
1749.592117769262
 30
0.0
 11
1454.651262512833
 21
1735.326270024835
 31
0.0
  0
LINE
  5
A8
330
2
100
AcDbEntity
  8
V Folds
100
AcDbLine
 10
1450.016007597209
 20
1749.592117769262
 30
0.0
 11
1458.832786381596
 21
1737.456862853638
 31
0.0
  0
LINE
  5
A9
330
2
100
AcDbEntity
  8
V Folds
100
AcDbLine
 10
1450.016007597209
 20
1749.592117769262
 30
0.0
 11
1462.151262512834
 21
1740.775338984875
 31
0.0
  0
LINE
  5
AA
330
2
100
AcDbEntity
  8
V Folds
100
AcDbLine
 10
1450.016007597209
 20
1749.592117769262
 30
0.0
 11
1464.281855341636
 21
1744.956862853638
 31
0.0
  0
LINE
  5
AB
330
2
100
AcDbEntity
  8
M Folds
100
AcDbLine
 10
1450.016007597217
 20
1749.592117769265
 30
0.0
 11
1464.831332706144
 21
1751.938634744868
 31
0.0
  0
LINE
  5
AC
330
2
100
AcDbEntity
  8
M Folds
100
AcDbLine
 10
1450.016007597217
 20
1749.592117769265
 30
0.0
 11
1463.381105460043
 21
1756.401975265358
 31
0.0
  0
LINE
  5
AD
330
2
100
AcDbEntity
  8
M Folds
100
AcDbLine
 10
1450.016007597217
 20
1749.592117769265
 30
0.0
 11
1460.622609315015
 21
1760.198719487063
 31
0.0
  0
LINE
  5
AE
330
2
100
AcDbEntity
  8
M Folds
100
AcDbLine
 10
1450.016007597217
 20
1749.592117769265
 30
0.0
 11
1456.82586509331
 21
1762.957215632091
 31
0.0
  0
LINE
  5
AF
330
2
100
AcDbEntity
  8
M Folds
100
AcDbLine
 10
1450.016007597217
 20
1749.592117769265
 30
0.0
 11
1452.36252457282
 21
1764.407442878192
 31
0.0
  0
LINE
  5
B0
330
2
100
AcDbEntity
  8
M Folds
100
AcDbLine
 10
1450.016007597217
 20
1749.592117769265
 30
0.0
 11
1447.669490621614
 21
1764.407442878192
 31
0.0
  0
LINE
  5
B1
330
2
100
AcDbEntity
  8
M Folds
100
AcDbLine
 10
1450.016007597217
 20
1749.592117769265
 30
0.0
 11
1443.206150101124
 21
1762.95721563209
 31
0.0
  0
LINE
  5
B2
330
2
100
AcDbEntity
  8
M Folds
100
AcDbLine
 10
1450.016007597217
 20
1749.592117769265
 30
0.0
 11
1439.409405879419
 21
1760.198719487063
 31
0.0
  0
LINE
  5
B3
330
2
100
AcDbEntity
  8
M Folds
100
AcDbLine
 10
1450.016007597217
 20
1749.592117769265
 30
0.0
 11
1436.650909734391
 21
1756.401975265358
 31
0.0
  0
LINE
  5
B4
330
2
100
AcDbEntity
  8
M Folds
100
AcDbLine
 10
1450.016007597217
 20
1749.592117769265
 30
0.0
 11
1435.20068248829
 21
1751.938634744868
 31
0.0
  0
LINE
  5
B5
330
2
100
AcDbEntity
  8
M Folds
100
AcDbLine
 10
1450.016007597217
 20
1749.592117769265
 30
0.0
 11
1435.20068248829
 21
1747.245600793661
 31
0.0
  0
LINE
  5
B6
330
2
100
AcDbEntity
  8
M Folds
100
AcDbLine
 10
1450.016007597217
 20
1749.592117769265
 30
0.0
 11
1436.650909734392
 21
1742.782260273171
 31
0.0
  0
LINE
  5
B7
330
2
100
AcDbEntity
  8
M Folds
100
AcDbLine
 10
1450.016007597217
 20
1749.592117769265
 30
0.0
 11
1439.409405879419
 21
1738.985516051466
 31
0.0
  0
LINE
  5
B8
330
2
100
AcDbEntity
  8
M Folds
100
AcDbLine
 10
1450.016007597217
 20
1749.592117769265
 30
0.0
 11
1443.206150101124
 21
1736.227019906438
 31
0.0
  0
LINE
  5
B9
330
2
100
AcDbEntity
  8
M Folds
100
AcDbLine
 10
1450.016007597217
 20
1749.592117769265
 30
0.0
 11
1447.669490621614
 21
1734.776792660338
 31
0.0
  0
LINE
  5
BA
330
2
100
AcDbEntity
  8
M Folds
100
AcDbLine
 10
1450.016007597216
 20
1749.592117769264
 30
0.0
 11
1452.362524572819
 21
1734.776792660338
 31
0.0
  0
LINE
  5
BB
330
2
100
AcDbEntity
  8
M Folds
100
AcDbLine
 10
1450.016007597216
 20
1749.592117769264
 30
0.0
 11
1456.825865093309
 21
1736.227019906438
 31
0.0
  0
LINE
  5
BC
330
2
100
AcDbEntity
  8
M Folds
100
AcDbLine
 10
1450.016007597216
 20
1749.592117769264
 30
0.0
 11
1460.622609315015
 21
1738.985516051466
 31
0.0
  0
LINE
  5
BD
330
2
100
AcDbEntity
  8
M Folds
100
AcDbLine
 10
1450.016007597216
 20
1749.592117769264
 30
0.0
 11
1463.381105460042
 21
1742.782260273171
 31
0.0
  0
LINE
  5
BE
330
2
100
AcDbEntity
  8
M Folds
100
AcDbLine
 10
1450.016007597216
 20
1749.592117769264
 30
0.0
 11
1464.831332706144
 21
1747.24560079366
 31
0.0
  0
LINE
  5
BF
330
2
100
AcDbEntity
  8
V Folds
100
AcDbLine
 10
1502.191696370356
 20
1749.592117769262
 30
0.0
 11
1519.691696370356
 21
1749.592117769262
 31
0.0
  0
CIRCLE
  5
C0
330
2
100
AcDbEntity
  8
Cut
100
AcDbCircle
 10
1502.191696370356
 20
1749.592117769263
 30
0.0
 40
17.5
  0
LINE
  5
C1
330
2
100
AcDbEntity
  8
M Folds
100
AcDbLine
 10
1502.191696370364
 20
1749.592117769265
 30
0.0
 11
1519.476242330779
 21
1752.329720907468
 31
0.0
  0
LINE
  5
C2
330
2
100
AcDbEntity
  8
V Folds
100
AcDbLine
 10
1502.191696370357
 20
1749.592117769261
 30
0.0
 11
1518.835185405523
 21
1754.999915170822
 31
0.0
  0
LINE
  5
C3
330
2
100
AcDbEntity
  8
M Folds
100
AcDbLine
 10
1502.191696370364
 20
1749.592117769265
 30
0.0
 11
1517.78431054366
 21
1757.536951514707
 31
0.0
  0
LINE
  5
C4
330
2
100
AcDbEntity
  8
V Folds
100
AcDbLine
 10
1502.191696370362
 20
1749.592117769251
 30
0.0
 11
1516.349493771923
 21
1759.878359684369
 31
0.0
  0
LINE
  5
C5
330
2
100
AcDbEntity
  8
M Folds
100
AcDbLine
 10
1502.191696370367
 20
1749.592117769258
 30
0.0
 11
1514.566065041132
 21
1761.966486440022
 31
0.0
  0
LINE
  5
C6
330
2
100
AcDbEntity
  8
V Folds
100
AcDbLine
 10
1502.191696370364
 20
1749.592117769251
 30
0.0
 11
1512.477938285483
 21
1763.749915170812
 31
0.0
  0
LINE
  5
C7
330
2
100
AcDbEntity
  8
M Folds
100
AcDbLine
 10
1502.191696370367
 20
1749.592117769258
 30
0.0
 11
1510.136530115809
 21
1765.184731942554
 31
0.0
  0
LINE
  5
C8
330
2
100
AcDbEntity
  8
V Folds
100
AcDbLine
 10
1502.191696370398
 20
1749.592117769226
 30
0.0
 11
1507.59949377196
 21
1766.23560680439
 31
0.0
  0
LINE
  5
C9
330
2
100
AcDbEntity
  8
M Folds
100
AcDbLine
 10
1502.191696370398
 20
1749.592117769233
 30
0.0
 11
1504.929299508603
 21
1766.876663729648
 31
0.0
  0
LINE
  5
CA
330
2
100
AcDbEntity
  8
V Folds
100
AcDbLine
 10
1502.1916963707
 20
1749.592117769356
 30
0.0
 11
1502.1916963707
 21
1767.092117769356
 31
0.0
  0
LINE
  5
CB
330
2
100
AcDbEntity
  8
M Folds
100
AcDbLine
 10
1502.191696370698
 20
1749.592117769364
 30
0.0
 11
1499.454093232494
 21
1766.876663729779
 31
0.0
  0
LINE
  5
CC
330
2
100
AcDbEntity
  8
V Folds
100
AcDbLine
 10
1502.191696370702
 20
1749.592117769358
 30
0.0
 11
1496.783898969141
 21
1766.235606804523
 31
0.0
  0
LINE
  5
CD
330
2
100
AcDbEntity
  8
M Folds
100
AcDbLine
 10
1502.191696370698
 20
1749.592117769364
 30
0.0
 11
1494.246862625256
 21
1765.184731942661
 31
0.0
  0
LINE
  5
CE
330
2
100
AcDbEntity
  8
V Folds
100
AcDbLine
 10
1502.191696370711
 20
1749.592117769363
 30
0.0
 11
1491.905454455593
 21
1763.749915170924
 31
0.0
  0
LINE
  5
CF
330
2
100
AcDbEntity
  8
M Folds
100
AcDbLine
 10
1502.191696370705
 20
1749.592117769368
 30
0.0
 11
1489.817327699941
 21
1761.966486440132
 31
0.0
  0
LINE
  5
D0
330
2
100
AcDbEntity
  8
V Folds
100
AcDbLine
 10
1502.191696370712
 20
1749.592117769365
 30
0.0
 11
1488.033898969151
 21
1759.878359684483
 31
0.0
  0
LINE
  5
D1
330
2
100
AcDbEntity
  8
M Folds
100
AcDbLine
 10
1502.191696370705
 20
1749.592117769368
 30
0.0
 11
1486.599082197409
 21
1757.53695151481
 31
0.0
  0
LINE
  5
D2
330
2
100
AcDbEntity
  8
V Folds
100
AcDbLine
 10
1502.191696370737
 20
1749.592117769398
 30
0.0
 11
1485.548207335573
 21
1754.99991517096
 31
0.0
  0
LINE
  5
D3
330
2
100
AcDbEntity
  8
M Folds
100
AcDbLine
 10
1502.191696370729
 20
1749.592117769399
 30
0.0
 11
1484.907150410315
 21
1752.329720907604
 31
0.0
  0
LINE
  5
D4
330
2
100
AcDbEntity
  8
V Folds
100
AcDbLine
 10
1502.191696371044
 20
1749.59211777302
 30
0.0
 11
1484.691696371045
 21
1749.59211777302
 31
0.0
  0
LINE
  5
D5
330
2
100
AcDbEntity
  8
M Folds
100
AcDbLine
 10
1502.191696371037
 20
1749.592117773017
 30
0.0
 11
1484.907150410622
 21
1746.854514634814
 31
0.0
  0
LINE
  5
D6
330
2
100
AcDbEntity
  8
V Folds
100
AcDbLine
 10
1502.191696371043
 20
1749.592117773022
 30
0.0
 11
1485.548207335878
 21
1744.184320371461
 31
0.0
  0
LINE
  5
D7
330
2
100
AcDbEntity
  8
M Folds
100
AcDbLine
 10
1502.191696371037
 20
1749.592117773017
 30
0.0
 11
1486.59908219774
 21
1741.647284027576
 31
0.0
  0
LINE
  5
D8
330
2
100
AcDbEntity
  8
V Folds
100
AcDbLine
 10
1502.191696371038
 20
1749.592117773031
 30
0.0
 11
1488.033898969477
 21
1739.305875857913
 31
0.0
  0
LINE
  5
D9
330
2
100
AcDbEntity
  8
M Folds
100
AcDbLine
 10
1502.191696371034
 20
1749.592117773025
 30
0.0
 11
1489.817327700269
 21
1737.217749102261
 31
0.0
  0
LINE
  5
DA
330
2
100
AcDbEntity
  8
V Folds
100
AcDbLine
 10
1502.191696371037
 20
1749.592117773032
 30
0.0
 11
1491.905454455918
 21
1735.43432037147
 31
0.0
  0
LINE
  5
DB
330
2
100
AcDbEntity
  8
M Folds
100
AcDbLine
 10
1502.191696371034
 20
1749.592117773025
 30
0.0
 11
1494.246862625591
 21
1733.999503599729
 31
0.0
  0
LINE
  5
DC
330
2
100
AcDbEntity
  8
V Folds
100
AcDbLine
 10
1502.191696371003
 20
1749.592117773056
 30
0.0
 11
1496.783898969441
 21
1732.948628737893
 31
0.0
  0
LINE
  5
DD
330
2
100
AcDbEntity
  8
M Folds
100
AcDbLine
 10
1502.191696371002
 20
1749.592117773049
 30
0.0
 11
1499.454093232797
 21
1732.307571812634
 31
0.0
  0
LINE
  5
DE
330
2
100
AcDbEntity
  8
V Folds
100
AcDbLine
 10
1502.1916963707
 20
1749.592117772926
 30
0.0
 11
1502.1916963707
 21
1732.092117772926
 31
0.0
  0
LINE
  5
DF
330
2
100
AcDbEntity
  8
M Folds
100
AcDbLine
 10
1502.191696370702
 20
1749.592117772918
 30
0.0
 11
1504.929299508906
 21
1732.307571812503
 31
0.0
  0
LINE
  5
E0
330
2
100
AcDbEntity
  8
V Folds
100
AcDbLine
 10
1502.191696370698
 20
1749.592117772925
 30
0.0
 11
1507.59949377226
 21
1732.948628737759
 31
0.0
  0
LINE
  5
E1
330
2
100
AcDbEntity
  8
M Folds
100
AcDbLine
 10
1502.191696370702
 20
1749.592117772918
 30
0.0
 11
1510.136530116144
 21
1733.999503599622
 31
0.0
  0
LINE
  5
E2
330
2
100
AcDbEntity
  8
V Folds
100
AcDbLine
 10
1502.191696370689
 20
1749.59211777292
 30
0.0
 11
1512.477938285807
 21
1735.434320371358
 31
0.0
  0
LINE
  5
E3
330
2
100
AcDbEntity
  8
M Folds
100
AcDbLine
 10
1502.191696370696
 20
1749.592117772915
 30
0.0
 11
1514.56606504146
 21
1737.21774910215
 31
0.0
  0
LINE
  5
E4
330
2
100
AcDbEntity
  8
V Folds
100
AcDbLine
 10
1502.191696370688
 20
1749.592117772918
 30
0.0
 11
1516.34949377225
 21
1739.305875857799
 31
0.0
  0
LINE
  5
E5
330
2
100
AcDbEntity
  8
M Folds
100
AcDbLine
 10
1502.191696370696
 20
1749.592117772915
 30
0.0
 11
1517.784310543992
 21
1741.647284027473
 31
0.0
  0
LINE
  5
E6
330
2
100
AcDbEntity
  8
V Folds
100
AcDbLine
 10
1502.191696370664
 20
1749.592117772884
 30
0.0
 11
1518.835185405828
 21
1744.184320371322
 31
0.0
  0
LINE
  5
E7
330
2
100
AcDbEntity
  8
M Folds
100
AcDbLine
 10
1502.191696370671
 20
1749.592117772884
 30
0.0
 11
1519.476242331086
 21
1746.854514634678
 31
0.0
  0
CIRCLE
  5
E8
330
2
100
AcDbEntity
  8
Cut
100
AcDbCircle
 10
1464.471308936346
 20
1750.729774657267
 30
0.0
 40
0.2
  0
CIRCLE
  5
E9
330
2
100
AcDbEntity
  8
Cut
100
AcDbCircle
 10
1448.878350709257
 20
1764.047419108408
 30
0.0
 40
0.2
  0
CIRCLE
  5
EA
330
2
100
AcDbEntity
  8
Cut
100
AcDbCircle
 10
1435.560706258148
 20
1748.454460881228
 30
0.0
 40
0.2
  0
CIRCLE
  5
EB
330
2
100
AcDbEntity
  8
Cut
100
AcDbCircle
 10
1451.153664485212
 20
1735.136816430058
 30
0.0
 40
0.2
  0
CIRCLE
  5
EC
330
2
100
AcDbEntity
  8
Cut
100
AcDbCircle
 10
1519.139291044766
 20
1750.925922395433
 30
0.0
 40
0.2
  0
CIRCLE
  5
ED
330
2
100
AcDbEntity
  8
Cut
100
AcDbCircle
 10
1500.857891771661
 20
1766.539712423712
 30
0.0
 40
0.2
  0
CIRCLE
  5
EE
330
2
100
AcDbEntity
  8
Cut
100
AcDbCircle
 10
1485.244101743382
 20
1748.258313150607
 30
0.0
 40
0.2
  0
CIRCLE
  5
EF
330
2
100
AcDbEntity
  8
Cut
100
AcDbCircle
 10
1503.525501016487
 20
1732.644523122328
 30
0.0
 40
0.2
  0
CIRCLE
  5
F0
330
2
100
AcDbEntity
  8
Cut
100
AcDbCircle
 10
1400.77326919896
 20
1737.629109764687
 30
0.0
 40
0.2
  0
CIRCLE
  5
F1
330
2
100
AcDbEntity
  8
Cut
100
AcDbCircle
 10
1387.868752045666
 20
1748.650608620552
 30
0.0
 40
0.2
  0
CIRCLE
  5
F2
330
2
100
AcDbEntity
  8
Cut
100
AcDbCircle
 10
1398.89025090153
 20
1761.55512577384
 30
0.0
 40
0.2
  0
CIRCLE
  5
F3
330
2
100
AcDbEntity
  8
Cut
100
AcDbCircle
 10
1411.794768054824
 20
1750.533626917975
 30
0.0
 40
0.2
  0
POLYLINE
  5
F4
330
2
100
AcDbEntity
  8
M Folds
370
     0
100
AcDb2dPolyline
 66
     1
 10
0.0
 20
0.0
 30
0.0
  0
VERTEX
  5
F5
330
F4
100
AcDbEntity
  8
M Folds
370
     0
100
AcDbVertex
100
AcDb2dVertex
 10
1399.433472636895
 20
1697.026802665481
 30
0.0
  0
VERTEX
  5
F6
330
F4
100
AcDbEntity
  8
M Folds
370
     0
100
AcDbVertex
100
AcDb2dVertex
 10
1411.885906363042
 20
1695.937355881135
 30
0.0
  0
SEQEND
  5
F7
330
F4
100
AcDbEntity
  8
M Folds
370
     0
  0
POLYLINE
  5
F8
330
2
100
AcDbEntity
  8
M Folds
370
     0
100
AcDb2dPolyline
 66
     1
 10
0.0
 20
0.0
 30
0.0
  0
VERTEX
  5
F9
330
F8
100
AcDbEntity
  8
M Folds
370
     0
100
AcDbVertex
100
AcDb2dVertex
 10
1399.433472636895
 20
1697.026802665481
 30
0.0
  0
VERTEX
  5
FA
330
F8
100
AcDbEntity
  8
M Folds
370
     0
100
AcDbVertex
100
AcDb2dVertex
 10
1411.885906363042
 20
1698.116249449826
 30
0.0
  0
SEQEND
  5
FB
330
F8
100
AcDbEntity
  8
M Folds
370
     0
  0
POLYLINE
  5
FC
330
2
100
AcDbEntity
  8
V Folds
370
     0
100
AcDb2dPolyline
 66
     1
 10
0.0
 20
0.0
 30
0.0
  0
VERTEX
  5
FD
330
FC
100
AcDbEntity
  8
V Folds
370
     0
100
AcDbVertex
100
AcDb2dVertex
 10
1399.433472636895
 20
1697.026802665481
 30
0.0
  0
VERTEX
  5
FE
330
FC
100
AcDbEntity
  8
V Folds
370
     0
100
AcDbVertex
100
AcDb2dVertex
 10
1411.613098446711
 20
1699.838690844778
 30
0.0
  0
SEQEND
  5
FF
330
FC
100
AcDbEntity
  8
V Folds
370
     0
  0
POLYLINE
  5
100
330
2
100
AcDbEntity
  8
V Folds
370
     0
100
AcDb2dPolyline
 66
     1
 10
0.0
 20
0.0
 30
0.0
  0
VERTEX
  5
101
330
100
100
AcDbEntity
  8
V Folds
370
     0
100
AcDbVertex
100
AcDb2dVertex
 10
1399.433472636895
 20
1697.026802665481
 30
0.0
  0
VERTEX
  5
102
330
100
100
AcDbEntity
  8
V Folds
370
     0
100
AcDbVertex
100
AcDb2dVertex
 10
1410.939783305051
 20
1701.910941771596
 30
0.0
  0
SEQEND
  5
103
330
100
100
AcDbEntity
  8
V Folds
370
     0
  0
CIRCLE
  5
104
330
2
100
AcDbEntity
  8
Cut
100
AcDbCircle
 10
1399.433472636895
 20
1697.026802665481
 30
0.0
 40
12.5
  0
POLYLINE
  5
105
330
2
100
AcDbEntity
  8
M Folds
370
     0
100
AcDb2dPolyline
 66
     1
 10
0.0
 20
0.0
 30
0.0
  0
VERTEX
  5
106
330
105
100
AcDbEntity
  8
M Folds
370
     0
100
AcDbVertex
100
AcDb2dVertex
 10
1399.433472636895
 20
1697.026802665481
 30
0.0
  0
VERTEX
  5
107
330
105
100
AcDbEntity
  8
M Folds
370
     0
100
AcDbVertex
100
AcDb2dVertex
 10
1410.148063895672
 20
1703.464778601857
 30
0.0
  0
SEQEND
  5
108
330
105
100
AcDbEntity
  8
M Folds
370
     0
  0
POLYLINE
  5
109
330
2
100
AcDbEntity
  8
M Folds
370
     0
100
AcDb2dPolyline
 66
     1
 10
0.0
 20
0.0
 30
0.0
  0
VERTEX
  5
10A
330
109
100
AcDbEntity
  8
M Folds
370
     0
100
AcDbVertex
100
AcDb2dVertex
 10
1399.433472636895
 20
1697.026802665481
 30
0.0
  0
VERTEX
  5
10B
330
109
100
AcDbEntity
  8
M Folds
370
     0
100
AcDbVertex
100
AcDb2dVertex
 10
1408.867342389681
 20
1705.227540527862
 30
0.0
  0
SEQEND
  5
10C
330
109
100
AcDbEntity
  8
M Folds
370
     0
  0
POLYLINE
  5
10D
330
2
100
AcDbEntity
  8
V Folds
370
     0
100
AcDb2dPolyline
 66
     1
 10
0.0
 20
0.0
 30
0.0
  0
VERTEX
  5
10E
330
10D
100
AcDbEntity
  8
V Folds
370
     0
100
AcDbVertex
100
AcDb2dVertex
 10
1399.433472636895
 20
1697.026802665481
 30
0.0
  0
VERTEX
  5
10F
330
10D
100
AcDbEntity
  8
V Folds
370
     0
100
AcDbVertex
100
AcDb2dVertex
 10
1407.634210499278
 20
1706.460672418265
 30
0.0
  0
SEQEND
  5
110
330
10D
100
AcDbEntity
  8
V Folds
370
     0
  0
POLYLINE
  5
111
330
2
100
AcDbEntity
  8
V Folds
370
     0
100
AcDb2dPolyline
 66
     1
 10
0.0
 20
0.0
 30
0.0
  0
VERTEX
  5
112
330
111
100
AcDbEntity
  8
V Folds
370
     0
100
AcDbVertex
100
AcDb2dVertex
 10
1399.433472636895
 20
1697.026802665481
 30
0.0
  0
VERTEX
  5
113
330
111
100
AcDbEntity
  8
V Folds
370
     0
100
AcDbVertex
100
AcDb2dVertex
 10
1405.871448573272
 20
1707.741393924257
 30
0.0
  0
SEQEND
  5
114
330
111
100
AcDbEntity
  8
V Folds
370
     0
  0
POLYLINE
  5
115
330
2
100
AcDbEntity
  8
M Folds
370
     0
100
AcDb2dPolyline
 66
     1
 10
0.0
 20
0.0
 30
0.0
  0
VERTEX
  5
116
330
115
100
AcDbEntity
  8
M Folds
370
     0
100
AcDbVertex
100
AcDb2dVertex
 10
1399.433472636895
 20
1697.026802665481
 30
0.0
  0
VERTEX
  5
117
330
115
100
AcDbEntity
  8
M Folds
370
     0
100
AcDbVertex
100
AcDb2dVertex
 10
1404.317611743012
 20
1708.533113333636
 30
0.0
  0
SEQEND
  5
118
330
115
100
AcDbEntity
  8
M Folds
370
     0
  0
POLYLINE
  5
119
330
2
100
AcDbEntity
  8
M Folds
370
     0
100
AcDb2dPolyline
 66
     1
 10
0.0
 20
0.0
 30
0.0
  0
VERTEX
  5
11A
330
119
100
AcDbEntity
  8
M Folds
370
     0
100
AcDbVertex
100
AcDb2dVertex
 10
1399.433472636895
 20
1697.026802665481
 30
0.0
  0
VERTEX
  5
11B
330
119
100
AcDbEntity
  8
M Folds
370
     0
100
AcDbVertex
100
AcDb2dVertex
 10
1402.245360816194
 20
1709.206428475297
 30
0.0
  0
SEQEND
  5
11C
330
119
100
AcDbEntity
  8
M Folds
370
     0
  0
POLYLINE
  5
11D
330
2
100
AcDbEntity
  8
V Folds
370
     0
100
AcDb2dPolyline
 66
     1
 10
0.0
 20
0.0
 30
0.0
  0
VERTEX
  5
11E
330
11D
100
AcDbEntity
  8
V Folds
370
     0
100
AcDbVertex
100
AcDb2dVertex
 10
1399.433472636895
 20
1697.026802665481
 30
0.0
  0
VERTEX
  5
11F
330
11D
100
AcDbEntity
  8
V Folds
370
     0
100
AcDbVertex
100
AcDb2dVertex
 10
1400.522919421242
 20
1709.479236391628
 30
0.0
  0
SEQEND
  5
120
330
11D
100
AcDbEntity
  8
V Folds
370
     0
  0
POLYLINE
  5
121
330
2
100
AcDbEntity
  8
V Folds
370
     0
100
AcDb2dPolyline
 66
     1
 10
0.0
 20
0.0
 30
0.0
  0
VERTEX
  5
122
330
121
100
AcDbEntity
  8
V Folds
370
     0
100
AcDbVertex
100
AcDb2dVertex
 10
1399.433472636895
 20
1697.026802665481
 30
0.0
  0
VERTEX
  5
123
330
121
100
AcDbEntity
  8
V Folds
370
     0
100
AcDbVertex
100
AcDb2dVertex
 10
1398.344025852551
 20
1709.479236391628
 30
0.0
  0
SEQEND
  5
124
330
121
100
AcDbEntity
  8
V Folds
370
     0
  0
POLYLINE
  5
125
330
2
100
AcDbEntity
  8
M Folds
370
     0
100
AcDb2dPolyline
 66
     1
 10
0.0
 20
0.0
 30
0.0
  0
VERTEX
  5
126
330
125
100
AcDbEntity
  8
M Folds
370
     0
100
AcDbVertex
100
AcDb2dVertex
 10
1399.433472636895
 20
1697.026802665481
 30
0.0
  0
VERTEX
  5
127
330
125
100
AcDbEntity
  8
M Folds
370
     0
100
AcDbVertex
100
AcDb2dVertex
 10
1396.621584457598
 20
1709.206428475297
 30
0.0
  0
SEQEND
  5
128
330
125
100
AcDbEntity
  8
M Folds
370
     0
  0
POLYLINE
  5
129
330
2
100
AcDbEntity
  8
M Folds
370
     0
100
AcDb2dPolyline
 66
     1
 10
0.0
 20
0.0
 30
0.0
  0
VERTEX
  5
12A
330
129
100
AcDbEntity
  8
M Folds
370
     0
100
AcDbVertex
100
AcDb2dVertex
 10
1399.433472636895
 20
1697.026802665481
 30
0.0
  0
VERTEX
  5
12B
330
129
100
AcDbEntity
  8
M Folds
370
     0
100
AcDbVertex
100
AcDb2dVertex
 10
1394.54933353078
 20
1708.533113333637
 30
0.0
  0
SEQEND
  5
12C
330
129
100
AcDbEntity
  8
M Folds
370
     0
  0
POLYLINE
  5
12D
330
2
100
AcDbEntity
  8
V Folds
370
     0
100
AcDb2dPolyline
 66
     1
 10
0.0
 20
0.0
 30
0.0
  0
VERTEX
  5
12E
330
12D
100
AcDbEntity
  8
V Folds
370
     0
100
AcDbVertex
100
AcDb2dVertex
 10
1399.433472636895
 20
1697.026802665481
 30
0.0
  0
VERTEX
  5
12F
330
12D
100
AcDbEntity
  8
V Folds
370
     0
100
AcDbVertex
100
AcDb2dVertex
 10
1392.995496700521
 20
1707.741393924258
 30
0.0
  0
SEQEND
  5
130
330
12D
100
AcDbEntity
  8
V Folds
370
     0
  0
POLYLINE
  5
131
330
2
100
AcDbEntity
  8
V Folds
370
     0
100
AcDb2dPolyline
 66
     1
 10
0.0
 20
0.0
 30
0.0
  0
VERTEX
  5
132
330
131
100
AcDbEntity
  8
V Folds
370
     0
100
AcDbVertex
100
AcDb2dVertex
 10
1399.433472636895
 20
1697.026802665481
 30
0.0
  0
VERTEX
  5
133
330
131
100
AcDbEntity
  8
V Folds
370
     0
100
AcDbVertex
100
AcDb2dVertex
 10
1391.232734774515
 20
1706.460672418266
 30
0.0
  0
SEQEND
  5
134
330
131
100
AcDbEntity
  8
V Folds
370
     0
  0
POLYLINE
  5
135
330
2
100
AcDbEntity
  8
M Folds
370
     0
100
AcDb2dPolyline
 66
     1
 10
0.0
 20
0.0
 30
0.0
  0
VERTEX
  5
136
330
135
100
AcDbEntity
  8
M Folds
370
     0
100
AcDbVertex
100
AcDb2dVertex
 10
1399.433472636895
 20
1697.026802665481
 30
0.0
  0
VERTEX
  5
137
330
135
100
AcDbEntity
  8
M Folds
370
     0
100
AcDbVertex
100
AcDb2dVertex
 10
1389.999602884111
 20
1705.227540527863
 30
0.0
  0
SEQEND
  5
138
330
135
100
AcDbEntity
  8
M Folds
370
     0
  0
POLYLINE
  5
139
330
2
100
AcDbEntity
  8
M Folds
370
     0
100
AcDb2dPolyline
 66
     1
 10
0.0
 20
0.0
 30
0.0
  0
VERTEX
  5
13A
330
139
100
AcDbEntity
  8
M Folds
370
     0
100
AcDbVertex
100
AcDb2dVertex
 10
1399.433472636895
 20
1697.026802665481
 30
0.0
  0
VERTEX
  5
13B
330
139
100
AcDbEntity
  8
M Folds
370
     0
100
AcDbVertex
100
AcDb2dVertex
 10
1388.718881378119
 20
1703.464778601858
 30
0.0
  0
SEQEND
  5
13C
330
139
100
AcDbEntity
  8
M Folds
370
     0
  0
POLYLINE
  5
13D
330
2
100
AcDbEntity
  8
V Folds
370
     0
100
AcDb2dPolyline
 66
     1
 10
0.0
 20
0.0
 30
0.0
  0
VERTEX
  5
13E
330
13D
100
AcDbEntity
  8
V Folds
370
     0
100
AcDbVertex
100
AcDb2dVertex
 10
1399.433472636895
 20
1697.026802665481
 30
0.0
  0
VERTEX
  5
13F
330
13D
100
AcDbEntity
  8
V Folds
370
     0
100
AcDbVertex
100
AcDb2dVertex
 10
1387.927161968741
 20
1701.910941771599
 30
0.0
  0
SEQEND
  5
140
330
13D
100
AcDbEntity
  8
V Folds
370
     0
  0
POLYLINE
  5
141
330
2
100
AcDbEntity
  8
V Folds
370
     0
100
AcDb2dPolyline
 66
     1
 10
0.0
 20
0.0
 30
0.0
  0
VERTEX
  5
142
330
141
100
AcDbEntity
  8
V Folds
370
     0
100
AcDbVertex
100
AcDb2dVertex
 10
1399.433472636895
 20
1697.026802665481
 30
0.0
  0
VERTEX
  5
143
330
141
100
AcDbEntity
  8
V Folds
370
     0
100
AcDbVertex
100
AcDb2dVertex
 10
1387.25384682708
 20
1699.83869084478
 30
0.0
  0
SEQEND
  5
144
330
141
100
AcDbEntity
  8
V Folds
370
     0
  0
POLYLINE
  5
145
330
2
100
AcDbEntity
  8
M Folds
370
     0
100
AcDb2dPolyline
 66
     1
 10
0.0
 20
0.0
 30
0.0
  0
VERTEX
  5
146
330
145
100
AcDbEntity
  8
M Folds
370
     0
100
AcDbVertex
100
AcDb2dVertex
 10
1399.433472636895
 20
1697.026802665481
 30
0.0
  0
VERTEX
  5
147
330
145
100
AcDbEntity
  8
M Folds
370
     0
100
AcDbVertex
100
AcDb2dVertex
 10
1386.981038910749
 20
1698.116249449828
 30
0.0
  0
SEQEND
  5
148
330
145
100
AcDbEntity
  8
M Folds
370
     0
  0
POLYLINE
  5
149
330
2
100
AcDbEntity
  8
M Folds
370
     0
100
AcDb2dPolyline
 66
     1
 10
0.0
 20
0.0
 30
0.0
  0
VERTEX
  5
14A
330
149
100
AcDbEntity
  8
M Folds
370
     0
100
AcDbVertex
100
AcDb2dVertex
 10
1399.433472636895
 20
1697.026802665481
 30
0.0
  0
VERTEX
  5
14B
330
149
100
AcDbEntity
  8
M Folds
370
     0
100
AcDbVertex
100
AcDb2dVertex
 10
1386.981038910749
 20
1695.937355881136
 30
0.0
  0
SEQEND
  5
14C
330
149
100
AcDbEntity
  8
M Folds
370
     0
  0
POLYLINE
  5
14D
330
2
100
AcDbEntity
  8
V Folds
370
     0
100
AcDb2dPolyline
 66
     1
 10
0.0
 20
0.0
 30
0.0
  0
VERTEX
  5
14E
330
14D
100
AcDbEntity
  8
V Folds
370
     0
100
AcDbVertex
100
AcDb2dVertex
 10
1399.433472636895
 20
1697.026802665481
 30
0.0
  0
VERTEX
  5
14F
330
14D
100
AcDbEntity
  8
V Folds
370
     0
100
AcDbVertex
100
AcDb2dVertex
 10
1387.25384682708
 20
1694.214914486184
 30
0.0
  0
SEQEND
  5
150
330
14D
100
AcDbEntity
  8
V Folds
370
     0
  0
POLYLINE
  5
151
330
2
100
AcDbEntity
  8
V Folds
370
     0
100
AcDb2dPolyline
 66
     1
 10
0.0
 20
0.0
 30
0.0
  0
VERTEX
  5
152
330
151
100
AcDbEntity
  8
V Folds
370
     0
100
AcDbVertex
100
AcDb2dVertex
 10
1399.433472636895
 20
1697.026802665481
 30
0.0
  0
VERTEX
  5
153
330
151
100
AcDbEntity
  8
V Folds
370
     0
100
AcDbVertex
100
AcDb2dVertex
 10
1387.92716196874
 20
1692.142663559366
 30
0.0
  0
SEQEND
  5
154
330
151
100
AcDbEntity
  8
V Folds
370
     0
  0
POLYLINE
  5
155
330
2
100
AcDbEntity
  8
M Folds
370
     0
100
AcDb2dPolyline
 66
     1
 10
0.0
 20
0.0
 30
0.0
  0
VERTEX
  5
156
330
155
100
AcDbEntity
  8
M Folds
370
     0
100
AcDbVertex
100
AcDb2dVertex
 10
1399.433472636895
 20
1697.026802665481
 30
0.0
  0
VERTEX
  5
157
330
155
100
AcDbEntity
  8
M Folds
370
     0
100
AcDbVertex
100
AcDb2dVertex
 10
1388.718881378119
 20
1690.588826729106
 30
0.0
  0
SEQEND
  5
158
330
155
100
AcDbEntity
  8
M Folds
370
     0
  0
POLYLINE
  5
159
330
2
100
AcDbEntity
  8
M Folds
370
     0
100
AcDb2dPolyline
 66
     1
 10
0.0
 20
0.0
 30
0.0
  0
VERTEX
  5
15A
330
159
100
AcDbEntity
  8
M Folds
370
     0
100
AcDbVertex
100
AcDb2dVertex
 10
1399.433472636895
 20
1697.026802665481
 30
0.0
  0
VERTEX
  5
15B
330
159
100
AcDbEntity
  8
M Folds
370
     0
100
AcDbVertex
100
AcDb2dVertex
 10
1389.99960288411
 20
1688.826064803101
 30
0.0
  0
SEQEND
  5
15C
330
159
100
AcDbEntity
  8
M Folds
370
     0
  0
POLYLINE
  5
15D
330
2
100
AcDbEntity
  8
V Folds
370
     0
100
AcDb2dPolyline
 66
     1
 10
0.0
 20
0.0
 30
0.0
  0
VERTEX
  5
15E
330
15D
100
AcDbEntity
  8
V Folds
370
     0
100
AcDbVertex
100
AcDb2dVertex
 10
1399.433472636895
 20
1697.026802665481
 30
0.0
  0
VERTEX
  5
15F
330
15D
100
AcDbEntity
  8
V Folds
370
     0
100
AcDbVertex
100
AcDb2dVertex
 10
1391.232734774513
 20
1687.592932912698
 30
0.0
  0
SEQEND
  5
160
330
15D
100
AcDbEntity
  8
V Folds
370
     0
  0
POLYLINE
  5
161
330
2
100
AcDbEntity
  8
V Folds
370
     0
100
AcDb2dPolyline
 66
     1
 10
0.0
 20
0.0
 30
0.0
  0
VERTEX
  5
162
330
161
100
AcDbEntity
  8
V Folds
370
     0
100
AcDbVertex
100
AcDb2dVertex
 10
1399.433472636895
 20
1697.026802665481
 30
0.0
  0
VERTEX
  5
163
330
161
100
AcDbEntity
  8
V Folds
370
     0
100
AcDbVertex
100
AcDb2dVertex
 10
1392.995496700519
 20
1686.312211406705
 30
0.0
  0
SEQEND
  5
164
330
161
100
AcDbEntity
  8
V Folds
370
     0
  0
POLYLINE
  5
165
330
2
100
AcDbEntity
  8
M Folds
370
     0
100
AcDb2dPolyline
 66
     1
 10
0.0
 20
0.0
 30
0.0
  0
VERTEX
  5
166
330
165
100
AcDbEntity
  8
M Folds
370
     0
100
AcDbVertex
100
AcDb2dVertex
 10
1399.433472636895
 20
1697.026802665481
 30
0.0
  0
VERTEX
  5
167
330
165
100
AcDbEntity
  8
M Folds
370
     0
100
AcDbVertex
100
AcDb2dVertex
 10
1394.549333530779
 20
1685.520491997326
 30
0.0
  0
SEQEND
  5
168
330
165
100
AcDbEntity
  8
M Folds
370
     0
  0
POLYLINE
  5
169
330
2
100
AcDbEntity
  8
M Folds
370
     0
100
AcDb2dPolyline
 66
     1
 10
0.0
 20
0.0
 30
0.0
  0
VERTEX
  5
16A
330
169
100
AcDbEntity
  8
M Folds
370
     0
100
AcDbVertex
100
AcDb2dVertex
 10
1399.433472636895
 20
1697.026802665481
 30
0.0
  0
VERTEX
  5
16B
330
169
100
AcDbEntity
  8
M Folds
370
     0
100
AcDbVertex
100
AcDb2dVertex
 10
1396.621584457597
 20
1684.847176855666
 30
0.0
  0
SEQEND
  5
16C
330
169
100
AcDbEntity
  8
M Folds
370
     0
  0
POLYLINE
  5
16D
330
2
100
AcDbEntity
  8
V Folds
370
     0
100
AcDb2dPolyline
 66
     1
 10
0.0
 20
0.0
 30
0.0
  0
VERTEX
  5
16E
330
16D
100
AcDbEntity
  8
V Folds
370
     0
100
AcDbVertex
100
AcDb2dVertex
 10
1399.433472636895
 20
1697.026802665481
 30
0.0
  0
VERTEX
  5
16F
330
16D
100
AcDbEntity
  8
V Folds
370
     0
100
AcDbVertex
100
AcDb2dVertex
 10
1398.344025852549
 20
1684.574368939335
 30
0.0
  0
SEQEND
  5
170
330
16D
100
AcDbEntity
  8
V Folds
370
     0
  0
POLYLINE
  5
171
330
2
100
AcDbEntity
  8
V Folds
370
     0
100
AcDb2dPolyline
 66
     1
 10
0.0
 20
0.0
 30
0.0
  0
VERTEX
  5
172
330
171
100
AcDbEntity
  8
V Folds
370
     0
100
AcDbVertex
100
AcDb2dVertex
 10
1399.433472636895
 20
1697.026802665481
 30
0.0
  0
VERTEX
  5
173
330
171
100
AcDbEntity
  8
V Folds
370
     0
100
AcDbVertex
100
AcDb2dVertex
 10
1400.52291942124
 20
1684.574368939334
 30
0.0
  0
SEQEND
  5
174
330
171
100
AcDbEntity
  8
V Folds
370
     0
  0
POLYLINE
  5
175
330
2
100
AcDbEntity
  8
M Folds
370
     0
100
AcDb2dPolyline
 66
     1
 10
0.0
 20
0.0
 30
0.0
  0
VERTEX
  5
176
330
175
100
AcDbEntity
  8
M Folds
370
     0
100
AcDbVertex
100
AcDb2dVertex
 10
1399.433472636895
 20
1697.026802665481
 30
0.0
  0
VERTEX
  5
177
330
175
100
AcDbEntity
  8
M Folds
370
     0
100
AcDbVertex
100
AcDb2dVertex
 10
1402.245360816193
 20
1684.847176855665
 30
0.0
  0
SEQEND
  5
178
330
175
100
AcDbEntity
  8
M Folds
370
     0
  0
POLYLINE
  5
179
330
2
100
AcDbEntity
  8
M Folds
370
     0
100
AcDb2dPolyline
 66
     1
 10
0.0
 20
0.0
 30
0.0
  0
VERTEX
  5
17A
330
179
100
AcDbEntity
  8
M Folds
370
     0
100
AcDbVertex
100
AcDb2dVertex
 10
1399.433472636895
 20
1697.026802665481
 30
0.0
  0
VERTEX
  5
17B
330
179
100
AcDbEntity
  8
M Folds
370
     0
100
AcDbVertex
100
AcDb2dVertex
 10
1404.317611743011
 20
1685.520491997326
 30
0.0
  0
SEQEND
  5
17C
330
179
100
AcDbEntity
  8
M Folds
370
     0
  0
POLYLINE
  5
17D
330
2
100
AcDbEntity
  8
V Folds
370
     0
100
AcDb2dPolyline
 66
     1
 10
0.0
 20
0.0
 30
0.0
  0
VERTEX
  5
17E
330
17D
100
AcDbEntity
  8
V Folds
370
     0
100
AcDbVertex
100
AcDb2dVertex
 10
1399.433472636895
 20
1697.026802665481
 30
0.0
  0
VERTEX
  5
17F
330
17D
100
AcDbEntity
  8
V Folds
370
     0
100
AcDbVertex
100
AcDb2dVertex
 10
1405.87144857327
 20
1686.312211406704
 30
0.0
  0
SEQEND
  5
180
330
17D
100
AcDbEntity
  8
V Folds
370
     0
  0
POLYLINE
  5
181
330
2
100
AcDbEntity
  8
V Folds
370
     0
100
AcDb2dPolyline
 66
     1
 10
0.0
 20
0.0
 30
0.0
  0
VERTEX
  5
182
330
181
100
AcDbEntity
  8
V Folds
370
     0
100
AcDbVertex
100
AcDb2dVertex
 10
1399.433472636895
 20
1697.026802665481
 30
0.0
  0
VERTEX
  5
183
330
181
100
AcDbEntity
  8
V Folds
370
     0
100
AcDbVertex
100
AcDb2dVertex
 10
1407.634210499276
 20
1687.592932912696
 30
0.0
  0
SEQEND
  5
184
330
181
100
AcDbEntity
  8
V Folds
370
     0
  0
POLYLINE
  5
185
330
2
100
AcDbEntity
  8
M Folds
370
     0
100
AcDb2dPolyline
 66
     1
 10
0.0
 20
0.0
 30
0.0
  0
VERTEX
  5
186
330
185
100
AcDbEntity
  8
M Folds
370
     0
100
AcDbVertex
100
AcDb2dVertex
 10
1399.433472636895
 20
1697.026802665481
 30
0.0
  0
VERTEX
  5
187
330
185
100
AcDbEntity
  8
M Folds
370
     0
100
AcDbVertex
100
AcDb2dVertex
 10
1408.86734238968
 20
1688.826064803099
 30
0.0
  0
SEQEND
  5
188
330
185
100
AcDbEntity
  8
M Folds
370
     0
  0
POLYLINE
  5
189
330
2
100
AcDbEntity
  8
M Folds
370
     0
100
AcDb2dPolyline
 66
     1
 10
0.0
 20
0.0
 30
0.0
  0
VERTEX
  5
18A
330
189
100
AcDbEntity
  8
M Folds
370
     0
100
AcDbVertex
100
AcDb2dVertex
 10
1399.433472636895
 20
1697.026802665481
 30
0.0
  0
VERTEX
  5
18B
330
189
100
AcDbEntity
  8
M Folds
370
     0
100
AcDbVertex
100
AcDb2dVertex
 10
1410.148063895672
 20
1690.588826729105
 30
0.0
  0
SEQEND
  5
18C
330
189
100
AcDbEntity
  8
M Folds
370
     0
  0
POLYLINE
  5
18D
330
2
100
AcDbEntity
  8
V Folds
370
     0
100
AcDb2dPolyline
 66
     1
 10
0.0
 20
0.0
 30
0.0
  0
VERTEX
  5
18E
330
18D
100
AcDbEntity
  8
V Folds
370
     0
100
AcDbVertex
100
AcDb2dVertex
 10
1399.433472636895
 20
1697.026802665481
 30
0.0
  0
VERTEX
  5
18F
330
18D
100
AcDbEntity
  8
V Folds
370
     0
100
AcDbVertex
100
AcDb2dVertex
 10
1410.939783305051
 20
1692.142663559365
 30
0.0
  0
SEQEND
  5
190
330
18D
100
AcDbEntity
  8
V Folds
370
     0
  0
POLYLINE
  5
191
330
2
100
AcDbEntity
  8
V Folds
370
     0
100
AcDb2dPolyline
 66
     1
 10
0.0
 20
0.0
 30
0.0
  0
VERTEX
  5
192
330
191
100
AcDbEntity
  8
V Folds
370
     0
100
AcDbVertex
100
AcDb2dVertex
 10
1399.433472636895
 20
1697.026802665481
 30
0.0
  0
VERTEX
  5
193
330
191
100
AcDbEntity
  8
V Folds
370
     0
100
AcDbVertex
100
AcDb2dVertex
 10
1411.613098446711
 20
1694.214914486182
 30
0.0
  0
SEQEND
  5
194
330
191
100
AcDbEntity
  8
V Folds
370
     0
  0
CIRCLE
  5
195
330
2
100
AcDbEntity
  8
Cut
100
AcDbCircle
 10
1399.433472636897
 20
1709.026802665481
 30
0.0
 40
0.2
  0
CIRCLE
  5
196
330
2
100
AcDbEntity
  8
Cut
100
AcDbCircle
 10
1399.433472636897
 20
1685.026802665481
 30
0.0
 40
0.2
  0
CIRCLE
  5
197
330
2
100
AcDbEntity
  8
Cut
100
AcDbCircle
 10
1387.433472636895
 20
1697.026802665483
 30
0.0
 40
0.2
  0
CIRCLE
  5
198
330
2
100
AcDbEntity
  8
Cut
100
AcDbCircle
 10
1411.433472636895
 20
1697.026802665482
 30
0.0
 40
0.2
  0
POLYLINE
  5
199
330
2
100
AcDbEntity
  8
M Folds
370
     0
100
AcDb2dPolyline
 66
     1
 10
0.0
 20
0.0
 30
0.0
  0
VERTEX
  5
19A
330
199
100
AcDbEntity
  8
M Folds
370
     0
100
AcDbVertex
100
AcDb2dVertex
 10
1448.821145357177
 20
1696.233842321936
 30
0.0
  0
VERTEX
  5
19B
330
199
100
AcDbEntity
  8
M Folds
370
     0
100
AcDbVertex
100
AcDb2dVertex
 10
1463.764065828553
 20
1694.92650618072
 30
0.0
  0
SEQEND
  5
19C
330
199
100
AcDbEntity
  8
M Folds
370
     0
  0
POLYLINE
  5
19D
330
2
100
AcDbEntity
  8
M Folds
370
     0
100
AcDb2dPolyline
 66
     1
 10
0.0
 20
0.0
 30
0.0
  0
VERTEX
  5
19E
330
19D
100
AcDbEntity
  8
M Folds
370
     0
100
AcDbVertex
100
AcDb2dVertex
 10
1448.821145357177
 20
1696.233842321936
 30
0.0
  0
VERTEX
  5
19F
330
19D
100
AcDbEntity
  8
M Folds
370
     0
100
AcDbVertex
100
AcDb2dVertex
 10
1463.764065828554
 20
1697.54117846315
 30
0.0
  0
SEQEND
  5
1A0
330
19D
100
AcDbEntity
  8
M Folds
370
     0
  0
POLYLINE
  5
1A1
330
2
100
AcDbEntity
  8
V Folds
370
     0
100
AcDb2dPolyline
 66
     1
 10
0.0
 20
0.0
 30
0.0
  0
VERTEX
  5
1A2
330
1A1
100
AcDbEntity
  8
V Folds
370
     0
100
AcDbVertex
100
AcDb2dVertex
 10
1448.821145357177
 20
1696.233842321936
 30
0.0
  0
VERTEX
  5
1A3
330
1A1
100
AcDbEntity
  8
V Folds
370
     0
100
AcDbVertex
100
AcDb2dVertex
 10
1463.436696328956
 20
1699.608108137093
 30
0.0
  0
SEQEND
  5
1A4
330
1A1
100
AcDbEntity
  8
V Folds
370
     0
  0
POLYLINE
  5
1A5
330
2
100
AcDbEntity
  8
V Folds
370
     0
100
AcDb2dPolyline
 66
     1
 10
0.0
 20
0.0
 30
0.0
  0
VERTEX
  5
1A6
330
1A5
100
AcDbEntity
  8
V Folds
370
     0
100
AcDbVertex
100
AcDb2dVertex
 10
1448.821145357177
 20
1696.233842321936
 30
0.0
  0
VERTEX
  5
1A7
330
1A5
100
AcDbEntity
  8
V Folds
370
     0
100
AcDbVertex
100
AcDb2dVertex
 10
1462.628718158964
 20
1702.094809249274
 30
0.0
  0
SEQEND
  5
1A8
330
1A5
100
AcDbEntity
  8
V Folds
370
     0
  0
CIRCLE
  5
1A9
330
2
100
AcDbEntity
  8
Cut
100
AcDbCircle
 10
1448.821145357177
 20
1696.233842321936
 30
0.0
 40
15.0
  0
POLYLINE
  5
1AA
330
2
100
AcDbEntity
  8
M Folds
370
     0
100
AcDb2dPolyline
 66
     1
 10
0.0
 20
0.0
 30
0.0
  0
VERTEX
  5
1AB
330
1AA
100
AcDbEntity
  8
M Folds
370
     0
100
AcDbVertex
100
AcDb2dVertex
 10
1448.821145357177
 20
1696.233842321936
 30
0.0
  0
VERTEX
  5
1AC
330
1AA
100
AcDbEntity
  8
M Folds
370
     0
100
AcDbVertex
100
AcDb2dVertex
 10
1461.678654867709
 20
1703.959413445586
 30
0.0
  0
SEQEND
  5
1AD
330
1AA
100
AcDbEntity
  8
M Folds
370
     0
  0
POLYLINE
  5
1AE
330
2
100
AcDbEntity
  8
M Folds
370
     0
100
AcDb2dPolyline
 66
     1
 10
0.0
 20
0.0
 30
0.0
  0
VERTEX
  5
1AF
330
1AE
100
AcDbEntity
  8
M Folds
370
     0
100
AcDbVertex
100
AcDb2dVertex
 10
1448.821145357177
 20
1696.233842321936
 30
0.0
  0
VERTEX
  5
1B0
330
1AE
100
AcDbEntity
  8
M Folds
370
     0
100
AcDbVertex
100
AcDb2dVertex
 10
1460.141789060519
 20
1706.074727756793
 30
0.0
  0
SEQEND
  5
1B1
330
1AE
100
AcDbEntity
  8
M Folds
370
     0
  0
POLYLINE
  5
1B2
330
2
100
AcDbEntity
  8
V Folds
370
     0
100
AcDb2dPolyline
 66
     1
 10
0.0
 20
0.0
 30
0.0
  0
VERTEX
  5
1B3
330
1B2
100
AcDbEntity
  8
V Folds
370
     0
100
AcDbVertex
100
AcDb2dVertex
 10
1448.821145357177
 20
1696.233842321936
 30
0.0
  0
VERTEX
  5
1B4
330
1B2
100
AcDbEntity
  8
V Folds
370
     0
100
AcDbVertex
100
AcDb2dVertex
 10
1458.662030792036
 20
1707.554486025277
 30
0.0
  0
SEQEND
  5
1B5
330
1B2
100
AcDbEntity
  8
V Folds
370
     0
  0
POLYLINE
  5
1B6
330
2
100
AcDbEntity
  8
V Folds
370
     0
100
AcDb2dPolyline
 66
     1
 10
0.0
 20
0.0
 30
0.0
  0
VERTEX
  5
1B7
330
1B6
100
AcDbEntity
  8
V Folds
370
     0
100
AcDbVertex
100
AcDb2dVertex
 10
1448.821145357177
 20
1696.233842321936
 30
0.0
  0
VERTEX
  5
1B8
330
1B6
100
AcDbEntity
  8
V Folds
370
     0
100
AcDbVertex
100
AcDb2dVertex
 10
1456.546716480829
 20
1709.091351832467
 30
0.0
  0
SEQEND
  5
1B9
330
1B6
100
AcDbEntity
  8
V Folds
370
     0
  0
POLYLINE
  5
1BA
330
2
100
AcDbEntity
  8
M Folds
370
     0
100
AcDb2dPolyline
 66
     1
 10
0.0
 20
0.0
 30
0.0
  0
VERTEX
  5
1BB
330
1BA
100
AcDbEntity
  8
M Folds
370
     0
100
AcDbVertex
100
AcDb2dVertex
 10
1448.821145357177
 20
1696.233842321936
 30
0.0
  0
VERTEX
  5
1BC
330
1BA
100
AcDbEntity
  8
M Folds
370
     0
100
AcDbVertex
100
AcDb2dVertex
 10
1454.682112284517
 20
1710.041415123723
 30
0.0
  0
SEQEND
  5
1BD
330
1BA
100
AcDbEntity
  8
M Folds
370
     0
  0
POLYLINE
  5
1BE
330
2
100
AcDbEntity
  8
M Folds
370
     0
100
AcDb2dPolyline
 66
     1
 10
0.0
 20
0.0
 30
0.0
  0
VERTEX
  5
1BF
330
1BE
100
AcDbEntity
  8
M Folds
370
     0
100
AcDbVertex
100
AcDb2dVertex
 10
1448.821145357177
 20
1696.233842321936
 30
0.0
  0
VERTEX
  5
1C0
330
1BE
100
AcDbEntity
  8
M Folds
370
     0
100
AcDbVertex
100
AcDb2dVertex
 10
1452.195411172336
 20
1710.849393293714
 30
0.0
  0
SEQEND
  5
1C1
330
1BE
100
AcDbEntity
  8
M Folds
370
     0
  0
POLYLINE
  5
1C2
330
2
100
AcDbEntity
  8
V Folds
370
     0
100
AcDb2dPolyline
 66
     1
 10
0.0
 20
0.0
 30
0.0
  0
VERTEX
  5
1C3
330
1C2
100
AcDbEntity
  8
V Folds
370
     0
100
AcDbVertex
100
AcDb2dVertex
 10
1448.821145357177
 20
1696.233842321936
 30
0.0
  0
VERTEX
  5
1C4
330
1C2
100
AcDbEntity
  8
V Folds
370
     0
100
AcDbVertex
100
AcDb2dVertex
 10
1450.128481498394
 20
1711.176762793312
 30
0.0
  0
SEQEND
  5
1C5
330
1C2
100
AcDbEntity
  8
V Folds
370
     0
  0
POLYLINE
  5
1C6
330
2
100
AcDbEntity
  8
V Folds
370
     0
100
AcDb2dPolyline
 66
     1
 10
0.0
 20
0.0
 30
0.0
  0
VERTEX
  5
1C7
330
1C6
100
AcDbEntity
  8
V Folds
370
     0
100
AcDbVertex
100
AcDb2dVertex
 10
1448.821145357177
 20
1696.233842321936
 30
0.0
  0
VERTEX
  5
1C8
330
1C6
100
AcDbEntity
  8
V Folds
370
     0
100
AcDbVertex
100
AcDb2dVertex
 10
1447.513809215964
 20
1711.176762793312
 30
0.0
  0
SEQEND
  5
1C9
330
1C6
100
AcDbEntity
  8
V Folds
370
     0
  0
POLYLINE
  5
1CA
330
2
100
AcDbEntity
  8
M Folds
370
     0
100
AcDb2dPolyline
 66
     1
 10
0.0
 20
0.0
 30
0.0
  0
VERTEX
  5
1CB
330
1CA
100
AcDbEntity
  8
M Folds
370
     0
100
AcDbVertex
100
AcDb2dVertex
 10
1448.821145357177
 20
1696.233842321936
 30
0.0
  0
VERTEX
  5
1CC
330
1CA
100
AcDbEntity
  8
M Folds
370
     0
100
AcDbVertex
100
AcDb2dVertex
 10
1445.44687954202
 20
1710.849393293715
 30
0.0
  0
SEQEND
  5
1CD
330
1CA
100
AcDbEntity
  8
M Folds
370
     0
  0
POLYLINE
  5
1CE
330
2
100
AcDbEntity
  8
M Folds
370
     0
100
AcDb2dPolyline
 66
     1
 10
0.0
 20
0.0
 30
0.0
  0
VERTEX
  5
1CF
330
1CE
100
AcDbEntity
  8
M Folds
370
     0
100
AcDbVertex
100
AcDb2dVertex
 10
1448.821145357177
 20
1696.233842321936
 30
0.0
  0
VERTEX
  5
1D0
330
1CE
100
AcDbEntity
  8
M Folds
370
     0
100
AcDbVertex
100
AcDb2dVertex
 10
1442.960178429839
 20
1710.041415123723
 30
0.0
  0
SEQEND
  5
1D1
330
1CE
100
AcDbEntity
  8
M Folds
370
     0
  0
POLYLINE
  5
1D2
330
2
100
AcDbEntity
  8
V Folds
370
     0
100
AcDb2dPolyline
 66
     1
 10
0.0
 20
0.0
 30
0.0
  0
VERTEX
  5
1D3
330
1D2
100
AcDbEntity
  8
V Folds
370
     0
100
AcDbVertex
100
AcDb2dVertex
 10
1448.821145357177
 20
1696.233842321936
 30
0.0
  0
VERTEX
  5
1D4
330
1D2
100
AcDbEntity
  8
V Folds
370
     0
100
AcDbVertex
100
AcDb2dVertex
 10
1441.095574233528
 20
1709.091351832469
 30
0.0
  0
SEQEND
  5
1D5
330
1D2
100
AcDbEntity
  8
V Folds
370
     0
  0
POLYLINE
  5
1D6
330
2
100
AcDbEntity
  8
V Folds
370
     0
100
AcDb2dPolyline
 66
     1
 10
0.0
 20
0.0
 30
0.0
  0
VERTEX
  5
1D7
330
1D6
100
AcDbEntity
  8
V Folds
370
     0
100
AcDbVertex
100
AcDb2dVertex
 10
1448.821145357177
 20
1696.233842321936
 30
0.0
  0
VERTEX
  5
1D8
330
1D6
100
AcDbEntity
  8
V Folds
370
     0
100
AcDbVertex
100
AcDb2dVertex
 10
1438.98025992232
 20
1707.554486025278
 30
0.0
  0
SEQEND
  5
1D9
330
1D6
100
AcDbEntity
  8
V Folds
370
     0
  0
POLYLINE
  5
1DA
330
2
100
AcDbEntity
  8
M Folds
370
     0
100
AcDb2dPolyline
 66
     1
 10
0.0
 20
0.0
 30
0.0
  0
VERTEX
  5
1DB
330
1DA
100
AcDbEntity
  8
M Folds
370
     0
100
AcDbVertex
100
AcDb2dVertex
 10
1448.821145357177
 20
1696.233842321936
 30
0.0
  0
VERTEX
  5
1DC
330
1DA
100
AcDbEntity
  8
M Folds
370
     0
100
AcDbVertex
100
AcDb2dVertex
 10
1437.500501653836
 20
1706.074727756794
 30
0.0
  0
SEQEND
  5
1DD
330
1DA
100
AcDbEntity
  8
M Folds
370
     0
  0
POLYLINE
  5
1DE
330
2
100
AcDbEntity
  8
M Folds
370
     0
100
AcDb2dPolyline
 66
     1
 10
0.0
 20
0.0
 30
0.0
  0
VERTEX
  5
1DF
330
1DE
100
AcDbEntity
  8
M Folds
370
     0
100
AcDbVertex
100
AcDb2dVertex
 10
1448.821145357177
 20
1696.233842321936
 30
0.0
  0
VERTEX
  5
1E0
330
1DE
100
AcDbEntity
  8
M Folds
370
     0
100
AcDbVertex
100
AcDb2dVertex
 10
1435.963635846646
 20
1703.959413445587
 30
0.0
  0
SEQEND
  5
1E1
330
1DE
100
AcDbEntity
  8
M Folds
370
     0
  0
POLYLINE
  5
1E2
330
2
100
AcDbEntity
  8
V Folds
370
     0
100
AcDb2dPolyline
 66
     1
 10
0.0
 20
0.0
 30
0.0
  0
VERTEX
  5
1E3
330
1E2
100
AcDbEntity
  8
V Folds
370
     0
100
AcDbVertex
100
AcDb2dVertex
 10
1448.821145357177
 20
1696.233842321936
 30
0.0
  0
VERTEX
  5
1E4
330
1E2
100
AcDbEntity
  8
V Folds
370
     0
100
AcDbVertex
100
AcDb2dVertex
 10
1435.013572555392
 20
1702.094809249277
 30
0.0
  0
SEQEND
  5
1E5
330
1E2
100
AcDbEntity
  8
V Folds
370
     0
  0
POLYLINE
  5
1E6
330
2
100
AcDbEntity
  8
V Folds
370
     0
100
AcDb2dPolyline
 66
     1
 10
0.0
 20
0.0
 30
0.0
  0
VERTEX
  5
1E7
330
1E6
100
AcDbEntity
  8
V Folds
370
     0
100
AcDbVertex
100
AcDb2dVertex
 10
1448.821145357177
 20
1696.233842321936
 30
0.0
  0
VERTEX
  5
1E8
330
1E6
100
AcDbEntity
  8
V Folds
370
     0
100
AcDbVertex
100
AcDb2dVertex
 10
1434.205594385399
 20
1699.608108137095
 30
0.0
  0
SEQEND
  5
1E9
330
1E6
100
AcDbEntity
  8
V Folds
370
     0
  0
POLYLINE
  5
1EA
330
2
100
AcDbEntity
  8
M Folds
370
     0
100
AcDb2dPolyline
 66
     1
 10
0.0
 20
0.0
 30
0.0
  0
VERTEX
  5
1EB
330
1EA
100
AcDbEntity
  8
M Folds
370
     0
100
AcDbVertex
100
AcDb2dVertex
 10
1448.821145357177
 20
1696.233842321936
 30
0.0
  0
VERTEX
  5
1EC
330
1EA
100
AcDbEntity
  8
M Folds
370
     0
100
AcDbVertex
100
AcDb2dVertex
 10
1433.878224885801
 20
1697.541178463152
 30
0.0
  0
SEQEND
  5
1ED
330
1EA
100
AcDbEntity
  8
M Folds
370
     0
  0
POLYLINE
  5
1EE
330
2
100
AcDbEntity
  8
M Folds
370
     0
100
AcDb2dPolyline
 66
     1
 10
0.0
 20
0.0
 30
0.0
  0
VERTEX
  5
1EF
330
1EE
100
AcDbEntity
  8
M Folds
370
     0
100
AcDbVertex
100
AcDb2dVertex
 10
1448.821145357177
 20
1696.233842321936
 30
0.0
  0
VERTEX
  5
1F0
330
1EE
100
AcDbEntity
  8
M Folds
370
     0
100
AcDbVertex
100
AcDb2dVertex
 10
1433.878224885801
 20
1694.926506180722
 30
0.0
  0
SEQEND
  5
1F1
330
1EE
100
AcDbEntity
  8
M Folds
370
     0
  0
POLYLINE
  5
1F2
330
2
100
AcDbEntity
  8
V Folds
370
     0
100
AcDb2dPolyline
 66
     1
 10
0.0
 20
0.0
 30
0.0
  0
VERTEX
  5
1F3
330
1F2
100
AcDbEntity
  8
V Folds
370
     0
100
AcDbVertex
100
AcDb2dVertex
 10
1448.821145357177
 20
1696.233842321936
 30
0.0
  0
VERTEX
  5
1F4
330
1F2
100
AcDbEntity
  8
V Folds
370
     0
100
AcDbVertex
100
AcDb2dVertex
 10
1434.205594385399
 20
1692.859576506779
 30
0.0
  0
SEQEND
  5
1F5
330
1F2
100
AcDbEntity
  8
V Folds
370
     0
  0
POLYLINE
  5
1F6
330
2
100
AcDbEntity
  8
V Folds
370
     0
100
AcDb2dPolyline
 66
     1
 10
0.0
 20
0.0
 30
0.0
  0
VERTEX
  5
1F7
330
1F6
100
AcDbEntity
  8
V Folds
370
     0
100
AcDbVertex
100
AcDb2dVertex
 10
1448.821145357177
 20
1696.233842321936
 30
0.0
  0
VERTEX
  5
1F8
330
1F6
100
AcDbEntity
  8
V Folds
370
     0
100
AcDbVertex
100
AcDb2dVertex
 10
1435.01357255539
 20
1690.372875394598
 30
0.0
  0
SEQEND
  5
1F9
330
1F6
100
AcDbEntity
  8
V Folds
370
     0
  0
POLYLINE
  5
1FA
330
2
100
AcDbEntity
  8
M Folds
370
     0
100
AcDb2dPolyline
 66
     1
 10
0.0
 20
0.0
 30
0.0
  0
VERTEX
  5
1FB
330
1FA
100
AcDbEntity
  8
M Folds
370
     0
100
AcDbVertex
100
AcDb2dVertex
 10
1448.821145357177
 20
1696.233842321936
 30
0.0
  0
VERTEX
  5
1FC
330
1FA
100
AcDbEntity
  8
M Folds
370
     0
100
AcDbVertex
100
AcDb2dVertex
 10
1435.963635846645
 20
1688.508271198286
 30
0.0
  0
SEQEND
  5
1FD
330
1FA
100
AcDbEntity
  8
M Folds
370
     0
  0
POLYLINE
  5
1FE
330
2
100
AcDbEntity
  8
M Folds
370
     0
100
AcDb2dPolyline
 66
     1
 10
0.0
 20
0.0
 30
0.0
  0
VERTEX
  5
1FF
330
1FE
100
AcDbEntity
  8
M Folds
370
     0
100
AcDbVertex
100
AcDb2dVertex
 10
1448.821145357177
 20
1696.233842321936
 30
0.0
  0
VERTEX
  5
200
330
1FE
100
AcDbEntity
  8
M Folds
370
     0
100
AcDbVertex
100
AcDb2dVertex
 10
1437.500501653835
 20
1686.392956887079
 30
0.0
  0
SEQEND
  5
201
330
1FE
100
AcDbEntity
  8
M Folds
370
     0
  0
POLYLINE
  5
202
330
2
100
AcDbEntity
  8
V Folds
370
     0
100
AcDb2dPolyline
 66
     1
 10
0.0
 20
0.0
 30
0.0
  0
VERTEX
  5
203
330
202
100
AcDbEntity
  8
V Folds
370
     0
100
AcDbVertex
100
AcDb2dVertex
 10
1448.821145357177
 20
1696.233842321936
 30
0.0
  0
VERTEX
  5
204
330
202
100
AcDbEntity
  8
V Folds
370
     0
100
AcDbVertex
100
AcDb2dVertex
 10
1438.980259922319
 20
1684.913198618595
 30
0.0
  0
SEQEND
  5
205
330
202
100
AcDbEntity
  8
V Folds
370
     0
  0
POLYLINE
  5
206
330
2
100
AcDbEntity
  8
V Folds
370
     0
100
AcDb2dPolyline
 66
     1
 10
0.0
 20
0.0
 30
0.0
  0
VERTEX
  5
207
330
206
100
AcDbEntity
  8
V Folds
370
     0
100
AcDbVertex
100
AcDb2dVertex
 10
1448.821145357177
 20
1696.233842321936
 30
0.0
  0
VERTEX
  5
208
330
206
100
AcDbEntity
  8
V Folds
370
     0
100
AcDbVertex
100
AcDb2dVertex
 10
1441.095574233526
 20
1683.376332811405
 30
0.0
  0
SEQEND
  5
209
330
206
100
AcDbEntity
  8
V Folds
370
     0
  0
POLYLINE
  5
20A
330
2
100
AcDbEntity
  8
M Folds
370
     0
100
AcDb2dPolyline
 66
     1
 10
0.0
 20
0.0
 30
0.0
  0
VERTEX
  5
20B
330
20A
100
AcDbEntity
  8
M Folds
370
     0
100
AcDbVertex
100
AcDb2dVertex
 10
1448.821145357177
 20
1696.233842321936
 30
0.0
  0
VERTEX
  5
20C
330
20A
100
AcDbEntity
  8
M Folds
370
     0
100
AcDbVertex
100
AcDb2dVertex
 10
1442.960178429838
 20
1682.426269520149
 30
0.0
  0
SEQEND
  5
20D
330
20A
100
AcDbEntity
  8
M Folds
370
     0
  0
POLYLINE
  5
20E
330
2
100
AcDbEntity
  8
M Folds
370
     0
100
AcDb2dPolyline
 66
     1
 10
0.0
 20
0.0
 30
0.0
  0
VERTEX
  5
20F
330
20E
100
AcDbEntity
  8
M Folds
370
     0
100
AcDbVertex
100
AcDb2dVertex
 10
1448.821145357177
 20
1696.233842321936
 30
0.0
  0
VERTEX
  5
210
330
20E
100
AcDbEntity
  8
M Folds
370
     0
100
AcDbVertex
100
AcDb2dVertex
 10
1445.446879542019
 20
1681.618291350158
 30
0.0
  0
SEQEND
  5
211
330
20E
100
AcDbEntity
  8
M Folds
370
     0
  0
POLYLINE
  5
212
330
2
100
AcDbEntity
  8
V Folds
370
     0
100
AcDb2dPolyline
 66
     1
 10
0.0
 20
0.0
 30
0.0
  0
VERTEX
  5
213
330
212
100
AcDbEntity
  8
V Folds
370
     0
100
AcDbVertex
100
AcDb2dVertex
 10
1448.821145357177
 20
1696.233842321936
 30
0.0
  0
VERTEX
  5
214
330
212
100
AcDbEntity
  8
V Folds
370
     0
100
AcDbVertex
100
AcDb2dVertex
 10
1447.513809215961
 20
1681.29092185056
 30
0.0
  0
SEQEND
  5
215
330
212
100
AcDbEntity
  8
V Folds
370
     0
  0
POLYLINE
  5
216
330
2
100
AcDbEntity
  8
V Folds
370
     0
100
AcDb2dPolyline
 66
     1
 10
0.0
 20
0.0
 30
0.0
  0
VERTEX
  5
217
330
216
100
AcDbEntity
  8
V Folds
370
     0
100
AcDbVertex
100
AcDb2dVertex
 10
1448.821145357177
 20
1696.233842321936
 30
0.0
  0
VERTEX
  5
218
330
216
100
AcDbEntity
  8
V Folds
370
     0
100
AcDbVertex
100
AcDb2dVertex
 10
1450.128481498391
 20
1681.29092185056
 30
0.0
  0
SEQEND
  5
219
330
216
100
AcDbEntity
  8
V Folds
370
     0
  0
POLYLINE
  5
21A
330
2
100
AcDbEntity
  8
M Folds
370
     0
100
AcDb2dPolyline
 66
     1
 10
0.0
 20
0.0
 30
0.0
  0
VERTEX
  5
21B
330
21A
100
AcDbEntity
  8
M Folds
370
     0
100
AcDbVertex
100
AcDb2dVertex
 10
1448.821145357177
 20
1696.233842321936
 30
0.0
  0
VERTEX
  5
21C
330
21A
100
AcDbEntity
  8
M Folds
370
     0
100
AcDbVertex
100
AcDb2dVertex
 10
1452.195411172334
 20
1681.618291350157
 30
0.0
  0
SEQEND
  5
21D
330
21A
100
AcDbEntity
  8
M Folds
370
     0
  0
POLYLINE
  5
21E
330
2
100
AcDbEntity
  8
M Folds
370
     0
100
AcDb2dPolyline
 66
     1
 10
0.0
 20
0.0
 30
0.0
  0
VERTEX
  5
21F
330
21E
100
AcDbEntity
  8
M Folds
370
     0
100
AcDbVertex
100
AcDb2dVertex
 10
1448.821145357177
 20
1696.233842321936
 30
0.0
  0
VERTEX
  5
220
330
21E
100
AcDbEntity
  8
M Folds
370
     0
100
AcDbVertex
100
AcDb2dVertex
 10
1454.682112284516
 20
1682.426269520149
 30
0.0
  0
SEQEND
  5
221
330
21E
100
AcDbEntity
  8
M Folds
370
     0
  0
POLYLINE
  5
222
330
2
100
AcDbEntity
  8
V Folds
370
     0
100
AcDb2dPolyline
 66
     1
 10
0.0
 20
0.0
 30
0.0
  0
VERTEX
  5
223
330
222
100
AcDbEntity
  8
V Folds
370
     0
100
AcDbVertex
100
AcDb2dVertex
 10
1448.821145357177
 20
1696.233842321936
 30
0.0
  0
VERTEX
  5
224
330
222
100
AcDbEntity
  8
V Folds
370
     0
100
AcDbVertex
100
AcDb2dVertex
 10
1456.546716480827
 20
1683.376332811404
 30
0.0
  0
SEQEND
  5
225
330
222
100
AcDbEntity
  8
V Folds
370
     0
  0
POLYLINE
  5
226
330
2
100
AcDbEntity
  8
V Folds
370
     0
100
AcDb2dPolyline
 66
     1
 10
0.0
 20
0.0
 30
0.0
  0
VERTEX
  5
227
330
226
100
AcDbEntity
  8
V Folds
370
     0
100
AcDbVertex
100
AcDb2dVertex
 10
1448.821145357177
 20
1696.233842321936
 30
0.0
  0
VERTEX
  5
228
330
226
100
AcDbEntity
  8
V Folds
370
     0
100
AcDbVertex
100
AcDb2dVertex
 10
1458.662030792034
 20
1684.913198618594
 30
0.0
  0
SEQEND
  5
229
330
226
100
AcDbEntity
  8
V Folds
370
     0
  0
POLYLINE
  5
22A
330
2
100
AcDbEntity
  8
M Folds
370
     0
100
AcDb2dPolyline
 66
     1
 10
0.0
 20
0.0
 30
0.0
  0
VERTEX
  5
22B
330
22A
100
AcDbEntity
  8
M Folds
370
     0
100
AcDbVertex
100
AcDb2dVertex
 10
1448.821145357177
 20
1696.233842321936
 30
0.0
  0
VERTEX
  5
22C
330
22A
100
AcDbEntity
  8
M Folds
370
     0
100
AcDbVertex
100
AcDb2dVertex
 10
1460.141789060519
 20
1686.392956887078
 30
0.0
  0
SEQEND
  5
22D
330
22A
100
AcDbEntity
  8
M Folds
370
     0
  0
POLYLINE
  5
22E
330
2
100
AcDbEntity
  8
M Folds
370
     0
100
AcDb2dPolyline
 66
     1
 10
0.0
 20
0.0
 30
0.0
  0
VERTEX
  5
22F
330
22E
100
AcDbEntity
  8
M Folds
370
     0
100
AcDbVertex
100
AcDb2dVertex
 10
1448.821145357177
 20
1696.233842321936
 30
0.0
  0
VERTEX
  5
230
330
22E
100
AcDbEntity
  8
M Folds
370
     0
100
AcDbVertex
100
AcDb2dVertex
 10
1461.678654867709
 20
1688.508271198285
 30
0.0
  0
SEQEND
  5
231
330
22E
100
AcDbEntity
  8
M Folds
370
     0
  0
POLYLINE
  5
232
330
2
100
AcDbEntity
  8
V Folds
370
     0
100
AcDb2dPolyline
 66
     1
 10
0.0
 20
0.0
 30
0.0
  0
VERTEX
  5
233
330
232
100
AcDbEntity
  8
V Folds
370
     0
100
AcDbVertex
100
AcDb2dVertex
 10
1448.821145357177
 20
1696.233842321936
 30
0.0
  0
VERTEX
  5
234
330
232
100
AcDbEntity
  8
V Folds
370
     0
100
AcDbVertex
100
AcDb2dVertex
 10
1462.628718158964
 20
1690.372875394596
 30
0.0
  0
SEQEND
  5
235
330
232
100
AcDbEntity
  8
V Folds
370
     0
  0
POLYLINE
  5
236
330
2
100
AcDbEntity
  8
V Folds
370
     0
100
AcDb2dPolyline
 66
     1
 10
0.0
 20
0.0
 30
0.0
  0
VERTEX
  5
237
330
236
100
AcDbEntity
  8
V Folds
370
     0
100
AcDbVertex
100
AcDb2dVertex
 10
1448.821145357177
 20
1696.233842321936
 30
0.0
  0
VERTEX
  5
238
330
236
100
AcDbEntity
  8
V Folds
370
     0
100
AcDbVertex
100
AcDb2dVertex
 10
1463.436696328956
 20
1692.859576506777
 30
0.0
  0
SEQEND
  5
239
330
236
100
AcDbEntity
  8
V Folds
370
     0
  0
CIRCLE
  5
23A
330
2
100
AcDbEntity
  8
Cut
100
AcDbCircle
 10
1463.321145357177
 20
1696.233842321935
 30
0.0
 40
0.2
  0
CIRCLE
  5
23B
330
2
100
AcDbEntity
  8
Cut
100
AcDbCircle
 10
1434.321145357177
 20
1696.233842321935
 30
0.0
 40
0.2
  0
CIRCLE
  5
23C
330
2
100
AcDbEntity
  8
Cut
100
AcDbCircle
 10
1448.821145357167
 20
1710.733842321945
 30
0.0
 40
0.2
  0
CIRCLE
  5
23D
330
2
100
AcDbEntity
  8
Cut
100
AcDbCircle
 10
1448.821145357167
 20
1681.733842321946
 30
0.0
 40
0.2
  0
POLYLINE
  5
23E
330
2
100
AcDbEntity
  8
M Folds
370
     0
100
AcDb2dPolyline
 66
     1
 10
0.0
 20
0.0
 30
0.0
  0
VERTEX
  5
23F
330
23E
100
AcDbEntity
  8
M Folds
370
     0
100
AcDbVertex
100
AcDb2dVertex
 10
1502.841464621132
 20
1696.237409415478
 30
0.0
  0
VERTEX
  5
240
330
23E
100
AcDbEntity
  8
M Folds
370
     0
100
AcDbVertex
100
AcDb2dVertex
 10
1520.274871837737
 20
1694.712183917393
 30
0.0
  0
SEQEND
  5
241
330
23E
100
AcDbEntity
  8
M Folds
370
     0
  0
POLYLINE
  5
242
330
2
100
AcDbEntity
  8
M Folds
370
     0
100
AcDb2dPolyline
 66
     1
 10
0.0
 20
0.0
 30
0.0
  0
VERTEX
  5
243
330
242
100
AcDbEntity
  8
M Folds
370
     0
100
AcDbVertex
100
AcDb2dVertex
 10
1502.841464621132
 20
1696.237409415478
 30
0.0
  0
VERTEX
  5
244
330
242
100
AcDbEntity
  8
M Folds
370
     0
100
AcDbVertex
100
AcDb2dVertex
 10
1520.274871837737
 20
1697.762634913561
 30
0.0
  0
SEQEND
  5
245
330
242
100
AcDbEntity
  8
M Folds
370
     0
  0
POLYLINE
  5
246
330
2
100
AcDbEntity
  8
V Folds
370
     0
100
AcDb2dPolyline
 66
     1
 10
0.0
 20
0.0
 30
0.0
  0
VERTEX
  5
247
330
246
100
AcDbEntity
  8
V Folds
370
     0
100
AcDbVertex
100
AcDb2dVertex
 10
1502.841464621132
 20
1696.237409415478
 30
0.0
  0
VERTEX
  5
248
330
246
100
AcDbEntity
  8
V Folds
370
     0
100
AcDbVertex
100
AcDb2dVertex
 10
1519.892940754874
 20
1700.174052866494
 30
0.0
  0
SEQEND
  5
249
330
246
100
AcDbEntity
  8
V Folds
370
     0
  0
POLYLINE
  5
24A
330
2
100
AcDbEntity
  8
V Folds
370
     0
100
AcDb2dPolyline
 66
     1
 10
0.0
 20
0.0
 30
0.0
  0
VERTEX
  5
24B
330
24A
100
AcDbEntity
  8
V Folds
370
     0
100
AcDbVertex
100
AcDb2dVertex
 10
1502.841464621132
 20
1696.237409415478
 30
0.0
  0
VERTEX
  5
24C
330
24A
100
AcDbEntity
  8
V Folds
370
     0
100
AcDbVertex
100
AcDb2dVertex
 10
1518.95029955655
 20
1703.07520416404
 30
0.0
  0
SEQEND
  5
24D
330
24A
100
AcDbEntity
  8
V Folds
370
     0
  0
CIRCLE
  5
24E
330
2
100
AcDbEntity
  8
Cut
100
AcDbCircle
 10
1502.841464621132
 20
1696.237409415478
 30
0.0
 40
17.5
  0
POLYLINE
  5
24F
330
2
100
AcDbEntity
  8
M Folds
370
     0
100
AcDb2dPolyline
 66
     1
 10
0.0
 20
0.0
 30
0.0
  0
VERTEX
  5
250
330
24F
100
AcDbEntity
  8
M Folds
370
     0
100
AcDbVertex
100
AcDb2dVertex
 10
1502.841464621132
 20
1696.237409415478
 30
0.0
  0
VERTEX
  5
251
330
24F
100
AcDbEntity
  8
M Folds
370
     0
100
AcDbVertex
100
AcDb2dVertex
 10
1517.841892383419
 20
1705.250575726403
 30
0.0
  0
SEQEND
  5
252
330
24F
100
AcDbEntity
  8
M Folds
370
     0
  0
POLYLINE
  5
253
330
2
100
AcDbEntity
  8
M Folds
370
     0
100
AcDb2dPolyline
 66
     1
 10
0.0
 20
0.0
 30
0.0
  0
VERTEX
  5
254
330
253
100
AcDbEntity
  8
M Folds
370
     0
100
AcDbVertex
100
AcDb2dVertex
 10
1502.841464621132
 20
1696.237409415478
 30
0.0
  0
VERTEX
  5
255
330
253
100
AcDbEntity
  8
M Folds
370
     0
100
AcDbVertex
100
AcDb2dVertex
 10
1516.048882275031
 20
1707.718442422812
 30
0.0
  0
SEQEND
  5
256
330
253
100
AcDbEntity
  8
M Folds
370
     0
  0
POLYLINE
  5
257
330
2
100
AcDbEntity
  8
V Folds
370
     0
100
AcDb2dPolyline
 66
     1
 10
0.0
 20
0.0
 30
0.0
  0
VERTEX
  5
258
330
257
100
AcDbEntity
  8
V Folds
370
     0
100
AcDbVertex
100
AcDb2dVertex
 10
1502.841464621132
 20
1696.237409415478
 30
0.0
  0
VERTEX
  5
259
330
257
100
AcDbEntity
  8
V Folds
370
     0
100
AcDbVertex
100
AcDb2dVertex
 10
1514.322497628467
 20
1709.444827069376
 30
0.0
  0
SEQEND
  5
25A
330
257
100
AcDbEntity
  8
V Folds
370
     0
  0
POLYLINE
  5
25B
330
2
100
AcDbEntity
  8
V Folds
370
     0
100
AcDb2dPolyline
 66
     1
 10
0.0
 20
0.0
 30
0.0
  0
VERTEX
  5
25C
330
25B
100
AcDbEntity
  8
V Folds
370
     0
100
AcDbVertex
100
AcDb2dVertex
 10
1502.841464621132
 20
1696.237409415478
 30
0.0
  0
VERTEX
  5
25D
330
25B
100
AcDbEntity
  8
V Folds
370
     0
100
AcDbVertex
100
AcDb2dVertex
 10
1511.854630932059
 20
1711.237837177765
 30
0.0
  0
SEQEND
  5
25E
330
25B
100
AcDbEntity
  8
V Folds
370
     0
  0
POLYLINE
  5
25F
330
2
100
AcDbEntity
  8
M Folds
370
     0
100
AcDb2dPolyline
 66
     1
 10
0.0
 20
0.0
 30
0.0
  0
VERTEX
  5
260
330
25F
100
AcDbEntity
  8
M Folds
370
     0
100
AcDbVertex
100
AcDb2dVertex
 10
1502.841464621132
 20
1696.237409415478
 30
0.0
  0
VERTEX
  5
261
330
25F
100
AcDbEntity
  8
M Folds
370
     0
100
AcDbVertex
100
AcDb2dVertex
 10
1509.679259369695
 20
1712.346244350896
 30
0.0
  0
SEQEND
  5
262
330
25F
100
AcDbEntity
  8
M Folds
370
     0
  0
POLYLINE
  5
263
330
2
100
AcDbEntity
  8
M Folds
370
     0
100
AcDb2dPolyline
 66
     1
 10
0.0
 20
0.0
 30
0.0
  0
VERTEX
  5
264
330
263
100
AcDbEntity
  8
M Folds
370
     0
100
AcDbVertex
100
AcDb2dVertex
 10
1502.841464621132
 20
1696.237409415478
 30
0.0
  0
VERTEX
  5
265
330
263
100
AcDbEntity
  8
M Folds
370
     0
100
AcDbVertex
100
AcDb2dVertex
 10
1506.77810807215
 20
1713.28888554922
 30
0.0
  0
SEQEND
  5
266
330
263
100
AcDbEntity
  8
M Folds
370
     0
  0
POLYLINE
  5
267
330
2
100
AcDbEntity
  8
V Folds
370
     0
100
AcDb2dPolyline
 66
     1
 10
0.0
 20
0.0
 30
0.0
  0
VERTEX
  5
268
330
267
100
AcDbEntity
  8
V Folds
370
     0
100
AcDbVertex
100
AcDb2dVertex
 10
1502.841464621132
 20
1696.237409415478
 30
0.0
  0
VERTEX
  5
269
330
267
100
AcDbEntity
  8
V Folds
370
     0
100
AcDbVertex
100
AcDb2dVertex
 10
1504.366690119218
 20
1713.670816632084
 30
0.0
  0
SEQEND
  5
26A
330
267
100
AcDbEntity
  8
V Folds
370
     0
  0
POLYLINE
  5
26B
330
2
100
AcDbEntity
  8
V Folds
370
     0
100
AcDb2dPolyline
 66
     1
 10
0.0
 20
0.0
 30
0.0
  0
VERTEX
  5
26C
330
26B
100
AcDbEntity
  8
V Folds
370
     0
100
AcDbVertex
100
AcDb2dVertex
 10
1502.841464621132
 20
1696.237409415478
 30
0.0
  0
VERTEX
  5
26D
330
26B
100
AcDbEntity
  8
V Folds
370
     0
100
AcDbVertex
100
AcDb2dVertex
 10
1501.316239123049
 20
1713.670816632084
 30
0.0
  0
SEQEND
  5
26E
330
26B
100
AcDbEntity
  8
V Folds
370
     0
  0
POLYLINE
  5
26F
330
2
100
AcDbEntity
  8
M Folds
370
     0
100
AcDb2dPolyline
 66
     1
 10
0.0
 20
0.0
 30
0.0
  0
VERTEX
  5
270
330
26F
100
AcDbEntity
  8
M Folds
370
     0
100
AcDbVertex
100
AcDb2dVertex
 10
1502.841464621132
 20
1696.237409415478
 30
0.0
  0
VERTEX
  5
271
330
26F
100
AcDbEntity
  8
M Folds
370
     0
100
AcDbVertex
100
AcDb2dVertex
 10
1498.904821170115
 20
1713.288885549221
 30
0.0
  0
SEQEND
  5
272
330
26F
100
AcDbEntity
  8
M Folds
370
     0
  0
POLYLINE
  5
273
330
2
100
AcDbEntity
  8
M Folds
370
     0
100
AcDb2dPolyline
 66
     1
 10
0.0
 20
0.0
 30
0.0
  0
VERTEX
  5
274
330
273
100
AcDbEntity
  8
M Folds
370
     0
100
AcDbVertex
100
AcDb2dVertex
 10
1502.841464621132
 20
1696.237409415478
 30
0.0
  0
VERTEX
  5
275
330
273
100
AcDbEntity
  8
M Folds
370
     0
100
AcDbVertex
100
AcDb2dVertex
 10
1496.00366987257
 20
1712.346244350896
 30
0.0
  0
SEQEND
  5
276
330
273
100
AcDbEntity
  8
M Folds
370
     0
  0
POLYLINE
  5
277
330
2
100
AcDbEntity
  8
V Folds
370
     0
100
AcDb2dPolyline
 66
     1
 10
0.0
 20
0.0
 30
0.0
  0
VERTEX
  5
278
330
277
100
AcDbEntity
  8
V Folds
370
     0
100
AcDbVertex
100
AcDb2dVertex
 10
1502.841464621132
 20
1696.237409415478
 30
0.0
  0
VERTEX
  5
279
330
277
100
AcDbEntity
  8
V Folds
370
     0
100
AcDbVertex
100
AcDb2dVertex
 10
1493.828298310207
 20
1711.237837177766
 30
0.0
  0
SEQEND
  5
27A
330
277
100
AcDbEntity
  8
V Folds
370
     0
  0
POLYLINE
  5
27B
330
2
100
AcDbEntity
  8
V Folds
370
     0
100
AcDb2dPolyline
 66
     1
 10
0.0
 20
0.0
 30
0.0
  0
VERTEX
  5
27C
330
27B
100
AcDbEntity
  8
V Folds
370
     0
100
AcDbVertex
100
AcDb2dVertex
 10
1502.841464621132
 20
1696.237409415478
 30
0.0
  0
VERTEX
  5
27D
330
27B
100
AcDbEntity
  8
V Folds
370
     0
100
AcDbVertex
100
AcDb2dVertex
 10
1491.360431613799
 20
1709.444827069378
 30
0.0
  0
SEQEND
  5
27E
330
27B
100
AcDbEntity
  8
V Folds
370
     0
  0
POLYLINE
  5
27F
330
2
100
AcDbEntity
  8
M Folds
370
     0
100
AcDb2dPolyline
 66
     1
 10
0.0
 20
0.0
 30
0.0
  0
VERTEX
  5
280
330
27F
100
AcDbEntity
  8
M Folds
370
     0
100
AcDbVertex
100
AcDb2dVertex
 10
1502.841464621132
 20
1696.237409415478
 30
0.0
  0
VERTEX
  5
281
330
27F
100
AcDbEntity
  8
M Folds
370
     0
100
AcDbVertex
100
AcDb2dVertex
 10
1489.634046967234
 20
1707.718442422813
 30
0.0
  0
SEQEND
  5
282
330
27F
100
AcDbEntity
  8
M Folds
370
     0
  0
POLYLINE
  5
283
330
2
100
AcDbEntity
  8
M Folds
370
     0
100
AcDb2dPolyline
 66
     1
 10
0.0
 20
0.0
 30
0.0
  0
VERTEX
  5
284
330
283
100
AcDbEntity
  8
M Folds
370
     0
100
AcDbVertex
100
AcDb2dVertex
 10
1502.841464621132
 20
1696.237409415478
 30
0.0
  0
VERTEX
  5
285
330
283
100
AcDbEntity
  8
M Folds
370
     0
100
AcDbVertex
100
AcDb2dVertex
 10
1487.841036858845
 20
1705.250575726405
 30
0.0
  0
SEQEND
  5
286
330
283
100
AcDbEntity
  8
M Folds
370
     0
  0
POLYLINE
  5
287
330
2
100
AcDbEntity
  8
V Folds
370
     0
100
AcDb2dPolyline
 66
     1
 10
0.0
 20
0.0
 30
0.0
  0
VERTEX
  5
288
330
287
100
AcDbEntity
  8
V Folds
370
     0
100
AcDbVertex
100
AcDb2dVertex
 10
1502.841464621132
 20
1696.237409415478
 30
0.0
  0
VERTEX
  5
289
330
287
100
AcDbEntity
  8
V Folds
370
     0
100
AcDbVertex
100
AcDb2dVertex
 10
1486.732629685715
 20
1703.075204164043
 30
0.0
  0
SEQEND
  5
28A
330
287
100
AcDbEntity
  8
V Folds
370
     0
  0
POLYLINE
  5
28B
330
2
100
AcDbEntity
  8
V Folds
370
     0
100
AcDb2dPolyline
 66
     1
 10
0.0
 20
0.0
 30
0.0
  0
VERTEX
  5
28C
330
28B
100
AcDbEntity
  8
V Folds
370
     0
100
AcDbVertex
100
AcDb2dVertex
 10
1502.841464621132
 20
1696.237409415478
 30
0.0
  0
VERTEX
  5
28D
330
28B
100
AcDbEntity
  8
V Folds
370
     0
100
AcDbVertex
100
AcDb2dVertex
 10
1485.78998848739
 20
1700.174052866497
 30
0.0
  0
SEQEND
  5
28E
330
28B
100
AcDbEntity
  8
V Folds
370
     0
  0
POLYLINE
  5
28F
330
2
100
AcDbEntity
  8
M Folds
370
     0
100
AcDb2dPolyline
 66
     1
 10
0.0
 20
0.0
 30
0.0
  0
VERTEX
  5
290
330
28F
100
AcDbEntity
  8
M Folds
370
     0
100
AcDbVertex
100
AcDb2dVertex
 10
1502.841464621132
 20
1696.237409415478
 30
0.0
  0
VERTEX
  5
291
330
28F
100
AcDbEntity
  8
M Folds
370
     0
100
AcDbVertex
100
AcDb2dVertex
 10
1485.408057404526
 20
1697.762634913563
 30
0.0
  0
SEQEND
  5
292
330
28F
100
AcDbEntity
  8
M Folds
370
     0
  0
POLYLINE
  5
293
330
2
100
AcDbEntity
  8
M Folds
370
     0
100
AcDb2dPolyline
 66
     1
 10
0.0
 20
0.0
 30
0.0
  0
VERTEX
  5
294
330
293
100
AcDbEntity
  8
M Folds
370
     0
100
AcDbVertex
100
AcDb2dVertex
 10
1502.841464621132
 20
1696.237409415478
 30
0.0
  0
VERTEX
  5
295
330
293
100
AcDbEntity
  8
M Folds
370
     0
100
AcDbVertex
100
AcDb2dVertex
 10
1485.408057404526
 20
1694.712183917395
 30
0.0
  0
SEQEND
  5
296
330
293
100
AcDbEntity
  8
M Folds
370
     0
  0
POLYLINE
  5
297
330
2
100
AcDbEntity
  8
V Folds
370
     0
100
AcDb2dPolyline
 66
     1
 10
0.0
 20
0.0
 30
0.0
  0
VERTEX
  5
298
330
297
100
AcDbEntity
  8
V Folds
370
     0
100
AcDbVertex
100
AcDb2dVertex
 10
1502.841464621132
 20
1696.237409415478
 30
0.0
  0
VERTEX
  5
299
330
297
100
AcDbEntity
  8
V Folds
370
     0
100
AcDbVertex
100
AcDb2dVertex
 10
1485.789988487389
 20
1692.300765964462
 30
0.0
  0
SEQEND
  5
29A
330
297
100
AcDbEntity
  8
V Folds
370
     0
  0
POLYLINE
  5
29B
330
2
100
AcDbEntity
  8
V Folds
370
     0
100
AcDb2dPolyline
 66
     1
 10
0.0
 20
0.0
 30
0.0
  0
VERTEX
  5
29C
330
29B
100
AcDbEntity
  8
V Folds
370
     0
100
AcDbVertex
100
AcDb2dVertex
 10
1502.841464621132
 20
1696.237409415478
 30
0.0
  0
VERTEX
  5
29D
330
29B
100
AcDbEntity
  8
V Folds
370
     0
100
AcDbVertex
100
AcDb2dVertex
 10
1486.732629685713
 20
1689.399614666917
 30
0.0
  0
SEQEND
  5
29E
330
29B
100
AcDbEntity
  8
V Folds
370
     0
  0
POLYLINE
  5
29F
330
2
100
AcDbEntity
  8
M Folds
370
     0
100
AcDb2dPolyline
 66
     1
 10
0.0
 20
0.0
 30
0.0
  0
VERTEX
  5
2A0
330
29F
100
AcDbEntity
  8
M Folds
370
     0
100
AcDbVertex
100
AcDb2dVertex
 10
1502.841464621132
 20
1696.237409415478
 30
0.0
  0
VERTEX
  5
2A1
330
29F
100
AcDbEntity
  8
M Folds
370
     0
100
AcDbVertex
100
AcDb2dVertex
 10
1487.841036858844
 20
1687.224243104553
 30
0.0
  0
SEQEND
  5
2A2
330
29F
100
AcDbEntity
  8
M Folds
370
     0
  0
POLYLINE
  5
2A3
330
2
100
AcDbEntity
  8
M Folds
370
     0
100
AcDb2dPolyline
 66
     1
 10
0.0
 20
0.0
 30
0.0
  0
VERTEX
  5
2A4
330
2A3
100
AcDbEntity
  8
M Folds
370
     0
100
AcDbVertex
100
AcDb2dVertex
 10
1502.841464621132
 20
1696.237409415478
 30
0.0
  0
VERTEX
  5
2A5
330
2A3
100
AcDbEntity
  8
M Folds
370
     0
100
AcDbVertex
100
AcDb2dVertex
 10
1489.634046967232
 20
1684.756376408145
 30
0.0
  0
SEQEND
  5
2A6
330
2A3
100
AcDbEntity
  8
M Folds
370
     0
  0
POLYLINE
  5
2A7
330
2
100
AcDbEntity
  8
V Folds
370
     0
100
AcDb2dPolyline
 66
     1
 10
0.0
 20
0.0
 30
0.0
  0
VERTEX
  5
2A8
330
2A7
100
AcDbEntity
  8
V Folds
370
     0
100
AcDbVertex
100
AcDb2dVertex
 10
1502.841464621132
 20
1696.237409415478
 30
0.0
  0
VERTEX
  5
2A9
330
2A7
100
AcDbEntity
  8
V Folds
370
     0
100
AcDbVertex
100
AcDb2dVertex
 10
1491.360431613797
 20
1683.029991761581
 30
0.0
  0
SEQEND
  5
2AA
330
2A7
100
AcDbEntity
  8
V Folds
370
     0
  0
POLYLINE
  5
2AB
330
2
100
AcDbEntity
  8
V Folds
370
     0
100
AcDb2dPolyline
 66
     1
 10
0.0
 20
0.0
 30
0.0
  0
VERTEX
  5
2AC
330
2AB
100
AcDbEntity
  8
V Folds
370
     0
100
AcDbVertex
100
AcDb2dVertex
 10
1502.841464621132
 20
1696.237409415478
 30
0.0
  0
VERTEX
  5
2AD
330
2AB
100
AcDbEntity
  8
V Folds
370
     0
100
AcDbVertex
100
AcDb2dVertex
 10
1493.828298310204
 20
1681.236981653192
 30
0.0
  0
SEQEND
  5
2AE
330
2AB
100
AcDbEntity
  8
V Folds
370
     0
  0
POLYLINE
  5
2AF
330
2
100
AcDbEntity
  8
M Folds
370
     0
100
AcDb2dPolyline
 66
     1
 10
0.0
 20
0.0
 30
0.0
  0
VERTEX
  5
2B0
330
2AF
100
AcDbEntity
  8
M Folds
370
     0
100
AcDbVertex
100
AcDb2dVertex
 10
1502.841464621132
 20
1696.237409415478
 30
0.0
  0
VERTEX
  5
2B1
330
2AF
100
AcDbEntity
  8
M Folds
370
     0
100
AcDbVertex
100
AcDb2dVertex
 10
1496.003669872569
 20
1680.128574480061
 30
0.0
  0
SEQEND
  5
2B2
330
2AF
100
AcDbEntity
  8
M Folds
370
     0
  0
POLYLINE
  5
2B3
330
2
100
AcDbEntity
  8
M Folds
370
     0
100
AcDb2dPolyline
 66
     1
 10
0.0
 20
0.0
 30
0.0
  0
VERTEX
  5
2B4
330
2B3
100
AcDbEntity
  8
M Folds
370
     0
100
AcDbVertex
100
AcDb2dVertex
 10
1502.841464621132
 20
1696.237409415478
 30
0.0
  0
VERTEX
  5
2B5
330
2B3
100
AcDbEntity
  8
M Folds
370
     0
100
AcDbVertex
100
AcDb2dVertex
 10
1498.904821170113
 20
1679.185933281737
 30
0.0
  0
SEQEND
  5
2B6
330
2B3
100
AcDbEntity
  8
M Folds
370
     0
  0
POLYLINE
  5
2B7
330
2
100
AcDbEntity
  8
V Folds
370
     0
100
AcDb2dPolyline
 66
     1
 10
0.0
 20
0.0
 30
0.0
  0
VERTEX
  5
2B8
330
2B7
100
AcDbEntity
  8
V Folds
370
     0
100
AcDbVertex
100
AcDb2dVertex
 10
1502.841464621132
 20
1696.237409415478
 30
0.0
  0
VERTEX
  5
2B9
330
2B7
100
AcDbEntity
  8
V Folds
370
     0
100
AcDbVertex
100
AcDb2dVertex
 10
1501.316239123046
 20
1678.804002198873
 30
0.0
  0
SEQEND
  5
2BA
330
2B7
100
AcDbEntity
  8
V Folds
370
     0
  0
POLYLINE
  5
2BB
330
2
100
AcDbEntity
  8
V Folds
370
     0
100
AcDb2dPolyline
 66
     1
 10
0.0
 20
0.0
 30
0.0
  0
VERTEX
  5
2BC
330
2BB
100
AcDbEntity
  8
V Folds
370
     0
100
AcDbVertex
100
AcDb2dVertex
 10
1502.841464621132
 20
1696.237409415478
 30
0.0
  0
VERTEX
  5
2BD
330
2BB
100
AcDbEntity
  8
V Folds
370
     0
100
AcDbVertex
100
AcDb2dVertex
 10
1504.366690119214
 20
1678.804002198873
 30
0.0
  0
SEQEND
  5
2BE
330
2BB
100
AcDbEntity
  8
V Folds
370
     0
  0
POLYLINE
  5
2BF
330
2
100
AcDbEntity
  8
M Folds
370
     0
100
AcDb2dPolyline
 66
     1
 10
0.0
 20
0.0
 30
0.0
  0
VERTEX
  5
2C0
330
2BF
100
AcDbEntity
  8
M Folds
370
     0
100
AcDbVertex
100
AcDb2dVertex
 10
1502.841464621132
 20
1696.237409415478
 30
0.0
  0
VERTEX
  5
2C1
330
2BF
100
AcDbEntity
  8
M Folds
370
     0
100
AcDbVertex
100
AcDb2dVertex
 10
1506.778108072148
 20
1679.185933281736
 30
0.0
  0
SEQEND
  5
2C2
330
2BF
100
AcDbEntity
  8
M Folds
370
     0
  0
POLYLINE
  5
2C3
330
2
100
AcDbEntity
  8
M Folds
370
     0
100
AcDb2dPolyline
 66
     1
 10
0.0
 20
0.0
 30
0.0
  0
VERTEX
  5
2C4
330
2C3
100
AcDbEntity
  8
M Folds
370
     0
100
AcDbVertex
100
AcDb2dVertex
 10
1502.841464621132
 20
1696.237409415478
 30
0.0
  0
VERTEX
  5
2C5
330
2C3
100
AcDbEntity
  8
M Folds
370
     0
100
AcDbVertex
100
AcDb2dVertex
 10
1509.679259369693
 20
1680.12857448006
 30
0.0
  0
SEQEND
  5
2C6
330
2C3
100
AcDbEntity
  8
M Folds
370
     0
  0
POLYLINE
  5
2C7
330
2
100
AcDbEntity
  8
V Folds
370
     0
100
AcDb2dPolyline
 66
     1
 10
0.0
 20
0.0
 30
0.0
  0
VERTEX
  5
2C8
330
2C7
100
AcDbEntity
  8
V Folds
370
     0
100
AcDbVertex
100
AcDb2dVertex
 10
1502.841464621132
 20
1696.237409415478
 30
0.0
  0
VERTEX
  5
2C9
330
2C7
100
AcDbEntity
  8
V Folds
370
     0
100
AcDbVertex
100
AcDb2dVertex
 10
1511.854630932056
 20
1681.23698165319
 30
0.0
  0
SEQEND
  5
2CA
330
2C7
100
AcDbEntity
  8
V Folds
370
     0
  0
POLYLINE
  5
2CB
330
2
100
AcDbEntity
  8
V Folds
370
     0
100
AcDb2dPolyline
 66
     1
 10
0.0
 20
0.0
 30
0.0
  0
VERTEX
  5
2CC
330
2CB
100
AcDbEntity
  8
V Folds
370
     0
100
AcDbVertex
100
AcDb2dVertex
 10
1502.841464621132
 20
1696.237409415478
 30
0.0
  0
VERTEX
  5
2CD
330
2CB
100
AcDbEntity
  8
V Folds
370
     0
100
AcDbVertex
100
AcDb2dVertex
 10
1514.322497628465
 20
1683.029991761579
 30
0.0
  0
SEQEND
  5
2CE
330
2CB
100
AcDbEntity
  8
V Folds
370
     0
  0
POLYLINE
  5
2CF
330
2
100
AcDbEntity
  8
M Folds
370
     0
100
AcDb2dPolyline
 66
     1
 10
0.0
 20
0.0
 30
0.0
  0
VERTEX
  5
2D0
330
2CF
100
AcDbEntity
  8
M Folds
370
     0
100
AcDbVertex
100
AcDb2dVertex
 10
1502.841464621132
 20
1696.237409415478
 30
0.0
  0
VERTEX
  5
2D1
330
2CF
100
AcDbEntity
  8
M Folds
370
     0
100
AcDbVertex
100
AcDb2dVertex
 10
1516.04888227503
 20
1684.756376408144
 30
0.0
  0
SEQEND
  5
2D2
330
2CF
100
AcDbEntity
  8
M Folds
370
     0
  0
POLYLINE
  5
2D3
330
2
100
AcDbEntity
  8
M Folds
370
     0
100
AcDb2dPolyline
 66
     1
 10
0.0
 20
0.0
 30
0.0
  0
VERTEX
  5
2D4
330
2D3
100
AcDbEntity
  8
M Folds
370
     0
100
AcDbVertex
100
AcDb2dVertex
 10
1502.841464621132
 20
1696.237409415478
 30
0.0
  0
VERTEX
  5
2D5
330
2D3
100
AcDbEntity
  8
M Folds
370
     0
100
AcDbVertex
100
AcDb2dVertex
 10
1517.841892383419
 20
1687.224243104552
 30
0.0
  0
SEQEND
  5
2D6
330
2D3
100
AcDbEntity
  8
M Folds
370
     0
  0
POLYLINE
  5
2D7
330
2
100
AcDbEntity
  8
V Folds
370
     0
100
AcDb2dPolyline
 66
     1
 10
0.0
 20
0.0
 30
0.0
  0
VERTEX
  5
2D8
330
2D7
100
AcDbEntity
  8
V Folds
370
     0
100
AcDbVertex
100
AcDb2dVertex
 10
1502.841464621132
 20
1696.237409415478
 30
0.0
  0
VERTEX
  5
2D9
330
2D7
100
AcDbEntity
  8
V Folds
370
     0
100
AcDbVertex
100
AcDb2dVertex
 10
1518.950299556549
 20
1689.399614666915
 30
0.0
  0
SEQEND
  5
2DA
330
2D7
100
AcDbEntity
  8
V Folds
370
     0
  0
POLYLINE
  5
2DB
330
2
100
AcDbEntity
  8
V Folds
370
     0
100
AcDb2dPolyline
 66
     1
 10
0.0
 20
0.0
 30
0.0
  0
VERTEX
  5
2DC
330
2DB
100
AcDbEntity
  8
V Folds
370
     0
100
AcDbVertex
100
AcDb2dVertex
 10
1502.841464621132
 20
1696.237409415478
 30
0.0
  0
VERTEX
  5
2DD
330
2DB
100
AcDbEntity
  8
V Folds
370
     0
100
AcDbVertex
100
AcDb2dVertex
 10
1519.892940754874
 20
1692.30076596446
 30
0.0
  0
SEQEND
  5
2DE
330
2DB
100
AcDbEntity
  8
V Folds
370
     0
  0
CIRCLE
  5
2DF
330
2
100
AcDbEntity
  8
Cut
100
AcDbCircle
 10
1502.841464621134
 20
1713.237409415478
 30
0.0
 40
0.2
  0
CIRCLE
  5
2E0
330
2
100
AcDbEntity
  8
Cut
100
AcDbCircle
 10
1502.841464621134
 20
1679.237409415478
 30
0.0
 40
0.2
  0
CIRCLE
  5
2E1
330
2
100
AcDbEntity
  8
Cut
100
AcDbCircle
 10
1485.841464621131
 20
1696.23740941548
 30
0.0
 40
0.2
  0
CIRCLE
  5
2E2
330
2
100
AcDbEntity
  8
Cut
100
AcDbCircle
 10
1519.841464621132
 20
1696.23740941548
 30
0.0
 40
0.2
  0
ENDSEC
  0
SECTION
  2
OBJECTS
  0
DICTIONARY
  5
B
330
0
100
AcDbDictionary
281
     1
  3
ACAD_COLOR
350
40
  3
ACAD_GROUP
350
37
  3
ACAD_LAYOUT
350
18
  3
ACAD_MATERIAL
350
D
  3
ACAD_MLEADERSTYLE
350
43
  3
ACAD_MLINESTYLE
350
38
  3
ACAD_PLOTSETTINGS
350
39
  3
ACAD_PLOTSTYLENAME
350
A
  3
ACAD_SCALELIST
350
41
  3
ACAD_TABLESTYLE
350
42
  3
ACAD_VISUALSTYLE
350
2D
  3
ACDB_RECOMPOSE_DATA
350
2E5
  3
AcDbVariableDictionary
350
44
  3
AcDsDecomposeData
350
2EB
  0
DICTIONARY
  5
20
330
1F
100
AcDbDictionary
280
     1
281
     1
  3
ACAD_LAYERSTATES
360
21
  0
DICTIONARY
  5
8
330
7
100
AcDbDictionary
280
     1
281
     1
  0
DICTIONARY
  5
3
330
2
100
AcDbDictionary
280
     1
281
     1
  3
ACAD_ASSOCNETWORK
360
4
  3
ACAD_SORTENTS
360
2E3
  0
DICTIONARY
  5
40
102
{ACAD_REACTORS
330
B
102
}
330
B
100
AcDbDictionary
281
     1
  0
DICTIONARY
  5
37
102
{ACAD_REACTORS
330
B
102
}
330
B
100
AcDbDictionary
281
     1
  0
DICTIONARY
  5
18
102
{ACAD_REACTORS
330
B
102
}
330
B
100
AcDbDictionary
281
     1
  3
Layout1
350
1E
  3
Model
350
17
  0
DICTIONARY
  5
D
102
{ACAD_REACTORS
330
B
102
}
330
B
100
AcDbDictionary
281
     1
  3
ByBlock
350
3D
  3
ByLayer
350
3A
  3
Global
350
C
  0
DICTIONARY
  5
43
102
{ACAD_REACTORS
330
B
102
}
330
B
100
AcDbDictionary
281
     1
  0
DICTIONARY
  5
38
102
{ACAD_REACTORS
330
B
102
}
330
B
100
AcDbDictionary
281
     1
  3
Standard
350
53
  0
DICTIONARY
  5
39
102
{ACAD_REACTORS
330
B
102
}
330
B
100
AcDbDictionary
281
     1
  0
ACDBDICTIONARYWDFLT
  5
A
102
{ACAD_REACTORS
330
B
102
}
330
B
100
AcDbDictionary
281
     1
  3
Normal
350
9
100
AcDbDictionaryWithDefault
340
9
  0
DICTIONARY
  5
41
102
{ACAD_REACTORS
330
B
102
}
330
B
100
AcDbDictionary
281
     1
  3
A0
350
58
  3
A1
350
59
  3
A2
350
5A
  3
A3
350
5B
  3
A4
350
5C
  3
A5
350
5D
  3
A6
350
5E
  3
A7
350
5F
  3
A8
350
60
  3
A9
350
61
  3
B0
350
62
  3
B1
350
63
  3
B2
350
64
  3
B3
350
65
  3
B4
350
66
  3
B5
350
67
  3
B6
350
68
  0
DICTIONARY
  5
42
102
{ACAD_REACTORS
330
B
102
}
330
B
100
AcDbDictionary
281
     1
  3
Standard
350
54
  0
DICTIONARY
  5
2D
102
{ACAD_REACTORS
330
B
102
}
330
B
100
AcDbDictionary
281
     1
  3
2dWireframe
350
2C
  3
Realistic
350
56
  3
Wireframe
350
57
  0
XRECORD
  5
2E5
102
{ACAD_REACTORS
330
B
102
}
330
B
100
AcDbXrecord
280
     1
 90
        1
330
54
  0
DICTIONARY
  5
44
102
{ACAD_REACTORS
330
B
102
}
330
B
100
AcDbDictionary
281
     1
  3
CANNOSCALE
350
45
  3
CENTEREXE
350
46
  3
CENTERLTYPEFILE
350
47
  3
CMLEADERSTYLE
350
48
  3
CTABLESTYLE
350
49
  3
CVIEWDETAILSTYLE
350
4A
  3
CVIEWSECTIONSTYLE
350
4B
  3
DIMASSOC
350
4C
  3
HIDETEXT
350
4D
  3
LAYEREVAL
350
4E
  3
LAYERNOTIFY
350
4F
  0
DICTIONARY
  5
2EB
102
{ACAD_REACTORS
330
B
102
}
330
B
100
AcDbDictionary
281
     1
  3
AcDsRecords
350
2ED
  3
AcDsSchemas
350
2EC
1001
ACAD
1070
     2
  0
DICTIONARY
  5
21
102
{ACAD_REACTORS
330
20
102
}
330
20
100
AcDbDictionary
281
     1
  0
DICTIONARY
  5
4
102
{ACAD_REACTORS
330
3
102
}
330
3
100
AcDbDictionary
281
     1
  0
SORTENTSTABLE
  5
2E3
102
{ACAD_REACTORS
330
3
102
}
330
3
100
AcDbSortentsTable
330
2
  0
LAYOUT
  5
1E
102
{ACAD_REACTORS
330
18
102
}
330
18
100
AcDbPlotSettings
  1

  2
C:\Documents and Settings\basas\Application Data\Autodesk\AutoCAD 2005\R16.1\enu\plotters\Default Windows System Printer.pc3
  4

  6

 40
0.0
 41
0.0
 42
0.0
 43
0.0
 44
0.0
 45
0.0
 46
0.0
 47
0.0
 48
0.0
 49
0.0
140
0.0
141
0.0
142
1.0
143
1.0
 70
   688
 72
     0
 73
     0
 74
     5
  7

 75
    16
147
1.0
 76
     0
 77
     2
 78
   300
148
0.0
149
0.0
100
AcDbLayout
  1
Layout1
 70
     1
 71
     1
 10
0.0
 20
0.0
 11
12.0
 21
9.0
 12
0.0
 22
0.0
 32
0.0
 14
0.0
 24
0.0
 34
0.0
 15
0.0
 25
0.0
 35
0.0
146
0.0
 13
0.0
 23
0.0
 33
0.0
 16
1.0
 26
0.0
 36
0.0
 17
0.0
 27
1.0
 37
0.0
 76
     0
330
1B
  0
LAYOUT
  5
17
102
{ACAD_XDICTIONARY
360
19
102
}
102
{ACAD_REACTORS
330
18
102
}
330
18
100
AcDbPlotSettings
  1

  2
none_device
  4
ISO_A4_(210.00_x_297.00_MM)
  6

 40
7.5
 41
20.0
 42
7.5
 43
20.0
 44
210.0
 45
297.0
 46
11.54999923706054
 47
-13.65000009536743
 48
0.0
 49
0.0
140
0.0
141
0.0
142
1.0
143
8.704084754739808
 70
 11952
 72
     1
 73
     0
 74
     0
  7

 75
     0
147
0.1148885871608098
 76
     0
 77
     2
 78
   300
148
0.0
149
0.0
100
AcDbLayout
  1
Model
 70
     1
 71
     0
 10
0.0
 20
0.0
 11
12.0
 21
9.0
 12
0.0
 22
0.0
 32
0.0
 14
0.0
 24
0.0
 34
0.0
 15
0.0
 25
0.0
 35
0.0
146
0.0
 13
0.0
 23
0.0
 33
0.0
 16
1.0
 26
0.0
 36
0.0
 17
0.0
 27
1.0
 37
0.0
 76
     0
330
2
331
2B
1001
ACAD_PSEXT
1000
None
1000
None
1000
Not applicable
1000
The layout will not be plotted unless a new plotter configuration name is selected.
1070
     0
  0
MATERIAL
  5
3D
102
{ACAD_XDICTIONARY
360
3E
102
}
102
{ACAD_REACTORS
330
D
102
}
330
D
100
AcDbMaterial
  1
ByBlock
 94
       63
  0
MATERIAL
  5
3A
102
{ACAD_XDICTIONARY
360
3B
102
}
102
{ACAD_REACTORS
330
D
102
}
330
D
100
AcDbMaterial
  1
ByLayer
 94
       63
  0
MATERIAL
  5
C
102
{ACAD_XDICTIONARY
360
E
102
}
102
{ACAD_REACTORS
330
D
102
}
330
D
100
AcDbMaterial
  1
Global
 43
0.0007999999797903
 43
0.0
 43
0.0
 43
0.0
 43
0.0
 43
0.0007999999797903
 43
0.0
 43
0.0
 43
0.0
 43
0.0
 43
1.0
 43
0.0
 43
0.0
 43
0.0
 43
0.0
 43
1.0
 49
0.0007999999797903
 49
0.0
 49
0.0
 49
0.0
 49
0.0
 49
0.0007999999797903
 49
0.0
 49
0.0
 49
0.0
 49
0.0
 49
1.0
 49
0.0
 49
0.0
 49
0.0
 49
0.0
 49
1.0
142
0.0007999999797903
142
0.0
142
0.0
142
0.0
142
0.0
142
0.0007999999797903
142
0.0
142
0.0
142
0.0
142
0.0
142
1.0
142
0.0
142
0.0
142
0.0
142
0.0
142
1.0
144
0.0007999999797903
144
0.0
144
0.0
144
0.0
144
0.0
144
0.0007999999797903
144
0.0
144
0.0
144
0.0
144
0.0
144
1.0
144
0.0
144
0.0
144
0.0
144
0.0
144
1.0
 94
       63
1001
ACAD
1070
    -1
1070
     3
1070
     0
1000

1071
        0
1070
     0
  0
MLINESTYLE
  5
53
102
{ACAD_REACTORS
330
38
102
}
330
38
100
AcDbMlineStyle
  2
STANDARD
 70
     0
  3

 62
   256
 51
90.0
 52
90.0
 71
     2
 49
0.5
 62
   256
  6
BYLAYER
 49
-0.5
 62
   256
  6
BYLAYER
  0
ACDBPLACEHOLDER
  5
9
102
{ACAD_REACTORS
330
A
102
}
330
A
  0
SCALE
  5
58
102
{ACAD_REACTORS
330
41
102
}
330
41
100
AcDbScale
 70
     0
300
1:1
140
1.0
141
1.0
290
     1
  0
SCALE
  5
59
102
{ACAD_REACTORS
330
41
102
}
330
41
100
AcDbScale
 70
     0
300
1:2
140
1.0
141
2.0
290
     0
  0
SCALE
  5
5A
102
{ACAD_REACTORS
330
41
102
}
330
41
100
AcDbScale
 70
     0
300
1:4
140
1.0
141
4.0
290
     0
  0
SCALE
  5
5B
102
{ACAD_REACTORS
330
41
102
}
330
41
100
AcDbScale
 70
     0
300
1:5
140
1.0
141
5.0
290
     0
  0
SCALE
  5
5C
102
{ACAD_REACTORS
330
41
102
}
330
41
100
AcDbScale
 70
     0
300
1:8
140
1.0
141
8.0
290
     0
  0
SCALE
  5
5D
102
{ACAD_REACTORS
330
41
102
}
330
41
100
AcDbScale
 70
     0
300
1:10
140
1.0
141
10.0
290
     0
  0
SCALE
  5
5E
102
{ACAD_REACTORS
330
41
102
}
330
41
100
AcDbScale
 70
     0
300
1:16
140
1.0
141
16.0
290
     0
  0
SCALE
  5
5F
102
{ACAD_REACTORS
330
41
102
}
330
41
100
AcDbScale
 70
     0
300
1:20
140
1.0
141
20.0
290
     0
  0
SCALE
  5
60
102
{ACAD_REACTORS
330
41
102
}
330
41
100
AcDbScale
 70
     0
300
1:30
140
1.0
141
30.0
290
     0
  0
SCALE
  5
61
102
{ACAD_REACTORS
330
41
102
}
330
41
100
AcDbScale
 70
     0
300
1:40
140
1.0
141
40.0
290
     0
  0
SCALE
  5
62
102
{ACAD_REACTORS
330
41
102
}
330
41
100
AcDbScale
 70
     0
300
1:50
140
1.0
141
50.0
290
     0
  0
SCALE
  5
63
102
{ACAD_REACTORS
330
41
102
}
330
41
100
AcDbScale
 70
     0
300
1:100
140
1.0
141
100.0
290
     0
  0
SCALE
  5
64
102
{ACAD_REACTORS
330
41
102
}
330
41
100
AcDbScale
 70
     0
300
2:1
140
2.0
141
1.0
290
     0
  0
SCALE
  5
65
102
{ACAD_REACTORS
330
41
102
}
330
41
100
AcDbScale
 70
     0
300
4:1
140
4.0
141
1.0
290
     0
  0
SCALE
  5
66
102
{ACAD_REACTORS
330
41
102
}
330
41
100
AcDbScale
 70
     0
300
8:1
140
8.0
141
1.0
290
     0
  0
SCALE
  5
67
102
{ACAD_REACTORS
330
41
102
}
330
41
100
AcDbScale
 70
     0
300
10:1
140
10.0
141
1.0
290
     0
  0
SCALE
  5
68
102
{ACAD_REACTORS
330
41
102
}
330
41
100
AcDbScale
 70
     0
300
100:1
140
100.0
141
1.0
290
     0
  0
TABLESTYLE
  5
54
102
{ACAD_XDICTIONARY
360
55
102
}
102
{ACAD_REACTORS
330
42
102
}
330
42
100
AcDbTableStyle
280
     0
  3
Standard
 70
     0
 71
     0
 40
1.5
 41
1.5
280
     0
281
     0
  7
Standard
140
4.5
170
     2
 62
     0
 63
     7
283
     0
 90
      512
 91
        0
  1

274
    -2
284
     1
 64
     0
275
    -2
285
     1
 65
     0
276
    -2
286
     1
 66
     0
277
    -2
287
     1
 67
     0
278
    -2
288
     1
 68
     0
279
    -2
289
     1
 69
     0
  7
Standard
140
6.0
170
     5
 62
     0
 63
     7
283
     0
 90
      512
 91
        0
  1

274
    -2
284
     1
 64
     0
275
    -2
285
     1
 65
     0
276
    -2
286
     1
 66
     0
277
    -2
287
     1
 67
     0
278
    -2
288
     1
 68
     0
279
    -2
289
     1
 69
     0
  7
Standard
140
4.5
170
     5
 62
     0
 63
     7
283
     0
 90
      512
 91
        0
  1

274
    -2
284
     1
 64
     0
275
    -2
285
     1
 65
     0
276
    -2
286
     1
 66
     0
277
    -2
287
     1
 67
     0
278
    -2
288
     1
 68
     0
279
    -2
289
     1
 69
     0
  0
VISUALSTYLE
  5
2C
102
{ACAD_REACTORS
330
2D
102
}
330
2D
100
AcDbVisualStyle
  2
2dWireframe
 70
     4
177
     3
291
     0
 70
    58
 90
        0
176
     1
 90
        2
176
     1
 90
        1
176
     1
 90
        0
176
     1
 40
0.6
176
     1
 40
30.0
176
     1
 62
     7
420
 16777215
176
     1
 90
        1
176
     1
 90
        4
176
     1
 62
     7
176
     1
 62
   257
176
     1
 90
        1
176
     1
 90
        1
176
     1
 40
1.0
176
     1
 90
        0
176
     1
 62
   257
176
     1
 40
1.0
176
     1
 90
        1
176
     1
 90
        6
176
     1
 90
        2
176
     1
 62
     7
176
     1
 90
        5
176
     1
 90
        0
176
     1
 90
        0
176
     1
290
     0
176
     1
 90
        1
176
     1
 40
0.0
176
     1
 90
        0
176
     1
290
     1
176
     1
290
     1
176
     1
290
     0
176
     1
290
     0
176
     1
290
     0
176
     1
290
     0
176
     1
290
     0
176
     1
290
     0
176
     1
290
     0
176
     1
 90
       50
176
     1
 40
0.0
176
     1
 40
1.0
176
     1
 90
        0
176
     1
 62
    18
420
        0
176
     1
 90
       50
176
     1
 90
        3
176
     1
 62
     5
420
      255
176
     1
290
     0
176
     1
 90
       50
176
     1
 90
       50
176
     1
 90
       50
176
     1
290
     0
176
     1
 90
       50
176
     1
 62
   256
176
     0
 40
1.0
176
     0
 90
        2
176
     1
  1
strokes_ogs.tif
176
     1
290
     0
176
     1
 40
1.0
176
     1
 40
1.0
176
     1
1001
ACAD
1000
AcDbSavedByObjectVersion
1070
     0
  0
VISUALSTYLE
  5
56
102
{ACAD_REACTORS
330
2D
102
}
330
2D
100
AcDbVisualStyle
  2
Realistic
 70
     8
177
     3
291
     0
 70
    58
 90
        2
176
     1
 90
        3
176
     1
 90
        0
176
     1
 90
        2
176
     1
 40
0.6
176
     1
 40
30.0
176
     1
 62
     7
420
 16777215
176
     1
 90
        0
176
     1
 90
        0
176
     1
 62
     7
176
     1
 62
   257
176
     1
 90
        1
176
     1
 90
        1
176
     1
 40
1.0
176
     1
 90
        8
176
     1
 62
   257
176
     1
 40
1.0
176
     1
 90
        1
176
     1
 90
        6
176
     1
 90
        2
176
     1
 62
     7
176
     1
 90
        3
176
     1
 90
        0
176
     1
 90
        0
176
     1
290
     0
176
     1
 90
       13
176
     1
 40
0.0
176
     1
 90
        0
176
     1
290
     0
176
     1
290
     1
176
     1
290
     1
176
     1
290
     0
176
     1
290
     0
176
     1
290
     0
176
     1
290
     0
176
     1
290
     0
176
     1
290
     0
176
     1
 90
       50
176
     1
 40
0.0
176
     1
 40
1.0
176
     1
 90
        0
176
     1
 62
    18
420
        0
176
     1
 90
       50
176
     1
 90
        3
176
     1
 62
     5
420
      255
176
     1
290
     0
176
     1
 90
       50
176
     1
 90
       50
176
     1
 90
       50
176
     1
290
     0
176
     1
 90
       50
176
     1
 62
   256
176
     0
 40
1.0
176
     0
 90
        2
176
     1
  1
strokes_ogs.tif
176
     1
290
     0
176
     1
 40
1.0
176
     1
 40
1.0
176
     1
1001
ACAD
1000
AcDbSavedByObjectVersion
1070
     0
  0
VISUALSTYLE
  5
57
102
{ACAD_REACTORS
330
2D
102
}
330
2D
100
AcDbVisualStyle
  2
Wireframe
 70
     5
177
     3
291
     0
 70
    58
 90
        0
176
     1
 90
        2
176
     1
 90
        0
176
     1
 90
        0
176
     1
 40
0.6
176
     1
 40
30.0
176
     1
 62
     7
420
 16777215
176
     1
 90
        1
176
     1
 90
        4
176
     1
 62
     7
176
     1
 62
   257
176
     1
 90
        1
176
     1
 90
        1
176
     1
 40
1.0
176
     1
 90
        0
176
     1
 62
   257
176
     1
 40
1.0
176
     1
 90
        1
176
     1
 90
        6
176
     1
 90
        2
176
     1
 62
     7
176
     1
 90
        3
176
     1
 90
        0
176
     1
 90
        0
176
     1
290
     0
176
     1
 90
        1
176
     1
 40
0.0
176
     1
 90
        0
176
     1
290
     0
176
     1
290
     1
176
     1
290
     1
176
     1
290
     0
176
     1
290
     0
176
     1
290
     0
176
     1
290
     0
176
     1
290
     0
176
     1
290
     0
176
     1
 90
       50
176
     1
 40
0.0
176
     1
 40
1.0
176
     1
 90
        0
176
     1
 62
    18
420
        0
176
     1
 90
       50
176
     1
 90
        3
176
     1
 62
     5
420
      255
176
     1
290
     0
176
     1
 90
       50
176
     1
 90
       50
176
     1
 90
       50
176
     1
290
     0
176
     1
 90
       50
176
     1
 62
   256
176
     0
 40
1.0
176
     0
 90
        2
176
     1
  1
strokes_ogs.tif
176
     1
290
     0
176
     1
 40
1.0
176
     1
 40
1.0
176
     1
1001
ACAD
1000
AcDbSavedByObjectVersion
1070
     0
  0
DICTIONARYVAR
  5
45
102
{ACAD_REACTORS
330
44
102
}
330
44
100
DictionaryVariables
280
     0
  1
1:1
  0
DICTIONARYVAR
  5
46
102
{ACAD_REACTORS
330
44
102
}
330
44
100
DictionaryVariables
280
     0
  1
3.500000
  0
DICTIONARYVAR
  5
47
102
{ACAD_REACTORS
330
44
102
}
330
44
100
DictionaryVariables
280
     0
  1
acadiso.lin
  0
DICTIONARYVAR
  5
48
102
{ACAD_REACTORS
330
44
102
}
330
44
100
DictionaryVariables
280
     0
  1
STANDARD
  0
DICTIONARYVAR
  5
49
102
{ACAD_REACTORS
330
44
102
}
330
44
100
DictionaryVariables
280
     0
  1
STANDARD
  0
DICTIONARYVAR
  5
4A
102
{ACAD_REACTORS
330
44
102
}
330
44
100
DictionaryVariables
280
     0
  1

  0
DICTIONARYVAR
  5
4B
102
{ACAD_REACTORS
330
44
102
}
330
44
100
DictionaryVariables
280
     0
  1

  0
DICTIONARYVAR
  5
4C
102
{ACAD_REACTORS
330
44
102
}
330
44
100
DictionaryVariables
280
     0
  1
2
  0
DICTIONARYVAR
  5
4D
102
{ACAD_REACTORS
330
44
102
}
330
44
100
DictionaryVariables
280
     0
  1
1
  0
DICTIONARYVAR
  5
4E
102
{ACAD_REACTORS
330
44
102
}
330
44
100
DictionaryVariables
280
     0
  1
0
  0
DICTIONARYVAR
  5
4F
102
{ACAD_REACTORS
330
44
102
}
330
44
100
DictionaryVariables
280
     0
  1
0
  0
DICTIONARY
  5
2ED
102
{ACAD_REACTORS
330
2EB
102
}
330
2EB
100
AcDbDictionary
281
     1
  0
DICTIONARY
  5
2EC
102
{ACAD_REACTORS
330
2EB
102
}
330
2EB
100
AcDbDictionary
281
     1
  3
140577744253280
350
2E6
  3
140577744253296
350
2E7
  3
140577744253312
350
2E8
  3
140577744253328
350
2E9
  3
140577744253344
350
2EA
  0
DICTIONARY
  5
19
330
17
100
AcDbDictionary
280
     1
281
     1
  0
DICTIONARY
  5
3E
330
3D
100
AcDbDictionary
280
     1
281
     1
  3
FBXASSET
360
3F
  0
DICTIONARY
  5
3B
330
3A
100
AcDbDictionary
280
     1
281
     1
  3
FBXASSET
360
3C
  0
DICTIONARY
  5
E
330
C
100
AcDbDictionary
280
     1
281
     1
  3
BUMPTILE
360
F
  3
DIFFUSETILE
360
10
  3
FBXASSET
360
11
  3
OPACITYTILE
360
12
  3
REFLECTIONTILE
360
13
  0
DICTIONARY
  5
55
330
54
100
AcDbDictionary
280
     1
281
     1
  3
ACAD_ROUNDTRIP_2008_TABLESTYLE_CELLSTYLEMAP
360
2E4
  0
XRECORD
  5
2E6
102
{ACAD_REACTORS
330
2EC
102
}
330
2EC
100
AcDbXrecord
280
     1
  1
AcDb_Thumbnail_Schema
102
{ATTRRECORD
341
2E7
  2
AcDbDs::TreatedAsObjectData
280
     1
291
     1
102
ATTRRECORD}
102
{ATTRRECORD
341
2E8
  2
AcDbDs::Legacy
280
     1
291
     1
102
ATTRRECORD}
  2
AcDbDs::ID
280
    10
 91
        8
102
{ATTRRECORD
341
2E9
  2
AcDs:Indexable
280
     1
291
     1
102
ATTRRECORD}
102
{ATTRRECORD
341
2EA
  2
AcDbDs::HandleAttribute
280
     7
282
     1
102
ATTRRECORD}
  2
Thumbnail_Data
280
    15
 91
        0
  0
XRECORD
  5
2E7
102
{ACAD_REACTORS
330
2EC
102
}
330
2EC
100
AcDbXrecord
280
     1
  1
AcDbDs::TreatedAsObjectDataSchema
  2
AcDbDs::TreatedAsObjectData
280
     1
 91
        0
  0
XRECORD
  5
2E8
102
{ACAD_REACTORS
330
2EC
102
}
330
2EC
100
AcDbXrecord
280
     1
  1
AcDbDs::LegacySchema
  2
AcDbDs::Legacy
280
     1
 91
        0
  0
XRECORD
  5
2E9
102
{ACAD_REACTORS
330
2EC
102
}
330
2EC
100
AcDbXrecord
280
     1
  1
AcDbDs::IndexedPropertySchema
  2
AcDs:Indexable
280
     1
 91
        0
  0
XRECORD
  5
2EA
102
{ACAD_REACTORS
330
2EC
102
}
330
2EC
100
AcDbXrecord
280
     1
  1
AcDbDs::HandleAttributeSchema
  2
AcDbDs::HandleAttribute
280
     7
 91
        1
284
     1
  0
XRECORD
  5
3F
102
{ACAD_REACTORS
330
3E
102
}
330
3E
100
AcDbXrecord
280
     1
 70
     1
 90
429727718
  1
D62C5603-E3A1-4AEA-B7FB-FE5D8D0755AF
310
504B03040A0000080000CC70623B3DEE336E79000000790000001B0000006175746F6465736B2D64657369676E2D7061636B6167652E786D6C3C3F786D6C2076657273696F6E3D22312E302220656E636F64696E673D227574662D3822203F3E3C666F726D6174733E3C666F726D61743E687474703A2F2F736368656D612E
310
6175746F6465736B2E636F6D2F64657369676E2D7061636B6167652F323030393C2F666F726D61743E3C2F666F726D6174733E504B0304140006080800CC70623BD486FD9CA0000000F4000000130000005B436F6E74656E745F54797065735D2E786D6C7D8EC10E82300C865F65E91D8A1E8C310C0EEA1BF002731658846E
310
D98AC1B77784ABF1D8FE5FBFBF75BBCE937A534CCEB38643598122B6FEE978D0B0485F9C41B54DDD7D022595594E1A469170414C76A4D9A4D207E29CF43ECE46F218070CC6BECC4078ACAA135ACF422C856C0E68EA1BF5669944DDD7BCDE7B1F8E415D77AECB980613C2E4AC91FC167A2B244592486606FC29C8FD7F045B9A
310
EF7053A7E60B504B0304140006080800CC70623B853B8169EB0000007C01000008000000636F72652E786D6C8D90416EC3201045AF62CDB6C206821CC7C244919D9CA01740401C94182C03558F5F9C3852BBEB6A467FFE9B197D7EFC9E1EC5975982F5AE035262288C535E5B377690E21535501C055FBC8FBF6C503839990E
310
5619041F179FE64D52DE45E362569DD7661365082642A11EB9E920A89B99642953CC8E702F67A9EE7234257977194EC9EAE275C4EABCCF5EAD5940D4AC6F0E35A568B8F43562CD7046CD199FD07E60174276A7BE677B5EADB0E0D14EEFFB6A31321A0D82627C4084204C3F096B71DD52F6819B16635EADF63F509AF53FA164
310
5DDCD1EDDD17164090FCC8732078B56691CB33A85CD7DCC40F504B0304140006080800CC70623B55019EA25F0000007C00000007000000636E782E786D6C4DCB3B0E80201045D1AD90E915ED2CF8AC45050C11660C8261F98AB1B07AC9C97D42D718D865D3E909258CFD00CCE24AC6E326A164D74DC0B4128928FF32603847
310
2BA13128B1252AC747C6BAB984FC68F0B87FE8960A5C09FE86CFB69FBA01504B0304140006080800CC70623BDBABAAF470010000D40300000C0000006662782F636F72652E786D6CC553D16E823014FD95A6AF4B694182CC941A83FA05FB810A9511A125A5257EFE2E82712ECEB8A7F100CD39F7F69E734AF9FADC366850B6
310
AF8DCE7018308C942E4C59EB2AC3DE1D498AD15A706B8CFB56869196ADCAF00863C12B6B7C374385D14E6907A836A59A41D9F7CA615434B0C8705F7CAA5606D23BA8E84F41278B93AC54100640439DE0BDB320004D43C63716C7C399D30917DCFBBA9CD9BA8469F5B156168B24CED3F7248AC8769F27244EB73B92EED8862C
310
B7F13E0C179B3C8F979C8ECD82BBBABDAA2BAC924E9558448CBD9330242CFA08E3154B5651FCC6D215639C8EE5774DBE2B5F6CF2B5768B68963BB5F5588420E442FC700B1139D4CB01F450C1E918227C2E09DF070D8140C84E1E9AAB8F1340832A9CB13130A5F1376A908D57309505ECF2A0DF179C4E9D30F5B239B87E3823
310
7A79C6F31DE1A8A5AEC08474B03C7837EAE4938639B44E5932B833D2C6B6B279CDC613877FA26EE21F4A2A4C63EC7F29A2F301D1F9F7A0E37D145F504B0304140006080800CC70623B9C113CC27E0000009D0000000B0000006662782F636E782E786D6C4DCCDF0A83201C86E15B91DFB94BFB330DD428C8FB886521330DA7
310
6397BF1A1DECE883878F57749FCDA1B7892F1BBC047A23808C7F84D9FA55424E0BE6803A256208E9EF06C84F9B91703228B1C690F78B66B34CD9A5439DF5CF0BFBF65E35BCA1B8D6A5C6F540381E886698B5741C695F9503EBA150A2F8958E3DC3EA0B504B0304140006080800CC70623B7DF2F77C2A010000120200003100
310
00006662782F41393633353835312D344632462D344230382D423046372D3739314545314133324237412F636F72652E786D6C8D51DB8EC22014FC15C2939B0D2DB4B45643319AE817EC0F6041255A68B86CFCFC856D4D76DF7CE190393373060EDB3DC707F856CE6B6B7A480A0C81328395DA5C7B18C3057510EC3873D686
310
3F34088C18550F330C39BB3A1BA7051AAC09CA84841A2BD5020AEF55806078A44B0FFD7053A328440C89E1EFC52486BBB8AA8214A99D789CF9E05200300FC927E4FB4D5B375D43103D5527440FB843077C5AA3F5861C8F645F5787F59E95B390B318B55CE45AA638FAA2957BD7248B390B7A7CC51F9C124149C82B8C378810
310
84AB2F42B7B8DD56F413775B8C5999E9FF4471926F8AA236A1AE96B8B3CC434E5839373893369E1FAF30EA395917409EB7F26AF8801C171837A4A6AC9C89E9F9C9B1A58BA30FD6A5EF5DDDCF894B9AD9B6A59C957943A9FCAE2FD5BC4DFE03504B0304140006080800CC70623BAD7543B64E01000033030000300000006662
310
782F41393633353835312D344632462D344230382D423046372D3739314545314133324237412F636E782E786D6CD593CD6EC32010845F0571AD6CE3D48AD20813A9873E410FBD12D82434182C7EAAE6EDBB2424CD25871E7B41D6EC30B3FA84F9E67BB2E40B4234DE8DB46F1925E094D7C6ED479AD3AE5951B2113C789FEE
310
6C943839C1488B4C05DF079FE72A69D8C96C13AAD6B8631503449F83828872B949AC57D26200B826A308D316B4064D6E46FCDA41C05550DC9E483A00797BFD207EFB092A45DE9514C1BBD22178396BD39D891265658C238DEA00936C654E5E433CB65A26D9F6EDB5EBC14EBF49A45CB856E66048291F6939A9A81BB5C89177
310
38143CA680F4AA299D66A042CEB3354A2684DC9D8D178FE0D9B8B41CAAD720F880EE7EF93C0C18769E099ECC04D5A102C8049A8A05632F4DDF376CF1DE0F6BB65C2F8627B65A33C6BB62177CEBBDAD973006829F89F22E814B54F4BC2BE347F8AA8F681390B50FA73F804400B5F542E796F19FF974E7F78DB802FE05E20750
310
4B0304140006080800CC70623BE75B7789680500003C100000340000006662782F41393633353835312D344632462D344230382D423046372D3739314545314133324237412F6F626A656374732E786D6CAD575B8F9B3818FD2B887D06C22499CB8AA1CA655245D5B455A356FB305264C061D8018C6C3393D95FBFC7600890
310
A4CD5EF210B0B1BFEBF98E3F7B1FF6596ABC522E1296DF9BAE3D320D9A872C4AF2F8DE2CE5CEBA358D0FBEC719939D65A691938CDE9B6ADAF4BD98B3B2D05311DD91329583D9D5FC0F438434A7A611A644887B5384CF34233629258BA878B12322891DEFF6B66BD70BFB62634E8AE781D082709A4B588AF91C528CDA28B73F
310
1C998EEF39EABBEFA97FBD6A7C7E9553F9D3D79FE442923C3C523610337627CB87ABE99D359D4CC6D6E4FACAB5E6ABF9D2726FC6A3C5F56271377BB88362213924694B38DD99FE47C48627A1E7D49F5A8BB5E1A74C0A599ED3B0F21F1E56366B89112D681E218F0915D0D6F17AD41FBA2A369DCF6335D62ABBD39779D5DDD1
310
11D4D8DE3CBB96B2E04FB8202E41051754A1AA8E8F76B4C6DFE810B580B1547F4B84911149794252234D024EF8BBE963A95AE27B3D310A9D5C215C7960FAEE415ED75694C6AFB17BCACA5D99A60A9AA65F217B0BFC53292ACB92BF283FAD0D3621576592CB5BED907C2FA8E9DF794E35E97BEA31BED21FEB401ABB94C44839
310
DCACBF0E1C5DA8DA5B2F4DFFD32AD86F543D9E565E7056502E157C00AD2671CD534549AB752FCA9CDA00677A313F04E51B22FF19E57B300579E3C97EB29F682D92935CEC18CF901B7B54FD8C51F362B56FC72FE0B3C1EAE335EDCCBF5AEC39ADB17DC238973F804BA5E6F6BFE7AF1FB32E523BE9F3BD571418E3631DCA4D48
310
5250CF639223210A9446CA30052EDF057BD35F8329C1ECD84552BF0DC8D18BE7BCE23BFE6BD960AB4A7DE79923A103BEBD80F911CBAA2C60DB19B01CF164A5583B772EE6D3FFA56666CBCDA74DC97724A48F9A58967497E489C4D979006FD7A05E227A1EBDD0F737C623387A9C844D3709995625106D157315F8B8392CD4E0
310
A0B9A720C4BE9829CEF37EA1E13111214D53925356365ADA634861B52519DD27A00AEB808EAF0628E6F435519D446F45CF2C9CF5214F0A15B2F6D06B79DA3EE3CBF7F56780D2F4E7EF73A0F5E5B02A38D07DC852C6B7C1FBB6664213E0C39E3EBA7FF4E1AD23EA2829407C85E586727488B751B2DB9502BC7B228A3FD68B6E
310
A65A22397E690AA8D158D7E404EC8CDA235CC3B7D1898680131CEC2CDF2638C65196279577750F15884AEE19F94199155B92B13297978469D4F8D358DF0AEF7631E28DC8F0D9F437D5D39A83B2231A1D52D543813A824EF8D44BCFF2FA6A31BD1E8DAD87F1CCB526B3879935BF59CDADD5C37479BB1CDD4CA7B3556B516589
310
EF352754B706114D9C885EC9131DE6EFEB43D99AFE2391C2F958179413D7CFEF6B1B6DB1E7600F00DE6E5C67454A339A4BA2E0FBA85ED26F045D454F463DBFCE484C2F90F2E5E3666003662ED8F755951A7D1BECD5B30B550B2785C8E7320B7292A4838DDA71BBC863ED7613CAF659337A3354231D4FF4A182A54904C2898C
310
98B28C4AD0CE056CCF332A80986E571EE9DBC305BB5FEB7E509220A58D25CF042D712A806AC0AD0C657FDEF80D2D9CEAA2EE4D1C76F60BFE74219A06527D6F82DF6412526107381E55E353090704D085B52408A8913C4ED159D79BDA71BB4BC506F4831350EB6F975CD22D69BF7AC49B91A2C0A9DDA3D5CA36AD20FC478E37
310
E61844E2352865EBCB61A275A65283CAAA9DD27703B4102F5AF51EF5F573B75CBB5AD38BC845F7A49F82A0966A49C2E3EA5EA0ECD326CD965F1DB402C6FA8B51A4658C5C5E2EC9E214602E55810345408596591009A82E7E7FFACA19EEA299B14A0081A705CB3296EBC14CDF658DCD336EA6D1136881AAEB87B81AB9EE53D5
310
F5EB8BC8362082DA24122F98680A4E7930C01A0079749CEA14382A0783E5EBA5A10F8C098456A03D6A4AEB6BB881E2513747552A5DB22C7EDAF83BD5528081A365F7FF06504B0304140006080000CC70623B000000000000000000000000350000006662782F41393633353835312D344632462D344230382D423046372D37
310
39314545314133324237412F76657274696365732E62696E504B0304140006080800CC70623BF270F1330600000004000000360000006662782F41393633353835312D344632462D344230382D423046372D3739314545314133324237412F747269616E676C65732E62696E636660600000504B0304140006080000CC7062
310
3B000000000000000000000000370000006662782F41393633353835312D344632462D344230382D423046372D3739314545314133324237412F617474726962757465732E62696E504B0304140006080800CC70623B08DA0BD19000000041010000360000006662782F41393633353835312D344632462D344230382D4230
310
46372D3739314545314133324237412F6469726563746F72792E786D6C858F410AC3201045AF22B36F53E9A60B35CBEEBAE80D244E44489C6234F4F835464A48035D0DF398FF9F8AF63D0E6CC63039F212F8F9020C7D47C6792B21C5FE7403D62A1188E2E60C98D7234A5830286103A55745067B9D86B8A3CF9C7F90C11DE6
310
07FB144396D7B6A82D282E9A152AD114D5EF2CB866EEE831B8EEA07A7BB5A8D7D61A2BAAEB7FD5F70921FF497D00504B0304140006080800CC70623BEDD1DC58FD000000A00100003B0000006662782F41393633353835312D344632462D344230382D423046372D3739314545314133324237412F7265736F75726365732F
310
636F72652E786D6C8D504B6E833010BD0A9A6D65B00922041947112427E8052C33A156828DFCA97AFC9A40A576D7CDCCE87D344F8F9FBFE667F689CE6B6B3A6039850C8DB2A336530731DC4903D95970676DF82583CCC8193B5861107C72362E3BA4AC096842428D1D7107A5F7182053CF7474E0D507CE32973124857FE48B
310
540F3961CEF244279DE03EB81420DB9EAC1384436FA353E879B1B182C7A8C75DA3C7F453DF353A1075D537A7BA6464B8F535A99AE14A9A2BBD90E350DD183B5CFABE3AF262350B1EF4FC9351399401471025A527C218A1E53BAB5A5AB765F5469B96525EACF23FA6B88CFF34456DC2A1DCE36E360F82A5202F42F062ED2BAD
310
579969AFDD8A6F504B010214000A0000080000CC70623B3DEE336E79000000790000001B00000000000000000000000000000000006175746F6465736B2D64657369676E2D7061636B6167652E786D6C504B01021400140006080800CC70623BD486FD9CA0000000F40000001300000000000000000000000000B20000005B
310
436F6E74656E745F54797065735D2E786D6C504B01021400140006080800CC70623B853B8169EB0000007C010000080000000000000000000000000083010000636F72652E786D6C504B01021400140006080800CC70623B55019EA25F0000007C000000070000000000000000000000000094020000636E782E786D6C504B
310
01021400140006080800CC70623BDBABAAF470010000D40300000C00000000000000000000000000180300006662782F636F72652E786D6C504B01021400140006080800CC70623B9C113CC27E0000009D0000000B00000000000000000000000000B20400006662782F636E782E786D6C504B01021400140006080800CC70
310
623B7DF2F77C2A010000120200003100000000000000000000000000590500006662782F41393633353835312D344632462D344230382D423046372D3739314545314133324237412F636F72652E786D6C504B01021400140006080800CC70623BAD7543B64E010000330300003000000000000000000000000000D2060000
310
6662782F41393633353835312D344632462D344230382D423046372D3739314545314133324237412F636E782E786D6C504B01021400140006080800CC70623BE75B7789680500003C10000034000000000000000000000000006E0800006662782F41393633353835312D344632462D344230382D423046372D3739314545
310
314133324237412F6F626A656374732E786D6C504B01021400140006080000CC70623B0000000000000000000000003500000000000000000000000000280E00006662782F41393633353835312D344632462D344230382D423046372D3739314545314133324237412F76657274696365732E62696E504B01021400140006
310
080800CC70623BF270F133060000000400000036000000000000000000000000007B0E00006662782F41393633353835312D344632462D344230382D423046372D3739314545314133324237412F747269616E676C65732E62696E504B01021400140006080000CC70623B0000000000000000000000003700000000000000
310
000000000000D50E00006662782F41393633353835312D344632462D344230382D423046372D3739314545314133324237412F617474726962757465732E62696E504B01021400140006080800CC70623B08DA0BD1900000004101000036000000000000000000000000002A0F00006662782F41393633353835312D344632
310
462D344230382D423046372D3739314545314133324237412F6469726563746F72792E786D6C504B01021400140006080800CC70623BEDD1DC58FD000000A00100003B000000000000000000000000000E1000006662782F41393633353835312D344632462D344230382D423046372D3739314545314133324237412F7265
310
736F75726365732F636F72652E786D6C504B0506000000000E000E0080040000641100000000
  0
XRECORD
  5
3C
102
{ACAD_REACTORS
330
3B
102
}
330
3B
100
AcDbXrecord
280
     1
 70
     1
 90
429727718
  1
30362254-06B7-45E0-A893-8CFA70E3D6BC
310
504B03040A0000080000CC70623B3DEE336E79000000790000001B0000006175746F6465736B2D64657369676E2D7061636B6167652E786D6C3C3F786D6C2076657273696F6E3D22312E302220656E636F64696E673D227574662D3822203F3E3C666F726D6174733E3C666F726D61743E687474703A2F2F736368656D612E
310
6175746F6465736B2E636F6D2F64657369676E2D7061636B6167652F323030393C2F666F726D61743E3C2F666F726D6174733E504B0304140006080800CC70623BD486FD9CA0000000F4000000130000005B436F6E74656E745F54797065735D2E786D6C7D8EC10E82300C865F65E91D8A1E8C310C0EEA1BF002731658846E
310
D98AC1B77784ABF1D8FE5FBFBF75BBCE937A534CCEB38643598122B6FEE978D0B0485F9C41B54DDD7D022595594E1A469170414C76A4D9A4D207E29CF43ECE46F218070CC6BECC4078ACAA135ACF422C856C0E68EA1BF5669944DDD7BCDE7B1F8E415D77AECB980613C2E4AC91FC167A2B244592486606FC29C8FD7F045B9A
310
EF7053A7E60B504B0304140006080800CC70623B1EC5D7A3EB0000007C01000008000000636F72652E786D6C8D90416EC3201045AF82665B6103C6756C6122AB4D4ED00B204C5C94182C03558F5F9C3852BBEB6A467FFE9B197D71FC9E6FE8CBACC17AD7032D0820E3B41FAD9B7A48F1820F808E52ACDEC75F36404ECDA687
310
4D0629A6D5A76597B477D1B89855E747B38B2A041301E95B6E7A08FAD3CCAA50296647B8168BD2573599823EBB0CA76447F43862C7BCCF5EAC59410E4DDD9C7973C2755553CCCFA4C603E3040F1565ED3B1FDE4E432BCA0D9622DAF9795FAF464533826484B498524CD807E51D79ED187F21878E10516EF63F505AC67F42C9
310
BA58B1FDDD071640D2FCC87D2045B96591CB3DA85CB7DCE40F504B0304140006080800CC70623B55019EA25F0000007C00000007000000636E782E786D6C4DCB3B0E80201045D1AD90E915ED2CF8AC45050C11660C8261F98AB1B07AC9C97D42D718D865D3E909258CFD00CCE24AC6E326A164D74DC0B4128928FF32603847
310
2BA13128B1252AC747C6BAB984FC68F0B87FE8960A5C09FE86CFB69FBA01504B0304140006080800CC70623B8C9102E971010000D40300000C0000006662782F636F72652E786D6CC5535B6E833010BC8AE5DF0A6C08340F1947A84D4ED00B38C6A128602363A31CBFCB234A53A551FA553EC09AD9F5CE8C31DB9E9B1AF5CA
310
7695D1198E428A91D2D214952E33ECDD315861B4E5CC1AE3BE9561A445A3323CC098B3D21ADFCE9034DA29ED00D5A6503328BA4E398C640D8B0C77F253352214DE4145770A5B214FA2546114020D759C75CE8200340D19DE981F0F6746269C33EFAB6266AB02A655C74A59CCF365BADC27CB5D902ED22848F6340DF238A141
310
BE88E2F57B92BFEDF23523433367AE6A2EEAA455C2A902F398D2751045018D3FA264435F3771F242571B4A1919CA6F9A7C5B3CD9E42BED16F12C776AEB308F40C848FC700B1139D4891EF410CEC810227CC6846F8386402064270EF5C5C709A05E49676C024C61FC95EA45ED154CA5211D1FF4FB8291A913A68E9B83EBBB33
310
E2A7673CDE118E5AE8124C0807CB8377834E366998436B950D7A7746DAD846D4CFD978E0F04FD455FC5D49D2D4C6FE9722321F10997F0F32DC47FE05504B0304140006080800CC70623BFFEA85907E0000009D0000000B0000006662782F636E782E786D6C4DCCD10A83201886E15B91FFDC95D95A811AB6F23E625948A6C3
310
E9D8E5AF46073BFAE0E1E365ED67B3E8ADC3CB78C7815C7240DA3DFC64DCC221C519D7805AC182F7F1EF06C88D9BE6703008B6049F9E274D7A1E938DBB5AE3D6131B2589BA0D3D965551E0B2EA732C9B9A624AAEB41E3A557677029960D9AFB4EF11165F504B0304140006080800CC70623B4FEEA4082C0100001202000031
310
0000006662782F39464131463745442D413632322D343644302D413938332D3331353338454246344243312F636F72652E786D6C8D515B6EC32010BC0AE2AB55850DD871ED0813254D72825EC00192A2C460F1A872FC42ED48ED5F7E00CDCECCCEB26C731F6FE05B39AFADE921293004CA082BB5B9F43086336A21D870E6AC
310
0D7F68109861543DCC30E4ECE26C9C164858139409093556AA051CBC570102714B8F1E7AF1A5C6A11862480C7F2DA6415C878B2A4891CA89C7990F2E050073937C42DE1DB7E4F87ED8A36D4329AA9B3D46DBAEAD504556557BD81DEBDD0761E52CE42C462D17B996298E3E6BE59E35C962CE821E1FF18553435012728A7187
310
0841987E927A8D9B35ADDF70BBC6989599FE4F1427F9A4286A132ABAC49D651EF234CD5CE04CDA78BA3DC2A8FB645D00B9DF8B57E215725C60BCA2A463E54C4CE327C7A65E1C7DB02E7DEFCBF594B864C5CA6CDBD49C957943E9FA5D5FBAF336F90F504B0304140006080800CC70623BAD7543B64E01000033030000300000
310
006662782F39464131463745442D413632322D343644302D413938332D3331353338454246344243312F636E782E786D6CD593CD6EC32010845F0571AD6CE3D48AD20813A9873E410FBD12D82434182C7EAAE6EDBB2424CD25871E7B41D6EC30B3FA84F9E67BB2E40B4234DE8DB46F1925E094D7C6ED479AD3AE5951B2113C
310
789FEE6C943839C1488B4C05DF079FE72A69D8C96C13AAD6B8631503449F83828872B949AC57D26200B826A308D316B4064D6E46FCDA41C05550DC9E483A00797BFD207EFB092A45DE9514C1BBD22178396BD39D891265658C238DEA00936C654E5E433CB65A26D9F6EDB5EBC14EBF49A45CB856E66048291F6939A9A81BB5
310
C8917738143CA680F4AA299D66A042CEB3354A2684DC9D8D178FE0D9B8B41CAAD720F880EE7EF93C0C18769E099ECC04D5A102C8049A8A05632F4DDF376CF1DE0F6BB65C2F8627B65A33C6BB62177CEBBDAD973006829F89F22E814B54F4BC2BE347F8AA8F681390B50FA73F804400B5F542E796F19FF974E7F78DB802FE05
310
E207504B0304140006080800CC70623B16AB87BA640500003C100000340000006662782F39464131463745442D413632322D343644302D413938332D3331353338454246344243312F6F626A656374732E786D6CAD575B6FA33818FD2B887DE6924B3BED8A326A92B68A663B534DD4D13E548A0C38942D60649B369D5FBFC7
310
600890A493BDE42160637FD7F31D7FF63E6FB3D478A55C242CBF3247B66B1A340F5994E4F19559CA8D75611A9F7D8F33263BCB4C232719BD32D5B4E97B316765A1A722BA21652A07B3B7B33F0D11D29C9A46981221AE4C113ED38CD8A4942CA2E2C58E882476BCD9DA23BB5ED8171B73523C0F841684D35CC252CCE79062D4
310
468DFA43D7747CCF51DF7D4FFDEB5593E3AB9CCA9FBEFE241792E4E19EB28198C968BAB8199F5D5A67D3E9C49A9E8F47D6EC76B6B0469F26EEFC7C3EBFBCBEB98462213924694B38DD98FE1D62C393D073EA4FADC5DAF04326852CCF6958F90F0F2B9BB5C48816348F90C7840A68EB78EDF68723159BCEE7891A6B95DDE9D3
310
BCEAEEE8086A6C6F9E5D4B59F0175C10A7A0820BAA5055C7473B5AE3CFDD452D602CD5DF12616444529E90D448938013FE6EFA58AA96F85E4F8C42275708571E98FE6827AF6B2B4AE3D7D83D64E5A64C53054DD3AF90BD06FEA9149565C94FCA0F6B834DC85599E4F2423B24DF0B6AFA979E534DFA9E7A4CC6FA631D486393
310
921829879BF5D781A373557BCB85E97FB90DB62B558F8795179C15944B051F40AB495CF35451D26A4727654E6D8033BD98EF82F21D91FF8AF2DD9982BCF1643BDD4EB516C9492E368C67C88DED563FC36D5EACF66DFF057C3658BDBFA69DF9578B3DA735B64F18C7F20770A9D45CFCF7FCF563D6456A277DBEF78A02637CA2
310
43B90A490AEAB94F72244481D24819A6C0E59B606BFA4B3025981DBB48EAB701D97BF19C577CC77F2D1B6C55A9EF3C732474C0B727303F625995056C3B02963D9EAC146BE78EC5FCEC7FA999EBC5EACBAAE41B12D27B4D2C0BBA49F244E2ECDC81B76B502F113D8F5EE8FB1BE3111CDD4FC2AA9B844CAB1288B68AB90A7CDC
310
1C166AB0D3DC5310625FCC14E779BFD0709F8890A629C9292B1B2DED31A4B0DA928CEE135085754027E3018A397D4D5427D15BD1330B677DC8934285AC3DF45A9EB68FF8F2B8FC0A509AFEECFD0FF2DE25CC6047F7214B195F07EFEB9A094D800F7BFAE8FED187B78EA8A3A400F115961BCAD1215E47C966530AF0EE8128FE
310
58CEBB996A8964FFA529A046635D9353B0336A8F700DDF46271A024E70B0B37C9DE01847591E54DED53D54202AB947E4076556AC49C6CA5C9E1226B7F1A7B1BE15DEED62C41B91E1B3E9AFAAA735036547343A925075041DF0A9979E893B391F8FCFA6967B3EFB644DCF6E5CEBFAE272625DCC6FAF3FB93793C5F90CE1EF57
310
407342756B10D1C489E8953CD1617E5CEECAD6F4EF8914CE5D5D504E5C3F1F9736DA62CFC11E00BCDDB8CC8A9466349744C1F75EBDA4DF09BA8A9E8C7A7E9991989E20E5DBDD6A6003664ED8F7A04A8DBE0DF6EAD9B9AA858342E47399053949D2C146EDB85DE4B176BB0965FBAC19BD19AA918E27FA50C1D22402E144464C
310
59462568E704B6E71915404CB72B8FF4EDE184DDAF753F284990D2C6926782963815403548A70C657FDEF80D2D9CEAA2AE4C1C76F60BFE74219A06527D6582DF6412526107381E55E353090704D085B52408D0933C4ED159D79BDA71BB4BC506F4831350EB6F979CD22D69BF7AC49B91A2C0A9DDA3D5CA36AD20FC478E37E6
310
1844E2352865EBCB6EA275A652E3836BE04EFB400BF1A2556F515F1FBB35B2AB35BD889C744FFA1004B5544B121E57F70215746DD2F5E2C1412B602CBF19455AC6C8E5E9922C4E01E65215385004546899059180EAFCF7A707CE7017CD8CDB0410789AB32C63B91E5CEBBBACB17AC6CD347A022D5075FD106377347AAABA7E
310
7D11590744509B44E205134DC1290F06580320F78E537D3D73540E06CB970B431F185308AD40BBD794D6D77003C5A36E8EAA54BA64597CD8F83BD552A080A365F7FF06504B0304140006080000CC70623B000000000000000000000000350000006662782F39464131463745442D413632322D343644302D413938332D3331
310
353338454246344243312F76657274696365732E62696E504B0304140006080800CC70623BF270F1330600000004000000360000006662782F39464131463745442D413632322D343644302D413938332D3331353338454246344243312F747269616E676C65732E62696E636660600000504B0304140006080000CC70623B
310
000000000000000000000000370000006662782F39464131463745442D413632322D343644302D413938332D3331353338454246344243312F617474726962757465732E62696E504B0304140006080800CC70623B08DA0BD19000000041010000360000006662782F39464131463745442D413632322D343644302D413938
310
332D3331353338454246344243312F6469726563746F72792E786D6C858F410AC3201045AF22B36F53E9A60B35CBEEBAE80D244E44489C6234F4F835464A48035D0DF398FF9F8AF63D0E6CC63039F212F8F9020C7D47C6792B21C5FE7403D62A1188E2E60C98D7234A5830286103A55745067B9D86B8A3CF9C7F90C11DE607
310
FB144396D7B6A82D282E9A152AD114D5EF2CB866EEE831B8EEA07A7BB5A8D7D61A2BAAEB7FD5F70921FF497D00504B0304140006080800CC70623B0D6EF93BFE000000A00100003B0000006662782F39464131463745442D413632322D343644302D413938332D3331353338454246344243312F7265736F75726365732F63
310
6F72652E786D6C8D50596E833010BD0A9ADFCA60B334011947A8694ED00B586642AC041B79A97AFC9A40A5F6AF3F33A3B7689E1E3F7DCD8FEC139DD7D6F4C0720A191A65476DA61E62B892236427C19DB5E1970C322367EC618541F0C9D9B8EC90B226A009093576C41D94DE63804C3DD2D18357379C652E63480A7FCF17A9
310
EE72C29CE5894E3AC17D702940B63D59270887DE46A7D0F36263058F518FBB468FE9A7BE6A7420864373B8D4873369AA8691FA421B3294352543C5CAF65C0F6FEF43CB8BD52C78D0F34F46E550061C419494B6843142CB0F5677F4B52BEB177AEC28E5C52AFF638ACBF84F53D42654E51E77B379102C05791282176B5F693D
310
CB4C7BED567C03504B010214000A0000080000CC70623B3DEE336E79000000790000001B00000000000000000000000000000000006175746F6465736B2D64657369676E2D7061636B6167652E786D6C504B01021400140006080800CC70623BD486FD9CA0000000F40000001300000000000000000000000000B20000005B
310
436F6E74656E745F54797065735D2E786D6C504B01021400140006080800CC70623B1EC5D7A3EB0000007C010000080000000000000000000000000083010000636F72652E786D6C504B01021400140006080800CC70623B55019EA25F0000007C000000070000000000000000000000000094020000636E782E786D6C504B
310
01021400140006080800CC70623B8C9102E971010000D40300000C00000000000000000000000000180300006662782F636F72652E786D6C504B01021400140006080800CC70623BFFEA85907E0000009D0000000B00000000000000000000000000B30400006662782F636E782E786D6C504B01021400140006080800CC70
310
623B4FEEA4082C0100001202000031000000000000000000000000005A0500006662782F39464131463745442D413632322D343644302D413938332D3331353338454246344243312F636F72652E786D6C504B01021400140006080800CC70623BAD7543B64E010000330300003000000000000000000000000000D5060000
310
6662782F39464131463745442D413632322D343644302D413938332D3331353338454246344243312F636E782E786D6C504B01021400140006080800CC70623B16AB87BA640500003C1000003400000000000000000000000000710800006662782F39464131463745442D413632322D343644302D413938332D3331353338
310
454246344243312F6F626A656374732E786D6C504B01021400140006080000CC70623B0000000000000000000000003500000000000000000000000000270E00006662782F39464131463745442D413632322D343644302D413938332D3331353338454246344243312F76657274696365732E62696E504B01021400140006
310
080800CC70623BF270F133060000000400000036000000000000000000000000007A0E00006662782F39464131463745442D413632322D343644302D413938332D3331353338454246344243312F747269616E676C65732E62696E504B01021400140006080000CC70623B0000000000000000000000003700000000000000
310
000000000000D40E00006662782F39464131463745442D413632322D343644302D413938332D3331353338454246344243312F617474726962757465732E62696E504B01021400140006080800CC70623B08DA0BD190000000410100003600000000000000000000000000290F00006662782F39464131463745442D413632
310
322D343644302D413938332D3331353338454246344243312F6469726563746F72792E786D6C504B01021400140006080800CC70623B0D6EF93BFE000000A00100003B000000000000000000000000000D1000006662782F39464131463745442D413632322D343644302D413938332D3331353338454246344243312F7265
310
736F75726365732F636F72652E786D6C504B0506000000000E000E0080040000641100000000
  0
XRECORD
  5
F
102
{ACAD_REACTORS
330
E
102
}
330
E
100
AcDbXrecord
280
     1
270
     1
271
     1
  0
XRECORD
  5
10
102
{ACAD_REACTORS
330
E
102
}
330
E
100
AcDbXrecord
280
     1
270
     1
271
     1
  0
XRECORD
  5
11
102
{ACAD_REACTORS
330
E
102
}
330
E
100
AcDbXrecord
280
     1
 70
     0
 90
1673772943
  1
ECE7A1D2-D628-4531-984C-D00F80459256
310
504B03040A0000080000CC70623B3DEE336E79000000790000001B0000006175746F6465736B2D64657369676E2D7061636B6167652E786D6C3C3F786D6C2076657273696F6E3D22312E302220656E636F64696E673D227574662D3822203F3E3C666F726D6174733E3C666F726D61743E687474703A2F2F736368656D612E
310
6175746F6465736B2E636F6D2F64657369676E2D7061636B6167652F323030393C2F666F726D61743E3C2F666F726D6174733E504B0304140006080800CC70623BD486FD9CA0000000F4000000130000005B436F6E74656E745F54797065735D2E786D6C7D8EC10E82300C865F65E91D8A1E8C310C0EEA1BF002731658846E
310
D98AC1B77784ABF1D8FE5FBFBF75BBCE937A534CCEB38643598122B6FEE978D0B0485F9C41B54DDD7D022595594E1A469170414C76A4D9A4D207E29CF43ECE46F218070CC6BECC4078ACAA135ACF422C856C0E68EA1BF5669944DDD7BCDE7B1F8E415D77AECB980613C2E4AC91FC167A2B244592486606FC29C8FD7F045B9A
310
EF7053A7E60B504B0304140006080800CC70623BD9DDAED0EC0000007C01000008000000636F72652E786D6C8D90416EC3201045AF82665B61836D9CD8C2444DD39CA01740405C94182C03558F5F9C3852BBEB6A467FFE9B197D7EF89E6EE8CB2CC17A37002D0820E394D7D68D03A478C17B4007C117EFE32F1B20272733C0
310
2A83E0E3E2D3BC49CABB685CCCAAF3DA6CA20CC14440EA969B0182FA34932C648AD911AEC52CD5558EA6A0CF2EC329598D1E47ACCEFBECC59A050463A7EA5833865FEBDD0E37353BE3EE8DBDE3F6786A48D375FBF6CC78B9C282473B3DEFABC5C86834888A900E538A49F5419B9EB47DD5BC907D4F082F57FB1F28CDFA9F50
310
B22ED6D5F6EE030B20687EE43E10BC5CB3C8E51E54AE6B6EE207504B0304140006080800CC70623B55019EA25F0000007C00000007000000636E782E786D6C4DCB3B0E80201045D1AD90E915ED2CF8AC45050C11660C8261F98AB1B07AC9C97D42D718D865D3E909258CFD00CCE24AC6E326A164D74DC0B4128928FF326038
310
472BA13128B1252AC747C6BAB984FC68F0B87FE8960A5C09FE86CFB69FBA01504B0304140006080800CC70623BA24EB22D72010000D40300000C0000006662782F636F72652E786D6CC5535B6E833010BC8AE5DF0A6C5E49888CA3A6694ED00B38E05014B091B1518EDFE511A5A9D228FD2A1F60CDEC7A67C6986DCE4D8D7A
310
69BA4AAB0C073EC548AA5C17952A33ECECD15B61B4E1CC686DBF9561A44423333CC098B3D268D7CE50AE9595CA02AA74216750749DB418E5352C32DCE59FB211BE70162ABA93DF8AFC244AE9073ED050C759670D0840D390E18DF9F1706664C23973AE2A66B62A605A75ACA4C13C4976E1364A12EF355A2EBD384AF65EFA96
310
BC7B8BED2EA6719AAE16FB8491A199335B351775B991C2CA02F390D2D40B028F861F41BCA68B7518BFD0D59A524686F29B26D7164F36B94AD9289CE54E6D1DE6010819891F6E21228B3AD1831EC219194284CF98F06DD01008846CC5A1BEF83801D4CBDC6A1303536877A57A513B0953A94FC707FDBE6064EA84A9E3E6E0FA
310
EE8CF0E9198F7784A316AA0413C2C2F2E0ECA0934D1AE6D05A69BCDE9E91D2A611F573361E38FC1375157F5752AE6B6DFE4B11990F88CCBF0719EE23FF02504B0304140006080800CC70623B408A7D3B7C0000009D0000000B0000006662782F636E782E786D6C4DCCD10A83201886E15B91FFDC552A92A0064DBC8F581632
310
D3703A76F9ABD1C18E3E78F878E5F0D9027ABBFCF2292AE86E2D20171F69F6715550CB827B40839639A5F2770314A7CD293819B45C73AAFB45B35BA61ACAA1C1C7E7855C58C15BC331339661262CC762340413D68D77DA5B42298546CBE6573AF60CEB2F504B0304140006080800CC70623B449FB9BD290100001202000031
310
0000006662782F36394639363044362D344446342D343946362D394244322D3234314243333846323333332F636F72652E786D6C8D515B6EC32010BC0AE22B55850D98B871848994463E412FE002495162B07854397EA176A4F62F3F2C9A9D991D587EB84F37F0AD7D30CEF6905418026DA553C65E7A98E219ED203808EE9D
310
8B7F6810D871D23D2C3014FCE25D9A57483A1BB58D19B54EE9151C43D0110279CB971E06F9A5A7B11A53CC8C70ADE6515EC78BAE4895DB992778883E0700CB907242D17643D7E2538BD869608875438BBAE38922CAC8F1BDD90DB4691A5E2F42C153326A951B95E398B3D1FE599322163C9AE9115F7A3D46ADA0A018778810
310
84E907617BDCEE297BC5BB3DC6BC2EF47FA234AB2745C9D8D8D035EE220B50105E2F0DC1954B9FB747187D9F9D8FA0CCDB042D5FA0C015C65B42DF78BD10F3F3B363CB56C7109DCFDFBBB97E662ED92EB62D13BC2E1BCAE5777DB9966D8A1F504B0304140006080800CC70623BAD7543B64E01000033030000300000006662
310
782F36394639363044362D344446342D343946362D394244322D3234314243333846323333332F636E782E786D6CD593CD6EC32010845F0571AD6CE3D48AD20813A9873E410FBD12D82434182C7EAAE6EDBB2424CD25871E7B41D6EC30B3FA84F9E67BB2E40B4234DE8DB46F1925E094D7C6ED479AD3AE5951B2113C789FEE
310
6C943839C1488B4C05DF079FE72A69D8C96C13AAD6B8631503449F83828872B949AC57D26200B826A308D316B4064D6E46FCDA41C05550DC9E483A00797BFD207EFB092A45DE9514C1BBD22178396BD39D891265658C238DEA00936C654E5E433CB65A26D9F6EDB5EBC14EBF49A45CB856E66048291F6939A9A81BB5C89177
310
38143CA680F4AA299D66A042CEB3354A2684DC9D8D178FE0D9B8B41CAAD720F880EE7EF93C0C18769E099ECC04D5A102C8049A8A05632F4DDF376CF1DE0F6BB65C2F8627B65A33C6BB62177CEBBDAD973006829F89F22E814B54F4BC2BE347F8AA8F681390B50FA73F804400B5F542E796F19FF974E7F78DB802FE05E20750
310
4B0304140006080800CC70623B8D05915C650500003B100000340000006662782F36394639363044362D344446342D343946362D394244322D3234314243333846323333332F6F626A656374732E786D6CAD575B6FA33814FE2B887D06429276DA1565D4266D158D3A339A6846FB502932E050B66023DB74D2FDF5FB190C01
310
9276B2973C046C8ECFF53B17071F77456EBD502133CEAE6CDF9DD81665314F32965ED995DA3A17B6F5310C04E7AA47665B8C14F4CAD6DB7618A48257A5D94AE89654B91AEDDEDDFC61C998326A5B714EA4BCB265FC440BE2924AF184CA6737218AB8E976E7FA6E4338649B0A523E8D98964450A6A029F619B8588D52FE7039
310
B1BD30F0F4F730D0FF866AF6369557DB33949F31A9088B0F848DD8CCFCF9F2767A76E99CCDE733677E3EF59D9BBB9BA5E37F984D16E78BC5E5F5ED25044B25C0C96822E8D60EEFE11B91C581D77CEA34368A1F5329E68CD1B8B61F16D63A1B8E092D294B10C78C4A48EB593D192E7DED9BDEE7995E1B91FDEDD3ACEA9FE831
310
6A756F9F7D4D79F4274C90A7A04248AA51D5F8C718DAE06FB2F75AC4796EBE65D22A88A22223B995679120E2D50E41AA49C260C046A35368846B0BECD0DFF3EBEB8AD4F835768F69B9ADF25C43D30E6B646F807FAA64AD59F61715C7A54127C4AACA98BA3006A9D792DAE165E0D59B61A01FB3A9F9D838D2DAE62445C86166
310
F37564E842E7DE6A69879FEEA2DD5AE7E371E1A5E025154AC307D06A03D73EB5978C58FFA4C8E9033066E0F3BD53BEC1F39F91BE7B55103791EDE6BBB991A2046172CB4581D8B893FA674DDA17A77B3B7C413D1B511FD2743BFF8A38F03A658705E3ADF8015C3A3417FF3D7E439FF591DA0B5F18BC20C1B8981957AE6392A3
310
F43C640C01D1A0B4728E2DD4F26DB4B3C3152A252A3B4E913CEC1C72F012782FF88EFF8637AA552DBEF76408E8A8DE9E50F9E1CB3A2DA0DB1B6039A893B56063DC5B3E3FFB5F72E67AB9FEB4AEC496C4F4C1149625DD662C53E89D7BF0F6151A046260D1337DFDC94502430F83B0EE07A130A224BCAD7DAE1D9FB6CD422FF6
310
920702629C4BB9AE79C12F243C6432A6794E18E5552BA56B431AAB5D91317302B2B071E86C3A42B1A02F999E24061403B5D0EB639195DA655DD3EBEAB4FB862DDF579F014AD0E73C22F99E28DA57FB98E75C6CA2D74D53086D600F4786E0FE3144B771A8A7B900F03594DB8A633CBC49B2EDB69228BB479CF863B5E807AAAB
310
23872F6DFEB4129B949CA33823F58830E86D65621E10047D9DB34D862E8EAC3C2ABC2F7B2C40D67CDFE01F5545B92105AF983AC54D93D69E56FB8E797F88913F898A9FEC705D3F9D1B54EC8426FB500D40A03BD0119B06E1B95DDC7EB8F6975367793EBD70E66733DFB9BC982F9CE564727731999F5D4ECFCE3B8D6A4DC2A0
310
6D50FD148437D110834A64C6CDDF57FBACB5C307A2A477DFE4939736CFEF2B175371E0E10CF0DD1D5C15654E0BCA14D1E87DD02FF93782A162C0A3D95F1524A52770F972BF1EE9809D13CE7DD599467F8ECE9ADD85CE85A34CD45355448C64F9E8A031DC2D596ACC6E5DD93D9B82DE2EF5CAF81363A8E47996A0DE24564A79
310
4115AACE09C55E14540231FDA13C319787134EBF34E3A022514E5B4D9E0826E25C02D5805B15ABE1BEF51B26383D445DD9E875EE33FE4C22DA16427D65A3BCA92CA6D28DD01DF5DC53330704308475351050232CCD31583787BA75774AFB06E5070DD0C8EF484E19968C5D83BA5B90B244D31E54D55A372320FE4786B7EA58
310
44E135AA5467CB7EA333A61683CC6A8C3257034C10CF46F40EF9F5BE59BE5BD30C3C72D235E95D10345C1D45445A5F0BB47E46A5EBE5570F9380B5FA629579952296A773720405982B9DE04011506178964401AA8BDF1FBF0A8EAB6861DD6580C0E38217056766716DAEB2D6FA0917D3E4116581EADB879C4E7CFFB11EFACD
310
3D641311495D92C8676CB409A72D18610D803CE8A626049E8EC1887CB5B44CC39883690DDA8399B4B9855B481E7D71D4A9D22F96E5BB73BF5793020C02137BF837504B0304140006080000CC70623B000000000000000000000000350000006662782F36394639363044362D344446342D343946362D394244322D32343142
310
43333846323333332F76657274696365732E62696E504B0304140006080800CC70623BF270F1330600000004000000360000006662782F36394639363044362D344446342D343946362D394244322D3234314243333846323333332F747269616E676C65732E62696E636660600000504B0304140006080000CC70623B0000
310
00000000000000000000370000006662782F36394639363044362D344446342D343946362D394244322D3234314243333846323333332F617474726962757465732E62696E504B0304140006080800CC70623B08DA0BD19000000041010000360000006662782F36394639363044362D344446342D343946362D394244322D
310
3234314243333846323333332F6469726563746F72792E786D6C858F410AC3201045AF22B36F53E9A60B35CBEEBAE80D244E44489C6234F4F835464A48035D0DF398FF9F8AF63D0E6CC63039F212F8F9020C7D47C6792B21C5FE7403D62A1188E2E60C98D7234A5830286103A55745067B9D86B8A3CF9C7F90C11DE607FB14
310
4396D7B6A82D282E9A152AD114D5EF2CB866EEE831B8EEA07A7BB5A8D7D61A2BAAEB7FD5F70921FF497D00504B0304140006080800CC70623BCA768048FE000000A00100003B0000006662782F36394639363044362D344446342D343946362D394244322D3234314243333846323333332F7265736F75726365732F636F72
310
652E786D6C8D50596E833010BD0A9ADFCA60D600328E9AA639412F609909B1126CE4A5EAF16B0295DABFFECC8CDEA2797AECF8353F924FB44E193D409E5248504B332A3D0D10FC95B4901C39B3C6F85F3248B49871801506CE266BC2B243D2688FDA47549B11775038871E12F988C7004EDE7016A9083E2ADC3D5D84BC8B09
310
D33C8D74D471E6BC8D0192EDC93A815B742658898E651BCB59086ADC356A8C3FD555A1055ED7E7E254D615792D0F075295F585746FF53B694EE78A565DD736979A65AB9933AFE69F8CD2A2F038022F28ED489E135A7CE4554F9BBEA85E68DB53CAB255FEC71496F19FA6A0B42F8B3DEE6673C0F318E4497096AD7DC5F52C33
310
EEB55BFE0D504B010214000A0000080000CC70623B3DEE336E79000000790000001B00000000000000000000000000000000006175746F6465736B2D64657369676E2D7061636B6167652E786D6C504B01021400140006080800CC70623BD486FD9CA0000000F40000001300000000000000000000000000B20000005B436F
310
6E74656E745F54797065735D2E786D6C504B01021400140006080800CC70623BD9DDAED0EC0000007C010000080000000000000000000000000083010000636F72652E786D6C504B01021400140006080800CC70623B55019EA25F0000007C000000070000000000000000000000000095020000636E782E786D6C504B0102
310
1400140006080800CC70623BA24EB22D72010000D40300000C00000000000000000000000000190300006662782F636F72652E786D6C504B01021400140006080800CC70623B408A7D3B7C0000009D0000000B00000000000000000000000000B50400006662782F636E782E786D6C504B01021400140006080800CC70623B
310
449FB9BD290100001202000031000000000000000000000000005A0500006662782F36394639363044362D344446342D343946362D394244322D3234314243333846323333332F636F72652E786D6C504B01021400140006080800CC70623BAD7543B64E010000330300003000000000000000000000000000D20600006662
310
782F36394639363044362D344446342D343946362D394244322D3234314243333846323333332F636E782E786D6C504B01021400140006080800CC70623B8D05915C650500003B10000034000000000000000000000000006E0800006662782F36394639363044362D344446342D343946362D394244322D32343142433338
310
46323333332F6F626A656374732E786D6C504B01021400140006080000CC70623B0000000000000000000000003500000000000000000000000000250E00006662782F36394639363044362D344446342D343946362D394244322D3234314243333846323333332F76657274696365732E62696E504B010214001400060808
310
00CC70623BF270F13306000000040000003600000000000000000000000000780E00006662782F36394639363044362D344446342D343946362D394244322D3234314243333846323333332F747269616E676C65732E62696E504B01021400140006080000CC70623B00000000000000000000000037000000000000000000
310
00000000D20E00006662782F36394639363044362D344446342D343946362D394244322D3234314243333846323333332F617474726962757465732E62696E504B01021400140006080800CC70623B08DA0BD190000000410100003600000000000000000000000000270F00006662782F36394639363044362D344446342D
310
343946362D394244322D3234314243333846323333332F6469726563746F72792E786D6C504B01021400140006080800CC70623BCA768048FE000000A00100003B000000000000000000000000000B1000006662782F36394639363044362D344446342D343946362D394244322D3234314243333846323333332F7265736F
310
75726365732F636F72652E786D6C504B0506000000000E000E0080040000621100000000
  0
XRECORD
  5
12
102
{ACAD_REACTORS
330
E
102
}
330
E
100
AcDbXrecord
280
     1
270
     1
271
     1
  0
XRECORD
  5
13
102
{ACAD_REACTORS
330
E
102
}
330
E
100
AcDbXrecord
280
     1
270
     1
271
     1
  0
CELLSTYLEMAP
  5
2E4
102
{ACAD_REACTORS
330
55
102
}
330
55
100
AcDbCellStyleMap
 90
        3
300
CELLSTYLE
  1
TABLEFORMAT_BEGIN
 90
        5
170
     1
 91
        0
 92
    32768
 62
   257
 93
        1
300
CONTENTFORMAT
  1
CONTENTFORMAT_BEGIN
 90
        0
 91
        0
 92
      512
 93
        0
300

 40
0.0
140
1.0
 94
        5
 62
     0
340
23
144
6.0
309
CONTENTFORMAT_END
171
     1
301
MARGIN
  1
CELLMARGIN_BEGIN
 40
1.5
 40
1.5
 40
1.5
 40
1.5
 40
4.5
 40
4.5
309
CELLMARGIN_END
 94
        6
 95
        1
302
GRIDFORMAT
  1
GRIDFORMAT_BEGIN
 90
        0
 91
        1
 62
     0
 92
       -2
340
26
 93
        0
 40
1.125
309
GRIDFORMAT_END
 95
        2
302
GRIDFORMAT
  1
GRIDFORMAT_BEGIN
 90
        0
 91
        1
 62
     0
 92
       -2
340
26
 93
        0
 40
1.125
309
GRIDFORMAT_END
 95
        4
302
GRIDFORMAT
  1
GRIDFORMAT_BEGIN
 90
        0
 91
        1
 62
     0
 92
       -2
340
26
 93
        0
 40
1.125
309
GRIDFORMAT_END
 95
        8
302
GRIDFORMAT
  1
GRIDFORMAT_BEGIN
 90
        0
 91
        1
 62
     0
 92
       -2
340
26
 93
        0
 40
1.125
309
GRIDFORMAT_END
 95
       16
302
GRIDFORMAT
  1
GRIDFORMAT_BEGIN
 90
        0
 91
        1
 62
     0
 92
       -2
340
26
 93
        0
 40
1.125
309
GRIDFORMAT_END
 95
       32
302
GRIDFORMAT
  1
GRIDFORMAT_BEGIN
 90
        0
 91
        1
 62
     0
 92
       -2
340
26
 93
        0
 40
1.125
309
GRIDFORMAT_END
309
TABLEFORMAT_END
  1
CELLSTYLE_BEGIN
 90
        1
 91
        1
300
_TITLE
309
CELLSTYLE_END
300
CELLSTYLE
  1
TABLEFORMAT_BEGIN
 90
        5
170
     1
 91
        0
 92
        0
 62
   257
 93
        1
300
CONTENTFORMAT
  1
CONTENTFORMAT_BEGIN
 90
        0
 91
        0
 92
      512
 93
        0
300

 40
0.0
140
1.0
 94
        5
 62
     0
340
23
144
4.5
309
CONTENTFORMAT_END
171
     1
301
MARGIN
  1
CELLMARGIN_BEGIN
 40
1.5
 40
1.5
 40
1.5
 40
1.5
 40
4.5
 40
4.5
309
CELLMARGIN_END
 94
        6
 95
        1
302
GRIDFORMAT
  1
GRIDFORMAT_BEGIN
 90
        0
 91
        1
 62
     0
 92
       -2
340
26
 93
        0
 40
1.125
309
GRIDFORMAT_END
 95
        2
302
GRIDFORMAT
  1
GRIDFORMAT_BEGIN
 90
        0
 91
        1
 62
     0
 92
       -2
340
26
 93
        0
 40
1.125
309
GRIDFORMAT_END
 95
        4
302
GRIDFORMAT
  1
GRIDFORMAT_BEGIN
 90
        0
 91
        1
 62
     0
 92
       -2
340
26
 93
        0
 40
1.125
309
GRIDFORMAT_END
 95
        8
302
GRIDFORMAT
  1
GRIDFORMAT_BEGIN
 90
        0
 91
        1
 62
     0
 92
       -2
340
26
 93
        0
 40
1.125
309
GRIDFORMAT_END
 95
       16
302
GRIDFORMAT
  1
GRIDFORMAT_BEGIN
 90
        0
 91
        1
 62
     0
 92
       -2
340
26
 93
        0
 40
1.125
309
GRIDFORMAT_END
 95
       32
302
GRIDFORMAT
  1
GRIDFORMAT_BEGIN
 90
        0
 91
        1
 62
     0
 92
       -2
340
26
 93
        0
 40
1.125
309
GRIDFORMAT_END
309
TABLEFORMAT_END
  1
CELLSTYLE_BEGIN
 90
        2
 91
        1
300
_HEADER
309
CELLSTYLE_END
300
CELLSTYLE
  1
TABLEFORMAT_BEGIN
 90
        5
170
     1
 91
        0
 92
        0
 62
   257
 93
        1
300
CONTENTFORMAT
  1
CONTENTFORMAT_BEGIN
 90
        0
 91
        0
 92
      512
 93
        0
300

 40
0.0
140
1.0
 94
        2
 62
     0
340
23
144
4.5
309
CONTENTFORMAT_END
171
     1
301
MARGIN
  1
CELLMARGIN_BEGIN
 40
1.5
 40
1.5
 40
1.5
 40
1.5
 40
4.5
 40
4.5
309
CELLMARGIN_END
 94
        6
 95
        1
302
GRIDFORMAT
  1
GRIDFORMAT_BEGIN
 90
        0
 91
        1
 62
     0
 92
       -2
340
26
 93
        0
 40
1.125
309
GRIDFORMAT_END
 95
        2
302
GRIDFORMAT
  1
GRIDFORMAT_BEGIN
 90
        0
 91
        1
 62
     0
 92
       -2
340
26
 93
        0
 40
1.125
309
GRIDFORMAT_END
 95
        4
302
GRIDFORMAT
  1
GRIDFORMAT_BEGIN
 90
        0
 91
        1
 62
     0
 92
       -2
340
26
 93
        0
 40
1.125
309
GRIDFORMAT_END
 95
        8
302
GRIDFORMAT
  1
GRIDFORMAT_BEGIN
 90
        0
 91
        1
 62
     0
 92
       -2
340
26
 93
        0
 40
1.125
309
GRIDFORMAT_END
 95
       16
302
GRIDFORMAT
  1
GRIDFORMAT_BEGIN
 90
        0
 91
        1
 62
     0
 92
       -2
340
26
 93
        0
 40
1.125
309
GRIDFORMAT_END
 95
       32
302
GRIDFORMAT
  1
GRIDFORMAT_BEGIN
 90
        0
 91
        1
 62
     0
 92
       -2
340
26
 93
        0
 40
1.125
309
GRIDFORMAT_END
309
TABLEFORMAT_END
  1
CELLSTYLE_BEGIN
 90
        3
 91
        2
300
_DATA
309
CELLSTYLE_END
  0
ENDSEC
  0
SECTION
  2
ACDSDATA
 70
     2
 71
     8
  0
ACDSSCHEMA
 90
        0
  1
AcDb_Thumbnail_Schema
  2
AcDbDs::ID
280
    10
 91
        8
  2
Thumbnail_Data
280
    15
 91
        0
101
ACDSRECORD
 95
        0
 90
        1
  2
AcDbDs::TreatedAsObjectData
280
     1
291
     1
101
ACDSRECORD
 95
        0
 90
        2
  2
AcDbDs::Legacy
280
     1
291
     1
101
ACDSRECORD
  1
AcDbDs::ID
 90
        3
  2
AcDs:Indexable
280
     1
291
     1
101
ACDSRECORD
  1
AcDbDs::ID
 90
        4
  2
AcDbDs::HandleAttribute
280
     7
282
     1
  0
ACDSSCHEMA
 90
        1
  1
AcDbDs::TreatedAsObjectDataSchema
  2
AcDbDs::TreatedAsObjectData
280
     1
 91
        0
  0
ACDSSCHEMA
 90
        2
  1
AcDbDs::LegacySchema
  2
AcDbDs::Legacy
280
     1
 91
        0
  0
ACDSSCHEMA
 90
        3
  1
AcDbDs::IndexedPropertySchema
  2
AcDs:Indexable
280
     1
 91
        0
  0
ACDSSCHEMA
 90
        4
  1
AcDbDs::HandleAttributeSchema
  2
AcDbDs::HandleAttribute
280
     7
 91
        1
284
     1
  0
ACDSRECORD
 90
        0
  2
AcDbDs::ID
280
    10
320
17
  2
Thumbnail_Data
280
    15
 94
     3718
310
89504E470D0A1A0A0000000D4948445200000100000000A30803000000525330A000000300504C5445212830FFFFFF2128300000000000000000000000000000000000000000000000000000330000660000990000CC0000FF0033000033330033660033990033CC0033FF0066000066330066660066990066CC0066FF0099
310
000099330099660099990099CC0099FF00CC0000CC3300CC6600CC9900CCCC00CCFF00FF0000FF3300FF6600FF9900FFCC00FFFF3300003300333300663300993300CC3300FF3333003333333333663333993333CC3333FF3366003366333366663366993366CC3366FF3399003399333399663399993399CC3399FF33CC00
310
33CC3333CC6633CC9933CCCC33CCFF33FF0033FF3333FF6633FF9933FFCC33FFFF6600006600336600666600996600CC6600FF6633006633336633666633996633CC6633FF6666006666336666666666996666CC6666FF6699006699336699666699996699CC6699FF66CC0066CC3366CC6666CC9966CCCC66CCFF66FF0066
310
FF3366FF6666FF9966FFCC66FFFF9900009900339900669900999900CC9900FF9933009933339933669933999933CC9933FF9966009966339966669966999966CC9966FF9999009999339999669999999999CC9999FF99CC0099CC3399CC6699CC9999CCCC99CCFF99FF0099FF3399FF6699FF9999FFCC99FFFFCC0000CC00
310
33CC0066CC0099CC00CCCC00FFCC3300CC3333CC3366CC3399CC33CCCC33FFCC6600CC6633CC6666CC6699CC66CCCC66FFCC9900CC9933CC9966CC9999CC99CCCC99FFCCCC00CCCC33CCCC66CCCC99CCCCCCCCCCFFCCFF00CCFF33CCFF66CCFF99CCFFCCCCFFFFFF0000FF0033FF0066FF0099FF00CCFF00FFFF3300FF3333
310
FF3366FF3399FF33CCFF33FFFF6600FF6633FF6666FF6699FF66CCFF66FFFF9900FF9933FF9966FF9999FF99CCFF99FFFFCC00FFCC33FFCC66FFCC99FFCCCCFFCCFFFFFF00FFFF33FFFF66FFFF99FFFFCCFFFFFF0000000D0D0D1A1A1A2828283535354343435050505D5D5D6B6B6B787878868686939393A1A1A1AEAEAEBB
310
BBBBC9C9C9D6D6D6E4E4E4F1F1F1FFFFFF0000000000000000000000000000000000000000000000000000000000002E4550F1000007B14944415478DAED5C0BB6DB280CD50EB412ED7F335ACCC4A02FE03C374E67E619DD73DAA6366074113F21040040040480C0008CFAE3F5CFF1FCF5E2E1A0CE4090DB7E003E5FFC43F8
310
A3FD51185002BAFC9D9E1D18E0CE40EF038D802E3F6FC1C021A4B478931C55118EAEF07C06A88F73DCDAFC204069783D821D087849D825ED0C3402A41F345E3620E0D075EE0C341580CE02F4C78F9F098E1500767D6F0C307267E27874BCD9808063026814BC5ABE137068C2213E6C300A90888987F087F8D86860B4E7C77A
310
909EBB24EC5DA0898BAA006D10B0C75DF6C732402CE8F236F9F55707C1A37B82C9A534B08AEE295A07783401AE035DFFADF57720A0CBD9BA7B1C027AFFDFA30B7459E198FC9A0AC88A585FC820F8F069B0A97DDB00A02C03505F3C7F1AD475D0B105EC6B215B08EEB0106AE283AE845B47682CB4671B2C856D33D46C007937
310
B8C56648B7C3620C8BF6804DB6C3B212003588C8DF6A1178F400E80C9C9AC49E3D05FA62C8E40F56E18301A22D187867167FF432D808F083917832F49A01A8BFA4C78B4F747234F6EC7D4090BF9D8E98E6B39E893CDC1862AD4BD2D79D009BFB9E3F0D7A373F447D293E6E30F32F4C42E4EDBD93F40301E211B01B03E40A20
310
5D02766380288D07DB31B01E0F3666606702686FF9E3785028140A8542A15028140A8542A15028140A85BF8A9DADF14CED50FAF8C33B0ADF9C52A1FFE1BD48E8C227021A09BF5C2CD7E81FDA924C642540E820FCCD8D4AAD41297A1A9E0E7BB826E0F73A6937E95DA3B971B04E8AE45A1F09E0FEEBBF51829B67833434A8B6
310
272D9BBFDFC850A1D1C990DCF4E63BF417F8E94E5270C3498A5C1E2380CF223110E456C7AC0078BA327829592380F8AB07B9276E727F027C43C0D45E2CCD1F72042EBA76AC6603E2E0DBFDC5F962ED28F987149A3CDEA0AACF23A1A42DBD20C067445AF4B14CC0976E749CB9CAAE1AA06BDF62EE33D5CDD158B43D795CF626
310
063833A61968D16DB49EEFAAF9C12AFC52149997C635025E3FF8AC49833C491CCAE5240678FCB211C6E3AA4109C0A02D745BFE6B5164088392F46F27128D81A1A078F942F5480254802B73FE32CF112C38D43397CEF7BBFFC98589C480A99D5E2A89239B0A844B26459CD401F4114E32A1171769A365E2F683EE76800B5164
310
DA308176BDAE25219ADA742E68118FA45F48740662E096203F24F526A36B513ADD1C00C2A5290F2394A3C874FDD68FDB9D9A2092DD3E5BDDBE8A57F0E4AEE2320360C8D09291B77F5028CC77BB6E4C8717AFCDE9D4960860D0E980F4FAA51714520D9730C9B4E06D867C7395EC76A33454AAE60D15B8767192FA2D7361C03B
310
2153122916247FC17C0D97B2D668B13983863019F8B23AE097EE7786ABB3ECD24D5767314E6EF66D5B86B848DC9E8A328B3E593C16950573C731CAD83240484341C55855E548883628DF087B36B49D4591195A8D7A9A269B24E11E6A24CB84C28BC521E8FF1B64D11BFB12C26791C1DE62B8BBA814C8056F94E9F2DE1DEF74
310
7DFE60A0D5245F9F97F6401D7D2409DA2284C065526AB8F568616992E52483D11A388A140B5F5AFA58CD8FBB80055090303A39808228400B2BC19DA3261858A0259F0B7AF899A1209745560016A1E4C70C1AC28262623EABE66736C91042C363680C21343C9126E93176C2EB28538CC793643161C0A3942C33E420264EDA90
310
58A90AA13E3E5B0578281D152E7FBFED952DCE0C5BA899F0DA4B91702CBD207FA87BEEBC7BE1A1D821844DCA735A4D862FDCED7B1346C74AF780439E406F974E020DC168604D80651A8A85933C73E931D9A75DC003299916E6404AFAAD94647A1DD5D40B4AEF7DC4E0AC3021432E2D7401AB42AC260C019F3E1C047578D120
310
223194564C3547DA49572CB4242FC89E0D8320C771337F39A4E771109C12A76ADE980625981AEA109F82A9C924D4E90E91765067278220672808C334354D839663FA3264D6E24AE3BC9A786721F473383D5D88E920E129A6C5DD5450788751E9E2D2A907F0615942626288D27A98D37AED7ED4BF31A022AE032ADA22CC23ED
310
2CBEDED729534180274B61FDF4B012E43189AE4420278ED5FC7C373484D4C475484D22592BF7483B3D1D4C9B2127D27744716B936FA585DD90EC1B18E7BD50DC0CC54D9B963EA4FE743BAC0689B3A0AAC2F5B8CF1BB6C30C9ADB77B7EC12D1A807BE13B70C81FBC57678B51BBCB91D868B6175696D0F980D22D3F61EC666A2
310
6813E2680F085F66581944CCD48629F1ADF301824B26B166921C9204EB38F16CE11A2D7CA349CC0FC6719181D9939E9BC4BE11FFF96A686D318AE2B95174B271869396AB46D1908107A3A458E51689E9AE55F4AA593CD80B5766718613AB707B359BC5E18D591C5666F1B555186E7B945C3F18013D18812F1C8CF839F02203
310
C37C3042B83A18C12F9C0D5D3E1A233D1AA3B3A3B11501274763BCC8108E52E6BE8DABA3B12F391288AFCEADC3D1D559E7D9613FC5E3E139834C12B4387FFD2B87A35F3D1E4F9DF3D4DDE3C3E3711A8FC7BFE82240AD2334DDFFD71D242602DE3B48809CD07EDD91E86E14191A5C7ED4E1E3B28B4CF299FBC145E6FFE94645
310
343A7D9D3B4901642729F711321DF88DE0C14D8EDF0E3BE76E72BFD959F2BEA324FC6247C93F1D74B2ABAC6C6D76F21C671A7C85F7F318A7E62EDF060D22DEF5DA401F34A05028140A8542A15028140A8542A15028140A8542A15028140A8542A15028140A8542A15028140A8542A15028140A85CFF10F4FEB5F737127A5BC
310
0000000049454E44AE42608205F99E94514311283AAA142470F782F717BB59CA20597604805DFC36639E7239DB621B819B2E0F327487B3C53B80B97479BBF87935CCAC758520B75F400936F70BB492BB16180318D83382F60B183B469C7D1BB91D23276D9989768CA09072C9AB91DE3435BC67E8A44D53C19EA170D35476CF
310
10DCBC676C9B4AED1A03C735E93D9BFD665240C0851DEE1C1CD836972030B06F50D071557FB171D23F483C06A0080023F867B6CE7250FCA8FCFD3C2CB5793ADE3BFCBF6D9E4EEE1F0FD43861FB3CE3F28F4B0E37AAB357FDFEFEF921354643F2EC0876CE0FD08D80B39250F1C7CF0FC811F8274F90708ED01857E38C4354B8
310
1C3F4465C0D6C68F91193E4667ACFCA71CA3933EAD25778CCE0000E720A1C307295900660F52E2E21FA434768E507494D8458ED272CA6F02F8C70E532B870E534B9CA6F657C7E995A9E3F40633C01C6F287F9ADC2F1DA838799EE004E75CF9F30090094C9DF609CBEF1FA939C5D92F7FFE44C9F30F555DCD397DA8EA540224
310
27CB3FA0C699C7EAB279ACAE623F9B001B1CABEB9F2A9B3A58B91C3D58B9D80E9F4C77B2460C223480A81E802772FCEC6FEE3A3A75B2F4A1EC6775B4F6FCC9D2D004CE385D9DD93B5CFD60F2373BE5B70C207FBCFE79E7EBCB5EEEEA0B39036F5CFE7900E7DEB0F0BA5F60BBFBF7BC3B16D82A7FF67E01B42E7BA99B69CFBB
310
61E2AA97AC9C76C7486D0297BA6687C1353B8E01C4172D5DEFA6251E318010C015EFDAE203374D75BF72D1DBD6387FD7987BDBDC65EFDBA303D7ED554DFFCA372EF24100D7BF7273FAC6C90BB77C4C60E0CED1DFB8FBEB5F7208BC5B67BFF4DEE5D800BEFCEAEDA19BA7BFF321F65BC0F7DF3EBFF7E87705002FE090722700
310
ED45677704A0236E72B3F29777CCF5CE009A0EF1762DA04770D180E759085801B89F196C739E1B5A400B82F83BA741CFF33CCFF33C23CF7F18B779B70E9AE4250000000049454E44AE426082B5E7CFF9D50BC3208C89CB22C0EFE2E3755F2EB6AB052E0B003195F3B27B0073BA2FBC07EA7F0776590428C0CFFDE3000013BB
310
AF8A00E92589D705406E5AC38BD68FC0F8F2177507A15D137BCDBB66FAAB5C2FE90E2AA3FFB22121F12108D73D062B87F8CA7E00BFB5765D0E85DC685FF0AA01B1FDDFC8574D8B59387C59008ABE0176D14DC0147FDDAC68B9B4FC030E7243798C4BC5A80000000049454E44AE4260822F5080F18F53D6AE7295AB5CE52A57
310
B9CA55AE7295AB5CE52A573969F91F94BAEF96DF955B2D0000000049454E44AE426082
  0
ENDSEC
  0
EOF
